<?xml version="1.0" encoding="UTF-8" standalone="no"?><svg xmlns="http://www.w3.org/2000/svg" xmlns:xlink="http://www.w3.org/1999/xlink" clip-rule="evenodd" stroke-miterlimit="10" viewBox="0 0 54 57"><desc>SVG generated by Keynote</desc><defs></defs><g transform="matrix(1.00, 0.00, -0.00, -1.00, 0.0, 57.0)"><image xlink:href="../../02F80D6D-8987-46BD-A342-0C53BE9A6B40/assets/836DBC2F64AF551C451C006B33B643EE.png" width="51.00" height="51.00" transform="matrix(1.00, 0.00, -0.00, -1.00, 1.0, 52.0)" opacity="0.50"></image><path d="M 42.4 44.4 C 51.2 35.6 51.2 21.4 42.4 12.6 C 33.6 3.8 19.4 3.8 10.6 12.6 C 1.8 21.4 1.8 35.6 10.6 44.4 C 19.4 53.2 33.6 53.2 42.4 44.4 Z M 42.4 44.4 " fill="#C82505"></path><g><clipPath id="clip0x7fe12468d140"><path d="M 4.0 6.0 L 49.0 6.0 L 49.0 51.0 L 4.0 51.0 Z M 4.0 6.0 "></path></clipPath><g clip-path="url(#clip0x7fe12468d140)"><text xml:space="preserve" font-family="Helvetica-Light,Helvetica" font-size="12.0" fill="#FEFFFF" transform="matrix(1.00, 0.00, -0.00, -1.00, 19.8, 24.6)">1</text><text xml:space="preserve" font-family="Helvetica-Light,Helvetica" font-size="12.0" fill="#FEFFFF" transform="matrix(1.00, 0.00, -0.00, -1.00, 26.5, 24.6)">0</text></g></g></g></svg>