<?xml version="1.0" encoding="UTF-8" standalone="no"?><svg xmlns="http://www.w3.org/2000/svg" xmlns:xlink="http://www.w3.org/1999/xlink" clip-rule="evenodd" stroke-miterlimit="10" viewBox="0 0 221 36"><desc>SVG generated by Keynote</desc><defs></defs><g transform="matrix(1.00, 0.00, -0.00, -1.00, 0.0, 36.0)"><path d="M 174.1 20.2 C 174.5 20.3 176.1 20.3 176.1 20.2 C 175.5 20.2 174.2 20.1 174.1 20.2 C 174.1 20.2 174.1 20.2 174.1 20.2 Z M 170.8 20.3 C 171.4 20.3 172.7 20.3 173.1 20.2 C 172.4 20.2 171.0 20.2 170.8 20.3 C 170.8 20.3 170.8 20.3 170.8 20.3 Z M 175.8 19.9 C 176.7 19.9 178.3 20.0 178.7 19.9 C 177.9 19.9 176.2 19.9 175.8 19.9 C 175.8 19.9 175.8 19.9 175.8 19.9 Z M 129.7 21.8 C 130.1 21.8 131.7 21.8 131.7 21.7 C 131.1 21.7 129.8 21.7 129.7 21.8 C 129.7 21.8 129.7 21.8 129.7 21.8 Z M 138.8 21.5 C 139.4 21.6 140.7 21.5 141.1 21.5 C 140.4 21.5 139.0 21.4 138.8 21.5 C 138.8 21.5 138.8 21.5 138.8 21.5 Z M 144.1 21.6 C 145.3 21.5 146.7 21.5 146.4 21.4 C 146.0 21.5 144.2 21.4 144.1 21.6 C 144.1 21.6 144.1 21.6 144.1 21.6 Z M 174.8 15.6 C 173.5 15.7 172.5 15.6 171.6 15.6 C 167.2 15.6 173.9 15.8 174.8 15.6 C 174.8 15.6 174.8 15.6 174.8 15.6 Z M 153.4 21.2 C 152.6 21.2 151.8 21.2 151.4 21.3 C 152.2 21.3 153.4 21.3 153.4 21.2 C 153.4 21.2 153.4 21.2 153.4 21.2 Z M 161.1 21.1 C 161.3 21.2 165.9 21.1 168.4 21.1 C 166.2 21.0 160.9 21.0 161.1 21.1 C 161.1 21.1 161.1 21.1 161.1 21.1 Z M 164.1 15.6 C 161.2 15.7 156.4 15.6 154.3 15.7 C 152.2 15.7 158.1 15.8 163.5 15.8 C 169.0 15.7 164.5 15.5 166.7 15.5 C 168.9 15.5 164.6 15.4 162.4 15.5 C 160.2 15.5 163.9 15.5 164.1 15.6 C 164.1 15.6 164.1 15.6 164.1 15.6 Z M 164.2 15.2 C 165.3 15.2 166.2 15.2 166.9 15.1 C 165.7 15.1 164.7 15.1 164.2 15.2 C 164.2 15.2 164.2 15.2 164.2 15.2 Z M 6.1 17.9 C 6.4 19.0 9.0 19.9 11.8 20.5 C 12.5 20.6 13.2 20.8 14.0 20.9 C 19.1 21.4 24.3 21.6 29.5 21.8 C 30.5 21.8 31.6 21.8 32.6 21.8 C 35.8 21.9 39.0 21.9 42.2 21.9 C 43.3 22.0 44.4 22.0 45.5 22.0 C 49.3 22.1 53.0 22.0 56.8 22.0 C 58.7 22.0 60.6 22.0 62.6 22.2 C 63.6 22.2 67.8 22.2 69.3 22.1 C 67.9 22.4 74.9 22.3 74.5 22.3 C 75.3 22.2 76.1 22.1 76.9 22.1 C 77.7 22.1 76.7 22.0 75.7 22.0 C 76.6 22.0 77.5 21.9 78.4 21.9 C 79.4 21.9 80.4 22.0 81.4 22.0 C 84.6 22.1 88.1 22.0 91.1 21.9 C 99.4 21.9 122.0 21.8 117.9 21.7 C 113.3 21.7 115.7 21.6 116.9 21.6 C 117.6 21.6 118.6 21.6 119.7 21.6 C 119.7 21.6 119.6 21.6 119.4 21.7 C 121.5 21.7 124.4 21.8 127.2 21.7 C 126.7 21.7 126.0 21.7 125.8 21.6 C 127.2 21.6 126.1 21.5 127.0 21.5 C 129.6 21.4 130.9 21.4 127.8 21.4 C 130.7 21.3 132.5 21.1 135.3 21.0 C 136.3 21.0 135.7 21.0 135.4 21.1 C 137.3 21.1 141.5 21.1 141.9 21.2 C 142.3 21.2 130.4 21.2 132.5 21.3 C 133.4 21.3 135.2 21.3 135.8 21.3 C 134.3 21.3 132.5 21.3 131.5 21.4 C 132.6 21.4 134.0 21.4 134.9 21.4 C 133.9 21.4 133.2 21.4 132.9 21.5 C 134.3 21.5 135.4 21.5 137.2 21.5 C 138.0 21.5 136.5 21.4 138.2 21.4 C 138.5 21.3 137.1 21.4 137.2 21.3 C 138.5 21.3 141.2 21.3 141.8 21.3 C 142.5 21.2 140.2 21.3 140.2 21.2 C 145.3 21.2 151.2 21.2 153.0 21.2 C 154.8 21.1 153.1 21.1 152.4 21.1 C 154.5 21.1 156.1 21.1 158.6 21.0 C 160.2 21.0 159.6 21.0 159.0 21.0 C 159.4 21.0 159.8 21.0 160.0 21.0 C 160.2 20.9 160.7 20.9 161.0 20.9 C 160.0 20.9 158.1 20.9 157.3 20.9 C 158.8 20.8 162.4 20.9 163.6 20.8 C 161.6 20.7 159.4 20.7 157.1 20.7 C 161.6 20.7 166.2 20.9 169.8 20.7 C 169.1 20.7 168.8 20.6 168.3 20.6 C 169.7 20.6 171.7 20.7 172.9 20.6 C 173.6 20.6 174.9 20.5 176.3 20.5 C 173.9 20.5 172.4 20.4 170.7 20.5 C 170.8 20.5 170.9 20.4 171.2 20.4 C 167.5 20.3 165.4 20.6 162.8 20.6 C 162.6 20.6 162.4 20.6 162.2 20.6 C 161.4 20.5 164.3 20.5 164.6 20.5 C 160.8 20.4 156.6 20.5 154.7 20.4 C 159.3 20.4 163.3 20.4 166.8 20.3 C 165.9 20.2 162.4 20.3 160.8 20.2 C 168.3 20.1 169.0 20.1 169.6 20.1 C 169.0 20.0 168.5 20.0 167.9 20.0 C 168.0 20.0 168.2 20.0 168.3 20.0 C 171.6 20.0 175.5 20.0 175.3 19.9 C 175.2 19.9 172.1 19.9 168.9 19.9 C 169.3 19.8 169.6 19.8 170.0 19.7 C 173.7 19.7 177.9 19.5 181.6 19.6 C 181.0 19.5 181.3 19.5 182.1 19.4 C 180.9 19.4 179.3 19.4 178.0 19.3 C 178.5 19.3 179.2 19.3 179.5 19.3 C 178.8 19.2 177.9 19.3 177.5 19.2 C 179.3 19.1 181.2 19.1 183.1 19.1 C 183.4 19.0 182.3 19.1 182.4 19.0 C 184.1 19.0 186.6 19.0 187.9 18.9 C 186.4 18.8 183.5 18.9 182.6 18.9 C 183.2 18.8 183.8 18.8 184.4 18.8 C 185.6 18.8 186.2 18.7 184.8 18.7 C 184.1 18.7 184.1 18.7 184.3 18.7 C 185.1 18.6 188.0 18.6 187.9 18.5 C 187.2 18.5 184.3 18.5 183.6 18.4 C 184.1 18.2 185.6 18.3 185.7 18.2 C 182.5 18.3 182.7 18.2 181.9 18.3 C 182.2 18.3 183.1 18.3 183.1 18.3 C 181.1 18.3 179.2 18.3 177.1 18.3 C 177.1 18.3 177.1 18.3 177.1 18.3 C 177.1 18.3 177.1 18.3 177.1 18.3 C 177.1 18.3 177.1 18.3 177.1 18.3 C 177.3 18.2 177.3 18.2 177.1 18.1 C 177.9 18.1 178.8 18.1 180.4 18.1 C 180.0 17.9 178.5 18.0 177.2 18.0 C 177.2 18.0 177.2 18.0 177.2 17.9 C 179.4 17.9 182.8 17.9 185.0 17.8 C 184.0 17.8 180.2 17.8 177.6 17.8 C 177.7 17.8 177.8 17.8 177.9 17.7 C 174.6 17.8 170.8 17.6 167.2 17.7 C 169.0 17.5 171.0 17.7 173.3 17.6 C 174.3 17.6 175.3 17.5 176.3 17.5 C 179.1 17.5 187.7 17.5 188.6 17.5 C 189.7 17.4 181.1 17.4 181.0 17.4 C 181.0 17.3 185.0 17.3 183.1 17.3 C 182.1 17.3 180.0 17.3 178.4 17.3 C 178.3 17.2 178.3 17.2 178.2 17.1 C 179.6 17.1 181.2 17.0 181.3 17.2 C 181.9 17.2 183.4 17.2 183.6 17.2 C 183.3 17.1 183.0 17.2 183.0 17.1 C 183.3 17.1 183.8 17.1 183.9 17.1 C 182.2 17.1 179.9 17.0 178.1 17.0 C 178.0 17.0 177.8 16.9 177.7 16.9 C 177.7 16.9 179.1 16.8 180.3 16.8 C 181.6 16.8 178.9 16.8 176.9 16.8 C 176.5 16.7 176.2 16.7 175.8 16.6 C 176.6 16.6 177.4 16.6 178.4 16.6 C 179.6 16.6 179.5 16.5 180.7 16.4 C 178.5 16.4 176.0 16.4 173.9 16.4 C 173.2 16.4 172.4 16.3 171.6 16.2 C 173.4 16.2 174.9 16.1 175.9 16.0 C 176.6 16.0 177.4 16.1 177.7 16.0 C 177.0 16.0 178.8 15.9 178.6 15.8 C 177.6 15.9 175.5 15.9 174.8 16.0 C 173.2 16.0 171.5 16.0 170.0 16.0 C 169.8 16.0 169.6 16.0 169.4 16.0 C 170.7 16.0 171.9 16.0 173.3 15.9 C 172.7 15.8 168.9 15.8 166.1 15.8 C 160.4 15.7 154.7 16.3 149.1 16.4 C 148.9 16.4 148.5 16.3 148.2 16.3 C 147.8 16.3 147.4 16.2 146.9 16.2 C 148.3 16.2 149.5 16.2 150.5 16.1 C 146.5 16.0 156.2 16.1 156.8 15.9 C 150.3 15.8 138.2 15.9 130.8 15.8 C 132.6 15.8 133.1 15.8 131.2 15.7 C 130.7 15.7 130.2 15.7 129.6 15.7 C 137.2 15.6 145.1 15.8 151.2 15.6 C 147.6 15.6 142.1 15.7 140.6 15.5 C 141.7 15.5 143.2 15.5 143.4 15.5 C 141.6 15.4 135.4 15.5 133.6 15.4 C 142.5 15.3 154.5 15.4 161.0 15.2 C 151.2 15.3 137.8 15.2 129.4 15.3 C 130.8 15.4 130.8 15.4 130.1 15.4 C 127.4 15.5 124.8 15.5 122.1 15.5 C 121.6 15.5 121.8 15.5 123.1 15.5 C 124.1 15.4 124.8 15.4 125.1 15.4 C 124.4 15.3 116.0 15.4 122.7 15.3 C 129.3 15.3 140.8 15.2 134.1 15.2 C 127.4 15.1 124.7 15.1 128.4 15.0 C 132.0 15.0 143.6 14.9 139.8 14.8 C 135.9 14.8 127.7 14.7 123.1 14.8 C 118.4 14.8 126.2 15.1 119.4 15.1 C 112.6 15.2 118.3 15.0 117.0 15.0 C 114.9 15.0 111.1 15.0 107.5 15.0 C 105.0 15.0 101.7 15.0 100.1 15.0 C 100.2 14.9 107.9 14.9 104.9 14.9 C 97.4 14.9 89.1 14.8 92.5 15.0 C 87.9 15.0 84.5 15.0 81.6 15.0 C 77.1 14.9 71.9 14.9 71.3 14.9 C 70.6 14.8 58.4 15.1 53.8 14.7 C 53.4 14.7 45.2 14.8 44.5 14.9 C 36.6 14.8 37.7 14.7 30.0 14.8 C 23.5 14.8 21.6 14.9 20.5 14.9 C 13.7 14.9 13.7 14.8 10.4 15.3 C 9.4 15.5 7.8 15.5 7.3 15.8 C 6.2 16.3 5.7 17.0 6.1 17.9 C 6.1 17.9 6.1 17.9 6.1 17.9 Z M 176.3 18.5 C 177.5 18.6 179.6 18.5 180.9 18.6 C 179.5 18.7 177.7 18.7 175.8 18.6 C 176.0 18.6 176.1 18.5 176.3 18.5 C 176.3 18.5 176.3 18.5 176.3 18.5 Z M 167.0 16.8 C 167.8 16.8 168.7 16.9 169.6 16.9 C 170.5 16.9 171.4 16.9 172.7 16.9 C 172.6 16.8 170.4 16.7 168.8 16.8 C 168.8 16.7 168.8 16.7 168.8 16.7 C 169.6 16.6 170.5 16.6 171.7 16.6 C 172.1 16.6 172.4 16.6 172.8 16.6 C 172.9 16.7 172.3 16.7 172.0 16.7 C 172.3 16.8 173.3 16.8 174.6 16.8 C 174.8 16.9 175.0 16.9 175.1 16.9 C 175.3 17.0 174.3 17.0 175.4 17.0 C 174.6 17.1 172.6 17.0 171.4 17.0 C 172.8 16.9 167.5 17.0 166.2 16.9 C 166.4 16.9 166.7 16.9 167.0 16.8 Z M 156.8 20.7 C 156.1 20.7 155.4 20.7 154.7 20.7 C 155.7 20.7 156.5 20.7 157.3 20.7 C 157.1 20.7 157.0 20.7 156.8 20.7 Z M 97.5 21.6 C 101.8 21.3 110.9 21.5 111.5 21.4 C 112.4 21.4 113.3 21.4 114.3 21.5 C 108.3 21.5 101.8 21.5 97.5 21.6 C 97.5 21.6 97.5 21.6 97.5 21.6 Z M 112.7 15.4 C 113.1 15.5 113.0 15.5 112.1 15.5 C 107.4 15.6 104.7 15.6 107.6 15.6 C 110.1 15.6 115.6 15.7 114.0 15.7 C 111.8 15.7 109.7 15.7 107.5 15.8 C 105.8 15.7 104.2 15.6 102.5 15.5 C 106.1 15.5 109.6 15.5 112.7 15.4 C 112.7 15.4 112.7 15.4 112.7 15.4 Z M 100.5 15.3 C 101.8 15.3 103.4 15.4 104.9 15.4 C 103.6 15.4 102.2 15.4 100.8 15.4 C 100.7 15.4 100.6 15.4 100.5 15.3 Z M 98.9 15.2 C 101.5 15.2 104.1 15.2 101.5 15.3 C 100.9 15.3 100.3 15.3 99.7 15.3 C 99.4 15.3 99.2 15.2 98.9 15.2 Z M 97.3 15.1 C 97.3 15.2 97.7 15.2 98.6 15.2 C 96.8 15.2 93.3 15.3 93.4 15.2 C 94.6 15.2 95.9 15.2 97.3 15.1 C 97.3 15.1 97.3 15.1 97.3 15.1 Z M 94.6 21.7 C 95.8 21.7 96.8 21.7 94.9 21.8 C 94.2 21.8 93.5 21.8 92.8 21.8 C 93.4 21.8 94.0 21.7 94.6 21.7 Z M 155.1 15.5 C 154.6 15.5 152.7 15.5 151.6 15.5 C 151.5 15.8 155.8 15.6 155.1 15.5 C 155.1 15.5 155.1 15.5 155.1 15.5 Z M 162.1 15.4 C 161.7 15.4 159.8 15.4 158.7 15.4 C 158.6 15.7 162.8 15.5 162.1 15.4 C 162.1 15.4 162.1 15.4 162.1 15.4 Z M 53.8 14.7 C 53.8 14.7 53.8 14.7 53.8 14.7 C 53.8 14.7 53.8 14.7 53.8 14.7 C 53.8 14.7 53.8 14.7 53.8 14.7 Z M 53.8 14.7 " fill="#179A19"></path><path d="M 185.2 33.9 C 185.8 34.3 186.4 34.0 186.5 34.0 C 186.5 34.0 186.5 34.0 186.5 34.0 L 186.5 34.0 L 186.5 33.9 L 186.6 33.9 L 186.7 33.9 L 186.8 33.7 L 187.2 33.6 C 187.4 33.5 187.5 33.5 187.6 33.5 C 187.9 33.7 186.7 34.2 187.0 34.4 C 187.2 34.5 191.3 32.4 191.4 32.4 C 191.6 32.1 192.6 31.5 192.9 31.3 C 192.2 31.7 191.8 32.1 191.6 32.3 C 191.6 32.3 190.7 33.0 191.8 32.7 C 191.7 32.8 191.7 32.9 191.7 32.9 L 191.8 32.9 C 191.7 32.9 190.6 33.3 190.7 33.6 C 190.8 34.1 193.9 31.7 194.4 31.8 C 193.9 32.0 193.7 32.2 193.5 32.4 C 194.3 31.8 198.2 29.9 198.9 29.5 C 201.6 28.0 204.3 26.1 206.9 24.4 C 208.1 23.7 209.5 22.9 210.9 22.0 L 213.1 20.6 L 213.3 20.5 L 213.4 20.5 L 213.4 20.5 C 213.6 20.4 213.0 20.8 213.8 20.2 C 214.8 20.0 214.7 16.8 213.7 16.7 C 213.1 16.3 213.5 16.6 213.4 16.5 L 213.4 16.5 L 213.1 16.3 L 212.5 16.0 L 211.3 15.4 C 208.1 13.8 204.9 12.2 202.4 10.7 C 200.7 9.7 193.7 6.4 193.5 6.1 C 193.3 6.0 191.2 4.9 189.2 3.9 L 187.7 3.2 L 187.0 2.8 L 186.8 2.7 L 186.7 2.7 L 186.7 2.7 L 186.7 2.7 L 186.7 2.7 C 186.8 2.9 186.5 2.1 185.0 2.7 C 183.6 5.0 184.6 3.8 184.3 4.1 L 184.3 4.1 L 184.3 4.4 C 184.3 5.3 184.3 5.9 184.3 6.0 C 184.3 6.2 183.9 5.7 183.8 5.7 L 183.8 6.9 C 183.7 6.8 183.7 6.6 183.6 6.3 C 183.4 8.4 184.1 12.9 184.1 14.5 C 184.2 14.3 184.4 14.7 184.3 14.7 C 184.3 14.7 184.1 27.1 184.1 28.4 C 184.1 29.6 184.9 32.6 185.2 31.3 C 185.4 30.4 185.4 31.2 185.5 31.8 C 186.6 30.1 185.1 35.0 186.6 31.3 C 186.6 31.2 187.1 32.4 186.9 32.9 C 186.6 31.2 187.1 32.4 186.9 32.9 C 186.6 31.2 187.1 32.4 186.9 32.9 " fill="#179A19"></path></g></svg>