<?xml version="1.0" encoding="UTF-8" standalone="no"?><svg xmlns="http://www.w3.org/2000/svg" xmlns:xlink="http://www.w3.org/1999/xlink" clip-rule="evenodd" stroke-miterlimit="10" viewBox="0 0 420 495"><desc>SVG generated by Keynote</desc><defs></defs><g transform="matrix(1.00, 0.00, -0.00, -1.00, 0.0, 495.0)"><g><clipPath id="clip0x7fe126b16f10"><path d="M 3.0 3.9 L 419.3 3.9 L 419.3 494.1 L 3.0 494.1 Z M 3.0 3.9 "></path></clipPath><g clip-path="url(#clip0x7fe126b16f10)"><path d="M 5.0 492.0 L 417.0 492.0 L 417.0 6.0 L 5.0 6.0 Z M 5.0 492.1 " fill="#FEFFFE"></path><path d="M 0.0 0.1 L 412.0 0.1 L 412.0 486.1 L 0.0 486.1 Z M 0.0 0.0 " fill="none" stroke="#85878C" stroke-width="2.00" transform="matrix(1.00, 0.00, 0.00, -1.00, 5.0, 492.1)"></path></g></g><g><clipPath id="clip0x7fe126b18710"><path d="M 0.9 0.8 L 39.9 0.8 L 39.9 39.4 L 0.9 39.4 Z M 0.9 0.8 "></path></clipPath><g clip-path="url(#clip0x7fe126b18710)"><image xlink:href="50C9DD1694822860F5ECF8FAFA5AC118.png" width="37.00" height="37.00" transform="matrix(1.00, 0.00, -0.00, -0.99, 1.9, 38.4)" opacity="0.50"></image><path d="M 5.0 37.0 L 36.0 37.0 L 36.0 7.0 L 5.0 7.0 Z M 4.9 37.4 " fill="#000000"></path></g></g><g><clipPath id="clip0x7fe1269b87b0"><path d="M 4.9 6.8 L 35.9 6.8 L 35.9 37.4 L 4.9 37.4 Z M 4.9 6.8 "></path></clipPath><g clip-path="url(#clip0x7fe1269b87b0)"><text xml:space="preserve" font-family="Helvetica-Light,Helvetica" font-size="11.0" fill="#FEFFFF" transform="matrix(1.00, 0.00, -0.00, -1.00, 8.9, 17.9)">B</text><text xml:space="preserve" font-family="Helvetica-Light,Helvetica" font-size="11.0" fill="#FEFFFF" transform="matrix(1.00, 0.00, -0.00, -1.00, 15.5, 17.9)">a</text><text xml:space="preserve" font-family="Helvetica-Light,Helvetica" font-size="11.0" fill="#FEFFFF" transform="matrix(1.00, 0.00, -0.00, -1.00, 21.0, 17.9)">s</text><text xml:space="preserve" font-family="Helvetica-Light,Helvetica" font-size="11.0" fill="#FEFFFF" transform="matrix(1.00, 0.00, -0.00, -1.00, 25.8, 17.9)">e</text></g></g><g><clipPath id="clip0x7fe1269bee20"><path d="M 107.5 242.0 L 159.9 242.0 L 159.9 294.4 L 107.5 294.4 Z M 107.5 242.0 "></path></clipPath><g clip-path="url(#clip0x7fe1269bee20)"><image xlink:href="3CF258371D59D701B266FA3280911B5D.png" width="50.00" height="50.00" transform="matrix(1.01, 0.00, -0.00, -1.01, 108.5, 293.4)" opacity="0.50"></image><path d="M 149.4 285.9 C 158.1 277.2 158.1 263.2 149.4 254.5 C 140.8 245.8 126.7 245.8 118.0 254.5 C 109.4 263.2 109.4 277.2 118.0 285.9 C 126.7 294.6 140.8 294.6 149.4 285.9 Z M 149.4 285.9 " fill="#C82505"></path></g></g><g><clipPath id="clip0x7fe1269c1a10"><path d="M 111.5 248.0 L 155.9 248.0 L 155.9 292.4 L 111.5 292.4 Z M 111.5 248.0 "></path></clipPath><g clip-path="url(#clip0x7fe1269c1a10)"><text xml:space="preserve" font-family="Helvetica-Light,Helvetica" font-size="13.0" fill="#FEFFFF" transform="matrix(1.00, 0.00, -0.00, -1.00, 120.4, 265.6)">[</text><text xml:space="preserve" font-family="Helvetica-Light,Helvetica" font-size="13.0" fill="#FEFFFF" transform="matrix(1.00, 0.00, -0.00, -1.00, 124.7, 265.6)">3</text><text xml:space="preserve" font-family="Helvetica-Light,Helvetica" font-size="13.0" fill="#FEFFFF" transform="matrix(1.00, 0.00, -0.00, -1.00, 131.9, 265.6)">,</text><text xml:space="preserve" font-family="Helvetica-Light,Helvetica" font-size="13.0" fill="#FEFFFF" transform="matrix(1.00, 0.00, -0.00, -1.00, 135.6, 265.6)">7</text><text xml:space="preserve" font-family="Helvetica-Light,Helvetica" font-size="13.0" fill="#FEFFFF" transform="matrix(1.00, 0.00, -0.00, -1.00, 142.8, 265.6)">]</text></g></g><g><clipPath id="clip0x7fe1269c4360"><path d="M 296.9 304.7 L 349.3 304.7 L 349.3 357.0 L 296.9 357.0 Z M 296.9 304.7 "></path></clipPath><g clip-path="url(#clip0x7fe1269c4360)"><image xlink:href="../../B4985C79-FABA-446C-AF05-784F422AD3F2/assets/3CF258371D59D701B266FA3280911B5D.png" width="50.00" height="50.00" transform="matrix(1.01, 0.00, -0.00, -1.01, 297.9, 356.0)" opacity="0.50"></image><path d="M 338.8 348.5 C 347.5 339.9 347.5 325.8 338.8 317.2 C 330.2 308.5 316.1 308.5 307.4 317.2 C 298.8 325.8 298.8 339.9 307.4 348.5 C 316.1 357.2 330.2 357.2 338.8 348.5 Z M 338.8 348.5 " fill="#C82505"></path></g></g><g><clipPath id="clip0x7fe1269c5aa0"><path d="M 300.9 310.7 L 345.3 310.7 L 345.3 355.0 L 300.9 355.0 Z M 300.9 310.7 "></path></clipPath><g clip-path="url(#clip0x7fe1269c5aa0)"><text xml:space="preserve" font-family="Helvetica-Light,Helvetica" font-size="12.0" fill="#FEFFFF" transform="matrix(1.00, 0.00, -0.00, -1.00, 307.5, 329.0)">[</text><text xml:space="preserve" font-family="Helvetica-Light,Helvetica" font-size="12.0" fill="#FEFFFF" transform="matrix(1.00, 0.00, -0.00, -1.00, 311.5, 329.0)">7</text><text xml:space="preserve" font-family="Helvetica-Light,Helvetica" font-size="12.0" fill="#FEFFFF" transform="matrix(1.00, 0.00, -0.00, -1.00, 318.1, 329.0)">,</text><text xml:space="preserve" font-family="Helvetica-Light,Helvetica" font-size="12.0" fill="#FEFFFF" transform="matrix(1.00, 0.00, -0.00, -1.00, 321.5, 329.0)">1</text><text xml:space="preserve" font-family="Helvetica-Light,Helvetica" font-size="12.0" fill="#FEFFFF" transform="matrix(1.00, 0.00, -0.00, -1.00, 328.1, 329.0)">2</text><text xml:space="preserve" font-family="Helvetica-Light,Helvetica" font-size="12.0" fill="#FEFFFF" transform="matrix(1.00, 0.00, -0.00, -1.00, 334.8, 329.0)">]</text></g></g><g><clipPath id="clip0x7fe1269c8cf0"><path d="M 274.2 124.2 L 326.6 124.2 L 326.6 176.6 L 274.2 176.6 Z M 274.2 124.2 "></path></clipPath><g clip-path="url(#clip0x7fe1269c8cf0)"><image xlink:href="../../B4985C79-FABA-446C-AF05-784F422AD3F2/assets/3CF258371D59D701B266FA3280911B5D.png" width="50.00" height="50.00" transform="matrix(1.01, 0.00, -0.00, -1.01, 275.2, 175.6)" opacity="0.50"></image><path d="M 316.1 168.1 C 324.8 159.4 324.8 145.3 316.1 136.7 C 307.5 128.0 293.4 128.0 284.7 136.7 C 276.1 145.3 276.1 159.4 284.7 168.1 C 293.4 176.7 307.5 176.7 316.1 168.1 Z M 316.1 168.1 " fill="#C82505"></path></g></g><g><clipPath id="clip0x7fe1269cad00"><path d="M 278.2 130.2 L 322.6 130.2 L 322.6 174.6 L 278.2 174.6 Z M 278.2 130.2 "></path></clipPath><g clip-path="url(#clip0x7fe1269cad00)"><text xml:space="preserve" font-family="Helvetica-Light,Helvetica" font-size="13.0" fill="#FEFFFF" transform="matrix(1.00, 0.00, -0.00, -1.00, 287.1, 147.8)">[</text><text xml:space="preserve" font-family="Helvetica-Light,Helvetica" font-size="13.0" fill="#FEFFFF" transform="matrix(1.00, 0.00, -0.00, -1.00, 291.4, 147.8)">2</text><text xml:space="preserve" font-family="Helvetica-Light,Helvetica" font-size="13.0" fill="#FEFFFF" transform="matrix(1.00, 0.00, -0.00, -1.00, 298.6, 147.8)">,</text><text xml:space="preserve" font-family="Helvetica-Light,Helvetica" font-size="13.0" fill="#FEFFFF" transform="matrix(1.00, 0.00, -0.00, -1.00, 302.3, 147.8)">6</text><text xml:space="preserve" font-family="Helvetica-Light,Helvetica" font-size="13.0" fill="#FEFFFF" transform="matrix(1.00, 0.00, -0.00, -1.00, 309.5, 147.8)">]</text></g></g><g><clipPath id="clip0x7fe1269ce260"><path d="M 52.9 373.7 L 105.2 373.7 L 105.2 426.1 L 52.9 426.1 Z M 52.9 373.7 "></path></clipPath><g clip-path="url(#clip0x7fe1269ce260)"><image xlink:href="../../B4985C79-FABA-446C-AF05-784F422AD3F2/assets/3CF258371D59D701B266FA3280911B5D.png" width="50.00" height="50.00" transform="matrix(1.01, 0.00, -0.00, -1.01, 53.9, 425.1)" opacity="0.50"></image><path d="M 94.7 417.6 C 103.4 408.9 103.4 394.9 94.7 386.2 C 86.1 377.5 72.0 377.5 63.4 386.2 C 54.7 394.9 54.7 408.9 63.4 417.6 C 72.0 426.3 86.1 426.3 94.7 417.6 Z M 94.7 417.6 " fill="#C82505"></path></g></g><g><clipPath id="clip0x7fe1269d0280"><path d="M 56.9 379.7 L 101.2 379.7 L 101.2 424.1 L 56.9 424.1 Z M 56.9 379.7 "></path></clipPath><g clip-path="url(#clip0x7fe1269d0280)"><text xml:space="preserve" font-family="Helvetica-Light,Helvetica" font-size="13.0" fill="#FEFFFF" transform="matrix(1.00, 0.00, -0.00, -1.00, 65.7, 397.3)">[</text><text xml:space="preserve" font-family="Helvetica-Light,Helvetica" font-size="13.0" fill="#FEFFFF" transform="matrix(1.00, 0.00, -0.00, -1.00, 70.0, 397.3)">5</text><text xml:space="preserve" font-family="Helvetica-Light,Helvetica" font-size="13.0" fill="#FEFFFF" transform="matrix(1.00, 0.00, -0.00, -1.00, 77.2, 397.3)">,</text><text xml:space="preserve" font-family="Helvetica-Light,Helvetica" font-size="13.0" fill="#FEFFFF" transform="matrix(1.00, 0.00, -0.00, -1.00, 80.9, 397.3)">9</text><text xml:space="preserve" font-family="Helvetica-Light,Helvetica" font-size="13.0" fill="#FEFFFF" transform="matrix(1.00, 0.00, -0.00, -1.00, 88.1, 397.3)">]</text></g></g><g><clipPath id="clip0x7fe1269d2c40"><path d="M 337.4 23.5 L 389.8 23.5 L 389.8 75.9 L 337.4 75.9 Z M 337.4 23.5 "></path></clipPath><g clip-path="url(#clip0x7fe1269d2c40)"><image xlink:href="../../B4985C79-FABA-446C-AF05-784F422AD3F2/assets/3CF258371D59D701B266FA3280911B5D.png" width="50.00" height="50.00" transform="matrix(1.01, 0.00, -0.00, -1.01, 338.4, 74.9)" opacity="0.50"></image><path d="M 379.3 67.4 C 387.9 58.7 387.9 44.7 379.3 36.0 C 370.6 27.4 356.5 27.4 347.9 36.0 C 339.2 44.7 339.2 58.7 347.9 67.4 C 356.5 76.1 370.6 76.1 379.3 67.4 Z M 379.3 67.4 " fill="#C82505"></path></g></g><g><clipPath id="clip0x7fe1269d3c60"><path d="M 341.4 29.5 L 385.8 29.5 L 385.8 73.9 L 341.4 73.9 Z M 341.4 29.5 "></path></clipPath><g clip-path="url(#clip0x7fe1269d3c60)"><text xml:space="preserve" font-family="Helvetica-Light,Helvetica" font-size="13.0" fill="#FEFFFF" transform="matrix(1.00, 0.00, -0.00, -1.00, 350.2, 47.2)">[</text><text xml:space="preserve" font-family="Helvetica-Light,Helvetica" font-size="13.0" fill="#FEFFFF" transform="matrix(1.00, 0.00, -0.00, -1.00, 354.5, 47.2)">1</text><text xml:space="preserve" font-family="Helvetica-Light,Helvetica" font-size="13.0" fill="#FEFFFF" transform="matrix(1.00, 0.00, -0.00, -1.00, 361.8, 47.2)">,</text><text xml:space="preserve" font-family="Helvetica-Light,Helvetica" font-size="13.0" fill="#FEFFFF" transform="matrix(1.00, 0.00, -0.00, -1.00, 365.4, 47.2)">8</text><text xml:space="preserve" font-family="Helvetica-Light,Helvetica" font-size="13.0" fill="#FEFFFF" transform="matrix(1.00, 0.00, -0.00, -1.00, 372.6, 47.2)">]</text></g></g></g></svg>