<?xml version="1.0" encoding="UTF-8" standalone="no"?><svg xmlns="http://www.w3.org/2000/svg" xmlns:xlink="http://www.w3.org/1999/xlink" clip-rule="evenodd" stroke-miterlimit="10" viewBox="0 0 1024 768"><desc>SVG generated by Keynote</desc><defs></defs><g transform="matrix(1.00, 0.00, -0.00, -1.00, 0.0, 768.0)"><g><clipPath id="clip0x7fe10bdd2260"><path d="M 0.0 768.0 L 1024.0 768.0 L 1024.0 0.0 L 0.0 0.0 Z M 0.0 768.0 "></path></clipPath><g clip-path="url(#clip0x7fe10bdd2260)"><image xlink:href="../../A458083D-D69B-45C4-902F-6A2AFF5FFDFF/assets/C1ECA91D654ECC927BC479E89DA39F96.jpeg" width="2048.00" height="1536.00" transform="matrix(0.50, 0.00, -0.00, -0.50, 0.0, 768.0)"></image></g></g><text xml:space="preserve" font-family="Helvetica-Light,Helvetica" font-size="35.0" fill="#FEFFFF" transform="matrix(1.00, 0.00, -0.00, -1.00, 424.5, 639.0)">C</text><text xml:space="preserve" font-family="Helvetica-Light,Helvetica" font-size="35.0" fill="#FEFFFF" transform="matrix(1.00, 0.00, -0.00, -1.00, 449.7, 639.0)">o</text><text xml:space="preserve" font-family="Helvetica-Light,Helvetica" font-size="35.0" fill="#FEFFFF" transform="matrix(1.00, 0.00, -0.00, -1.00, 469.2, 639.0)">n</text><text xml:space="preserve" font-family="Helvetica-Light,Helvetica" font-size="35.0" fill="#FEFFFF" transform="matrix(1.00, 0.00, -0.00, -1.00, 488.7, 639.0)">c</text><text xml:space="preserve" font-family="Helvetica-Light,Helvetica" font-size="35.0" fill="#FEFFFF" transform="matrix(1.00, 0.00, -0.00, -1.00, 508.1, 639.0)">l</text><text xml:space="preserve" font-family="Helvetica-Light,Helvetica" font-size="35.0" fill="#FEFFFF" transform="matrix(1.00, 0.00, -0.00, -1.00, 515.9, 639.0)">u</text><text xml:space="preserve" font-family="Helvetica-Light,Helvetica" font-size="35.0" fill="#FEFFFF" transform="matrix(1.00, 0.00, -0.00, -1.00, 535.3, 639.0)">s</text><text xml:space="preserve" font-family="Helvetica-Light,Helvetica" font-size="35.0" fill="#FEFFFF" transform="matrix(1.00, 0.00, -0.00, -1.00, 552.8, 639.0)">i</text><text xml:space="preserve" font-family="Helvetica-Light,Helvetica" font-size="35.0" fill="#FEFFFF" transform="matrix(1.00, 0.00, -0.00, -1.00, 560.6, 639.0)">o</text><text xml:space="preserve" font-family="Helvetica-Light,Helvetica" font-size="35.0" fill="#FEFFFF" transform="matrix(1.00, 0.00, -0.00, -1.00, 580.1, 639.0)">n</text></g></svg>