<?xml version="1.0" encoding="UTF-8" standalone="no"?><svg xmlns="http://www.w3.org/2000/svg" xmlns:xlink="http://www.w3.org/1999/xlink" clip-rule="evenodd" stroke-miterlimit="10" viewBox="0 0 25 67"><desc>SVG generated by Keynote</desc><defs><linearGradient id="gradSh1.3" x1="0.0" y1="0.0" x2="100.0" y2="0.0" gradientUnits="userSpaceOnUse" gradientTransform="matrix(0.00, -0.12, -0.12, 0.00, 12.8, 60.4)"><stop offset="0.00000" stop-color="#189B1A"></stop><stop offset="0.00587" stop-color="#189A1A"></stop><stop offset="0.67082" stop-color="#207110"></stop><stop offset="0.68328" stop-color="#207010"></stop><stop offset="0.71408" stop-color="#206F0F"></stop><stop offset="0.71554" stop-color="#206E0F"></stop><stop offset="1.00000" stop-color="#235D0B"></stop></linearGradient><linearGradient id="gradSh1.4" x1="0.0" y1="0.0" x2="100.0" y2="0.0" gradientUnits="userSpaceOnUse" gradientTransform="matrix(0.00, -0.12, -0.12, 0.00, 12.8, 39.3)"><stop offset="0.00000" stop-color="#189B1A"></stop><stop offset="0.00587" stop-color="#189A1A"></stop><stop offset="0.67082" stop-color="#207110"></stop><stop offset="0.68328" stop-color="#207010"></stop><stop offset="0.71408" stop-color="#206F0F"></stop><stop offset="0.71554" stop-color="#206E0F"></stop><stop offset="1.00000" stop-color="#235D0B"></stop></linearGradient><linearGradient id="gradSh1.5" x1="0.0" y1="0.0" x2="100.0" y2="0.0" gradientUnits="userSpaceOnUse" gradientTransform="matrix(0.00, -0.12, -0.12, 0.00, 12.8, 18.2)"><stop offset="0.00000" stop-color="#189B1A"></stop><stop offset="0.00587" stop-color="#189A1A"></stop><stop offset="0.67082" stop-color="#207110"></stop><stop offset="0.68328" stop-color="#207010"></stop><stop offset="0.71408" stop-color="#206F0F"></stop><stop offset="0.71554" stop-color="#206E0F"></stop><stop offset="1.00000" stop-color="#235D0B"></stop></linearGradient></defs><g transform="matrix(1.00, 0.00, -0.00, -1.00, 0.0, 67.0)"><g><clipPath id="clip0x7fe127bd80a0"><path d="M 0.7 42.8 L 24.9 42.8 L 24.9 66.4 L 0.7 66.4 Z M 0.7 42.8 "></path></clipPath><g clip-path="url(#clip0x7fe127bd80a0)"><image xlink:href="../../B4985C79-FABA-446C-AF05-784F422AD3F2/assets/124AD92EAA5C5CBF98CE4637D51D9ACF.png" width="22.00" height="22.00" transform="matrix(1.01, 0.00, -0.00, -0.98, 1.7, 65.4)" opacity="0.80"></image></g></g><g><clipPath id="clip0x7fe127bd9d60"><path d="M 16.4 57.9 C 18.4 56.1 18.4 53.0 16.4 51.2 C 14.4 49.3 11.2 49.3 9.2 51.2 C 7.2 53.0 7.2 56.1 9.2 57.9 C 11.2 59.8 14.4 59.8 16.4 57.9 Z M 16.4 57.9 "></path></clipPath><g clip-path="url(#clip0x7fe127bd9d60)"><g><clipPath id="clip0x7fe127bda870"><path d="M 0.7 42.8 L 24.9 42.8 L 24.9 66.4 L 0.7 66.4 Z M 0.7 42.8 "></path></clipPath><g clip-path="url(#clip0x7fe127bda870)"><path d="M 0.7 42.8 L 24.9 42.8 L 24.9 66.4 L 0.7 66.4 Z M 0.7 42.8 " fill="url(#gradSh1.3)"></path></g></g></g></g><g><clipPath id="clip0x7fe127e2eaf0"><path d="M 0.7 21.7 L 24.9 21.7 L 24.9 45.3 L 0.7 45.3 Z M 0.7 21.7 "></path></clipPath><g clip-path="url(#clip0x7fe127e2eaf0)"><image xlink:href="../../B4985C79-FABA-446C-AF05-784F422AD3F2/assets/124AD92EAA5C5CBF98CE4637D51D9ACF.png" width="22.00" height="22.00" transform="matrix(1.01, 0.00, -0.00, -0.98, 1.7, 44.3)" opacity="0.80"></image></g></g><g><clipPath id="clip0x7fe127e304b0"><path d="M 16.4 36.9 C 18.4 35.0 18.4 32.0 16.4 30.1 C 14.4 28.2 11.2 28.2 9.2 30.1 C 7.2 32.0 7.2 35.0 9.2 36.9 C 11.2 38.8 14.4 38.8 16.4 36.9 Z M 16.4 36.9 "></path></clipPath><g clip-path="url(#clip0x7fe127e304b0)"><g><clipPath id="clip0x7fe127e30f60"><path d="M 0.7 21.7 L 24.9 21.7 L 24.9 45.3 L 0.7 45.3 Z M 0.7 21.7 "></path></clipPath><g clip-path="url(#clip0x7fe127e30f60)"><path d="M 0.7 21.7 L 24.9 21.7 L 24.9 45.3 L 0.7 45.3 Z M 0.7 21.7 " fill="url(#gradSh1.4)"></path></g></g></g></g><g><clipPath id="clip0x7fe127e82870"><path d="M 0.7 0.6 L 24.9 0.6 L 24.9 24.2 L 0.7 24.2 Z M 0.7 0.6 "></path></clipPath><g clip-path="url(#clip0x7fe127e82870)"><image xlink:href="../../B4985C79-FABA-446C-AF05-784F422AD3F2/assets/124AD92EAA5C5CBF98CE4637D51D9ACF.png" width="22.00" height="22.00" transform="matrix(1.01, 0.00, -0.00, -0.98, 1.7, 23.2)" opacity="0.80"></image></g></g><g><clipPath id="clip0x7fe127e84260"><path d="M 16.4 15.8 C 18.4 13.9 18.4 10.9 16.4 9.0 C 14.4 7.2 11.2 7.2 9.2 9.0 C 7.2 10.9 7.2 13.9 9.2 15.8 C 11.2 17.7 14.4 17.7 16.4 15.8 Z M 16.4 15.8 "></path></clipPath><g clip-path="url(#clip0x7fe127e84260)"><g><clipPath id="clip0x7fe127e84d10"><path d="M 0.7 0.6 L 24.9 0.6 L 24.9 24.2 L 0.7 24.2 Z M 0.7 0.6 "></path></clipPath><g clip-path="url(#clip0x7fe127e84d10)"><path d="M 0.7 0.6 L 24.9 0.6 L 24.9 24.2 L 0.7 24.2 Z M 0.7 0.6 " fill="url(#gradSh1.5)"></path></g></g></g></g></g></svg>