<?xml version="1.0" encoding="UTF-8" standalone="no"?><svg xmlns="http://www.w3.org/2000/svg" xmlns:xlink="http://www.w3.org/1999/xlink" clip-rule="evenodd" stroke-miterlimit="10" viewBox="0 0 218 769"><desc>SVG generated by Keynote</desc><defs></defs><g transform="matrix(1.00, 0.00, -0.00, -1.00, 0.0, 769.0)"><g><clipPath id="clip0x7fe127c188d0"><path d="M 2.9 515.7 L 217.6 515.7 L 217.6 768.3 L 2.9 768.3 Z M 2.9 515.7 "></path></clipPath><g clip-path="url(#clip0x7fe127c188d0)"><path d="M 5.0 766.0 L 216.0 766.0 L 216.0 518.0 L 5.0 518.0 Z M 4.9 766.3 " fill="#FEFFFE"></path><path d="M 0.1 0.3 L 211.1 0.3 L 211.1 248.3 L 0.1 248.3 Z M 0.0 0.0 " fill="none" stroke="#85878C" stroke-width="2.00" transform="matrix(1.00, 0.00, 0.00, -1.00, 4.9, 766.3)"></path></g></g><g><clipPath id="clip0x7fe127c1f5e0"><path d="M 0.9 512.2 L 24.7 512.2 L 24.7 535.9 L 0.9 535.9 Z M 0.9 512.2 "></path></clipPath><g clip-path="url(#clip0x7fe127c1f5e0)"><image xlink:href="../../B4985C79-FABA-446C-AF05-784F422AD3F2/assets/0A48CA1BC8B82733979337F71A79D811.png" width="22.00" height="22.00" transform="matrix(0.99, 0.00, -0.00, -0.98, 1.9, 534.9)" opacity="0.50"></image><path d="M 5.0 534.0 L 21.0 534.0 L 21.0 518.0 L 5.0 518.0 Z M 4.9 533.9 " fill="#000000"></path></g></g><g><clipPath id="clip0x7fe127c3d0e0"><path d="M 4.9 518.2 L 20.7 518.2 L 20.7 533.9 L 4.9 533.9 Z M 4.9 518.2 "></path></clipPath><g clip-path="url(#clip0x7fe127c3d0e0)"><text xml:space="preserve" font-family="Helvetica-Light,Helvetica" font-size="3.0" fill="#FEFFFF" transform="matrix(1.00, 0.00, -0.00, -1.00, 9.4, 524.6)">B</text><text xml:space="preserve" font-family="Helvetica-Light,Helvetica" font-size="3.0" fill="#FEFFFF" transform="matrix(1.00, 0.00, -0.00, -1.00, 11.4, 524.6)">a</text><text xml:space="preserve" font-family="Helvetica-Light,Helvetica" font-size="3.0" fill="#FEFFFF" transform="matrix(1.00, 0.00, -0.00, -1.00, 13.1, 524.6)">s</text><text xml:space="preserve" font-family="Helvetica-Light,Helvetica" font-size="3.0" fill="#FEFFFF" transform="matrix(1.00, 0.00, -0.00, -1.00, 14.6, 524.6)">e</text></g></g><g><clipPath id="clip0x7fe127c3ef60"><path d="M 55.4 635.5 L 86.1 635.5 L 86.1 666.2 L 55.4 666.2 Z M 55.4 635.5 "></path></clipPath><g clip-path="url(#clip0x7fe127c3ef60)"><image xlink:href="../../B4985C79-FABA-446C-AF05-784F422AD3F2/assets/73528130521CD733E6D896CA24FB9A6F.png" width="29.00" height="29.00" transform="matrix(0.99, 0.00, -0.00, -0.99, 56.4, 665.2)" opacity="0.50"></image><path d="M 78.7 660.9 C 83.2 656.4 83.2 649.2 78.7 644.8 C 74.3 640.4 67.1 640.4 62.7 644.8 C 58.3 649.2 58.3 656.4 62.7 660.9 C 67.1 665.3 74.3 665.3 78.7 660.9 Z M 78.7 660.9 " fill="#C82505"></path></g></g><g><clipPath id="clip0x7fe127c409e0"><path d="M 59.4 641.5 L 82.1 641.5 L 82.1 664.2 L 59.4 664.2 Z M 59.4 641.5 "></path></clipPath><g clip-path="url(#clip0x7fe127c409e0)"><text xml:space="preserve" font-family="Helvetica-Light,Helvetica" font-size="10.0" fill="#FEFFFF" transform="matrix(1.00, 0.00, -0.00, -1.00, 68.0, 649.5)">5</text></g></g><g><clipPath id="clip0x7fe127c42180"><path d="M 152.2 667.5 L 182.9 667.5 L 182.9 698.2 L 152.2 698.2 Z M 152.2 667.5 "></path></clipPath><g clip-path="url(#clip0x7fe127c42180)"><image xlink:href="../../B4985C79-FABA-446C-AF05-784F422AD3F2/assets/73528130521CD733E6D896CA24FB9A6F.png" width="29.00" height="29.00" transform="matrix(0.99, 0.00, -0.00, -0.99, 153.2, 697.2)" opacity="0.50"></image><path d="M 175.5 692.9 C 180.0 688.4 180.0 681.3 175.5 676.8 C 171.1 672.4 163.9 672.4 159.5 676.8 C 155.1 681.3 155.1 688.4 159.5 692.9 C 163.9 697.3 171.1 697.3 175.5 692.9 Z M 175.5 692.9 " fill="#C82505"></path></g></g><g><clipPath id="clip0x7fe127c43c80"><path d="M 156.2 673.5 L 178.9 673.5 L 178.9 696.2 L 156.2 696.2 Z M 156.2 673.5 "></path></clipPath><g clip-path="url(#clip0x7fe127c43c80)"><text xml:space="preserve" font-family="Helvetica-Light,Helvetica" font-size="6.0" fill="#FEFFFF" transform="matrix(1.00, 0.00, -0.00, -1.00, 164.2, 682.1)">1</text><text xml:space="preserve" font-family="Helvetica-Light,Helvetica" font-size="6.0" fill="#FEFFFF" transform="matrix(1.00, 0.00, -0.00, -1.00, 167.5, 682.1)">0</text></g></g><g><clipPath id="clip0x7fe127c45b40"><path d="M 140.6 575.3 L 171.3 575.3 L 171.3 606.0 L 140.6 606.0 Z M 140.6 575.3 "></path></clipPath><g clip-path="url(#clip0x7fe127c45b40)"><image xlink:href="../../B4985C79-FABA-446C-AF05-784F422AD3F2/assets/73528130521CD733E6D896CA24FB9A6F.png" width="29.00" height="29.00" transform="matrix(0.99, 0.00, -0.00, -0.99, 141.6, 605.0)" opacity="0.50"></image><path d="M 163.9 600.6 C 168.4 596.2 168.4 589.0 163.9 584.6 C 159.5 580.2 152.3 580.2 147.9 584.6 C 143.5 589.0 143.5 596.2 147.9 600.6 C 152.3 605.1 159.5 605.1 163.9 600.6 Z M 163.9 600.6 " fill="#C82505"></path></g></g><g><clipPath id="clip0x7fe127c47600"><path d="M 144.6 581.3 L 167.3 581.3 L 167.3 604.0 L 144.6 604.0 Z M 144.6 581.3 "></path></clipPath><g clip-path="url(#clip0x7fe127c47600)"><text xml:space="preserve" font-family="Helvetica-Light,Helvetica" font-size="10.0" fill="#FEFFFF" transform="matrix(1.00, 0.00, -0.00, -1.00, 153.1, 589.3)">4</text></g></g><g><clipPath id="clip0x7fe127c48d90"><path d="M 27.4 702.8 L 58.1 702.8 L 58.1 733.5 L 27.4 733.5 Z M 27.4 702.8 "></path></clipPath><g clip-path="url(#clip0x7fe127c48d90)"><image xlink:href="../../B4985C79-FABA-446C-AF05-784F422AD3F2/assets/73528130521CD733E6D896CA24FB9A6F.png" width="29.00" height="29.00" transform="matrix(0.99, 0.00, -0.00, -0.99, 28.4, 732.5)" opacity="0.50"></image><path d="M 50.8 728.2 C 55.2 723.7 55.2 716.5 50.8 712.1 C 46.4 707.7 39.2 707.7 34.8 712.1 C 30.3 716.5 30.3 723.7 34.8 728.2 C 39.2 732.6 46.4 732.6 50.8 728.2 Z M 50.8 728.2 " fill="#C82505"></path></g></g><g><clipPath id="clip0x7fe127c4a850"><path d="M 31.4 708.8 L 54.1 708.8 L 54.1 731.5 L 31.4 731.5 Z M 31.4 708.8 "></path></clipPath><g clip-path="url(#clip0x7fe127c4a850)"><text xml:space="preserve" font-family="Helvetica-Light,Helvetica" font-size="10.0" fill="#FEFFFF" transform="matrix(1.00, 0.00, -0.00, -1.00, 40.0, 716.8)">6</text></g></g><g><clipPath id="clip0x7fe127c4c000"><path d="M 172.8 523.8 L 203.5 523.8 L 203.5 554.5 L 172.8 554.5 Z M 172.8 523.8 "></path></clipPath><g clip-path="url(#clip0x7fe127c4c000)"><image xlink:href="../../B4985C79-FABA-446C-AF05-784F422AD3F2/assets/73528130521CD733E6D896CA24FB9A6F.png" width="29.00" height="29.00" transform="matrix(0.99, 0.00, -0.00, -0.99, 173.8, 553.5)" opacity="0.50"></image><path d="M 196.2 549.2 C 200.6 544.8 200.6 537.6 196.2 533.2 C 191.8 528.7 184.6 528.7 180.2 533.2 C 175.7 537.6 175.7 544.8 180.2 549.2 C 184.6 553.6 191.8 553.6 196.2 549.2 Z M 196.2 549.2 " fill="#C82505"></path></g></g><g><clipPath id="clip0x7fe127c4dac0"><path d="M 176.8 529.8 L 199.5 529.8 L 199.5 552.5 L 176.8 552.5 Z M 176.8 529.8 "></path></clipPath><g clip-path="url(#clip0x7fe127c4dac0)"><text xml:space="preserve" font-family="Helvetica-Light,Helvetica" font-size="10.0" fill="#FEFFFF" transform="matrix(1.00, 0.00, -0.00, -1.00, 185.4, 537.8)">3</text></g></g><g><clipPath id="clip0x7fe127c4f250"><path d="M 2.9 259.7 L 217.6 259.7 L 217.6 512.3 L 2.9 512.3 Z M 2.9 259.7 "></path></clipPath><g clip-path="url(#clip0x7fe127c4f250)"><path d="M 5.0 510.0 L 216.0 510.0 L 216.0 262.0 L 5.0 262.0 Z M 4.9 510.3 " fill="#FEFFFE"></path><path d="M 0.1 0.3 L 211.1 0.3 L 211.1 248.3 L 0.1 248.3 Z M 0.0 0.0 " fill="none" stroke="#85878C" stroke-width="2.00" transform="matrix(1.00, 0.00, 0.00, -1.00, 4.9, 510.3)"></path></g></g><g><clipPath id="clip0x7fe127c50820"><path d="M 0.9 256.2 L 24.7 256.2 L 24.7 279.9 L 0.9 279.9 Z M 0.9 256.2 "></path></clipPath><g clip-path="url(#clip0x7fe127c50820)"><image xlink:href="../../B4985C79-FABA-446C-AF05-784F422AD3F2/assets/0A48CA1BC8B82733979337F71A79D811.png" width="22.00" height="22.00" transform="matrix(0.99, 0.00, -0.00, -0.98, 1.9, 278.9)" opacity="0.50"></image><path d="M 5.0 278.0 L 21.0 278.0 L 21.0 262.0 L 5.0 262.0 Z M 4.9 277.9 " fill="#000000"></path></g></g><g><clipPath id="clip0x7fe127c516b0"><path d="M 4.9 262.2 L 20.7 262.2 L 20.7 277.9 L 4.9 277.9 Z M 4.9 262.2 "></path></clipPath><g clip-path="url(#clip0x7fe127c516b0)"><text xml:space="preserve" font-family="Helvetica-Light,Helvetica" font-size="3.0" fill="#FEFFFF" transform="matrix(1.00, 0.00, -0.00, -1.00, 9.4, 268.6)">B</text><text xml:space="preserve" font-family="Helvetica-Light,Helvetica" font-size="3.0" fill="#FEFFFF" transform="matrix(1.00, 0.00, -0.00, -1.00, 11.4, 268.6)">a</text><text xml:space="preserve" font-family="Helvetica-Light,Helvetica" font-size="3.0" fill="#FEFFFF" transform="matrix(1.00, 0.00, -0.00, -1.00, 13.1, 268.6)">s</text><text xml:space="preserve" font-family="Helvetica-Light,Helvetica" font-size="3.0" fill="#FEFFFF" transform="matrix(1.00, 0.00, -0.00, -1.00, 14.6, 268.6)">e</text></g></g><g><clipPath id="clip0x7fe127c54ea0"><path d="M 55.4 379.5 L 86.1 379.5 L 86.1 410.2 L 55.4 410.2 Z M 55.4 379.5 "></path></clipPath><g clip-path="url(#clip0x7fe127c54ea0)"><image xlink:href="../../B4985C79-FABA-446C-AF05-784F422AD3F2/assets/73528130521CD733E6D896CA24FB9A6F.png" width="29.00" height="29.00" transform="matrix(0.99, 0.00, -0.00, -0.99, 56.4, 409.2)" opacity="0.50"></image><path d="M 78.7 404.9 C 83.2 400.4 83.2 393.2 78.7 388.8 C 74.3 384.4 67.1 384.4 62.7 388.8 C 58.3 393.2 58.3 400.4 62.7 404.9 C 67.1 409.3 74.3 409.3 78.7 404.9 Z M 78.7 404.9 " fill="#C82505"></path></g></g><g><clipPath id="clip0x7fe127c56940"><path d="M 59.4 385.5 L 82.1 385.5 L 82.1 408.2 L 59.4 408.2 Z M 59.4 385.5 "></path></clipPath><g clip-path="url(#clip0x7fe127c56940)"><text xml:space="preserve" font-family="Helvetica-Light,Helvetica" font-size="10.0" fill="#FEFFFF" transform="matrix(1.00, 0.00, -0.00, -1.00, 68.0, 393.5)">4</text></g></g><g><clipPath id="clip0x7fe127c580e0"><path d="M 152.2 411.5 L 182.9 411.5 L 182.9 442.2 L 152.2 442.2 Z M 152.2 411.5 "></path></clipPath><g clip-path="url(#clip0x7fe127c580e0)"><image xlink:href="../../B4985C79-FABA-446C-AF05-784F422AD3F2/assets/73528130521CD733E6D896CA24FB9A6F.png" width="29.00" height="29.00" transform="matrix(0.99, 0.00, -0.00, -0.99, 153.2, 441.2)" opacity="0.50"></image><path d="M 175.5 436.9 C 180.0 432.4 180.0 425.3 175.5 420.8 C 171.1 416.4 163.9 416.4 159.5 420.8 C 155.1 425.3 155.1 432.4 159.5 436.9 C 163.9 441.3 171.1 441.3 175.5 436.9 Z M 175.5 436.9 " fill="#C82505"></path></g></g><g><clipPath id="clip0x7fe127c59ba0"><path d="M 156.2 417.5 L 178.9 417.5 L 178.9 440.2 L 156.2 440.2 Z M 156.2 417.5 "></path></clipPath><g clip-path="url(#clip0x7fe127c59ba0)"><text xml:space="preserve" font-family="Helvetica-Light,Helvetica" font-size="10.0" fill="#FEFFFF" transform="matrix(1.00, 0.00, -0.00, -1.00, 164.7, 425.5)">8</text></g></g><g><clipPath id="clip0x7fe127c5b330"><path d="M 140.6 319.3 L 171.3 319.3 L 171.3 350.0 L 140.6 350.0 Z M 140.6 319.3 "></path></clipPath><g clip-path="url(#clip0x7fe127c5b330)"><image xlink:href="../../B4985C79-FABA-446C-AF05-784F422AD3F2/assets/73528130521CD733E6D896CA24FB9A6F.png" width="29.00" height="29.00" transform="matrix(0.99, 0.00, -0.00, -0.99, 141.6, 349.0)" opacity="0.50"></image><path d="M 163.9 344.6 C 168.4 340.2 168.4 333.0 163.9 328.6 C 159.5 324.2 152.3 324.2 147.9 328.6 C 143.5 333.0 143.5 340.2 147.9 344.6 C 152.3 349.1 159.5 349.1 163.9 344.6 Z M 163.9 344.6 " fill="#C82505"></path></g></g><g><clipPath id="clip0x7fe127c5cdf0"><path d="M 144.6 325.3 L 167.3 325.3 L 167.3 348.0 L 144.6 348.0 Z M 144.6 325.3 "></path></clipPath><g clip-path="url(#clip0x7fe127c5cdf0)"><text xml:space="preserve" font-family="Helvetica-Light,Helvetica" font-size="10.0" fill="#FEFFFF" transform="matrix(1.00, 0.00, -0.00, -1.00, 153.1, 333.3)">5</text></g></g><g><clipPath id="clip0x7fe127c5e580"><path d="M 27.4 446.8 L 58.1 446.8 L 58.1 477.5 L 27.4 477.5 Z M 27.4 446.8 "></path></clipPath><g clip-path="url(#clip0x7fe127c5e580)"><image xlink:href="../../B4985C79-FABA-446C-AF05-784F422AD3F2/assets/73528130521CD733E6D896CA24FB9A6F.png" width="29.00" height="29.00" transform="matrix(0.99, 0.00, -0.00, -0.99, 28.4, 476.5)" opacity="0.50"></image><path d="M 50.8 472.2 C 55.2 467.7 55.2 460.5 50.8 456.1 C 46.4 451.7 39.2 451.7 34.8 456.1 C 30.3 460.5 30.3 467.7 34.8 472.2 C 39.2 476.6 46.4 476.6 50.8 472.2 Z M 50.8 472.2 " fill="#C82505"></path></g></g><g><clipPath id="clip0x7fe127c5ffd0"><path d="M 31.4 452.8 L 54.1 452.8 L 54.1 475.5 L 31.4 475.5 Z M 31.4 452.8 "></path></clipPath><g clip-path="url(#clip0x7fe127c5ffd0)"><text xml:space="preserve" font-family="Helvetica-Light,Helvetica" font-size="10.0" fill="#FEFFFF" transform="matrix(1.00, 0.00, -0.00, -1.00, 40.0, 460.8)">7</text></g></g><g><clipPath id="clip0x7fe127c61770"><path d="M 172.8 267.8 L 203.5 267.8 L 203.5 298.5 L 172.8 298.5 Z M 172.8 267.8 "></path></clipPath><g clip-path="url(#clip0x7fe127c61770)"><image xlink:href="../../B4985C79-FABA-446C-AF05-784F422AD3F2/assets/73528130521CD733E6D896CA24FB9A6F.png" width="29.00" height="29.00" transform="matrix(0.99, 0.00, -0.00, -0.99, 173.8, 297.5)" opacity="0.50"></image><path d="M 196.2 293.2 C 200.6 288.8 200.6 281.6 196.2 277.2 C 191.8 272.7 184.6 272.7 180.2 277.2 C 175.7 281.6 175.7 288.8 180.2 293.2 C 184.6 297.6 191.8 297.6 196.2 293.2 Z M 196.2 293.2 " fill="#C82505"></path></g></g><g><clipPath id="clip0x7fe127c63230"><path d="M 176.8 273.8 L 199.5 273.8 L 199.5 296.5 L 176.8 296.5 Z M 176.8 273.8 "></path></clipPath><g clip-path="url(#clip0x7fe127c63230)"><text xml:space="preserve" font-family="Helvetica-Light,Helvetica" font-size="10.0" fill="#FEFFFF" transform="matrix(1.00, 0.00, -0.00, -1.00, 185.4, 281.8)">7</text></g></g><g><clipPath id="clip0x7fe127c64990"><path d="M 2.9 3.7 L 217.6 3.7 L 217.6 256.3 L 2.9 256.3 Z M 2.9 3.7 "></path></clipPath><g clip-path="url(#clip0x7fe127c64990)"><path d="M 5.0 254.0 L 216.0 254.0 L 216.0 6.0 L 5.0 6.0 Z M 4.9 254.3 " fill="#FEFFFE"></path><path d="M 0.1 0.3 L 211.1 0.3 L 211.1 248.3 L 0.1 248.3 Z M 0.0 0.0 " fill="none" stroke="#85878C" stroke-width="2.00" transform="matrix(1.00, 0.00, 0.00, -1.00, 4.9, 254.3)"></path></g></g><g><clipPath id="clip0x7fe127c66070"><path d="M 0.9 0.2 L 24.7 0.2 L 24.7 23.9 L 0.9 23.9 Z M 0.9 0.2 "></path></clipPath><g clip-path="url(#clip0x7fe127c66070)"><image xlink:href="../../B4985C79-FABA-446C-AF05-784F422AD3F2/assets/0A48CA1BC8B82733979337F71A79D811.png" width="22.00" height="22.00" transform="matrix(0.99, 0.00, -0.00, -0.98, 1.9, 22.9)" opacity="0.50"></image><path d="M 5.0 22.0 L 21.0 22.0 L 21.0 6.0 L 5.0 6.0 Z M 4.9 21.9 " fill="#000000"></path></g></g><g><clipPath id="clip0x7fe127c66e80"><path d="M 4.9 6.2 L 20.7 6.2 L 20.7 21.9 L 4.9 21.9 Z M 4.9 6.2 "></path></clipPath><g clip-path="url(#clip0x7fe127c66e80)"><text xml:space="preserve" font-family="Helvetica-Light,Helvetica" font-size="3.0" fill="#FEFFFF" transform="matrix(1.00, 0.00, -0.00, -1.00, 9.4, 12.6)">B</text><text xml:space="preserve" font-family="Helvetica-Light,Helvetica" font-size="3.0" fill="#FEFFFF" transform="matrix(1.00, 0.00, -0.00, -1.00, 11.4, 12.6)">a</text><text xml:space="preserve" font-family="Helvetica-Light,Helvetica" font-size="3.0" fill="#FEFFFF" transform="matrix(1.00, 0.00, -0.00, -1.00, 13.1, 12.6)">s</text><text xml:space="preserve" font-family="Helvetica-Light,Helvetica" font-size="3.0" fill="#FEFFFF" transform="matrix(1.00, 0.00, -0.00, -1.00, 14.6, 12.6)">e</text></g></g><g><clipPath id="clip0x7fe127c6a600"><path d="M 55.4 123.5 L 86.1 123.5 L 86.1 154.2 L 55.4 154.2 Z M 55.4 123.5 "></path></clipPath><g clip-path="url(#clip0x7fe127c6a600)"><image xlink:href="../../B4985C79-FABA-446C-AF05-784F422AD3F2/assets/73528130521CD733E6D896CA24FB9A6F.png" width="29.00" height="29.00" transform="matrix(0.99, 0.00, -0.00, -0.99, 56.4, 153.2)" opacity="0.50"></image><path d="M 78.7 148.9 C 83.2 144.4 83.2 137.2 78.7 132.8 C 74.3 128.4 67.1 128.4 62.7 132.8 C 58.3 137.2 58.3 144.4 62.7 148.9 C 67.1 153.3 74.3 153.3 78.7 148.9 Z M 78.7 148.9 " fill="#C82505"></path></g></g><g><clipPath id="clip0x7fe127c6c030"><path d="M 59.4 129.5 L 82.1 129.5 L 82.1 152.2 L 59.4 152.2 Z M 59.4 129.5 "></path></clipPath><g clip-path="url(#clip0x7fe127c6c030)"><text xml:space="preserve" font-family="Helvetica-Light,Helvetica" font-size="10.0" fill="#FEFFFF" transform="matrix(1.00, 0.00, -0.00, -1.00, 68.0, 137.5)">6</text></g></g><g><clipPath id="clip0x7fe127c6d7d0"><path d="M 152.2 155.5 L 182.9 155.5 L 182.9 186.2 L 152.2 186.2 Z M 152.2 155.5 "></path></clipPath><g clip-path="url(#clip0x7fe127c6d7d0)"><image xlink:href="../../B4985C79-FABA-446C-AF05-784F422AD3F2/assets/73528130521CD733E6D896CA24FB9A6F.png" width="29.00" height="29.00" transform="matrix(0.99, 0.00, -0.00, -0.99, 153.2, 185.2)" opacity="0.50"></image><path d="M 175.5 180.9 C 180.0 176.4 180.0 169.3 175.5 164.8 C 171.1 160.4 163.9 160.4 159.5 164.8 C 155.1 169.3 155.1 176.4 159.5 180.9 C 163.9 185.3 171.1 185.3 175.5 180.9 Z M 175.5 180.9 " fill="#C82505"></path></g></g><g><clipPath id="clip0x7fe127c6f290"><path d="M 156.2 161.5 L 178.9 161.5 L 178.9 184.2 L 156.2 184.2 Z M 156.2 161.5 "></path></clipPath><g clip-path="url(#clip0x7fe127c6f290)"><text xml:space="preserve" font-family="Helvetica-Light,Helvetica" font-size="10.0" fill="#FEFFFF" transform="matrix(1.00, 0.00, -0.00, -1.00, 164.7, 169.5)">9</text></g></g><g><clipPath id="clip0x7fe127c70a20"><path d="M 140.6 63.3 L 171.3 63.3 L 171.3 94.0 L 140.6 94.0 Z M 140.6 63.3 "></path></clipPath><g clip-path="url(#clip0x7fe127c70a20)"><image xlink:href="../../B4985C79-FABA-446C-AF05-784F422AD3F2/assets/73528130521CD733E6D896CA24FB9A6F.png" width="29.00" height="29.00" transform="matrix(0.99, 0.00, -0.00, -0.99, 141.6, 93.0)" opacity="0.50"></image><path d="M 163.9 88.6 C 168.4 84.2 168.4 77.0 163.9 72.6 C 159.5 68.2 152.3 68.2 147.9 72.6 C 143.5 77.0 143.5 84.2 147.9 88.6 C 152.3 93.1 159.5 93.1 163.9 88.6 Z M 163.9 88.6 " fill="#C82505"></path></g></g><g><clipPath id="clip0x7fe127c72470"><path d="M 144.6 69.3 L 167.3 69.3 L 167.3 92.0 L 144.6 92.0 Z M 144.6 69.3 "></path></clipPath><g clip-path="url(#clip0x7fe127c72470)"><text xml:space="preserve" font-family="Helvetica-Light,Helvetica" font-size="10.0" fill="#FEFFFF" transform="matrix(1.00, 0.00, -0.00, -1.00, 153.1, 77.3)">3</text></g></g><g><clipPath id="clip0x7fe127c73c10"><path d="M 27.4 190.8 L 58.1 190.8 L 58.1 221.5 L 27.4 221.5 Z M 27.4 190.8 "></path></clipPath><g clip-path="url(#clip0x7fe127c73c10)"><image xlink:href="../../B4985C79-FABA-446C-AF05-784F422AD3F2/assets/73528130521CD733E6D896CA24FB9A6F.png" width="29.00" height="29.00" transform="matrix(0.99, 0.00, -0.00, -0.99, 28.4, 220.5)" opacity="0.50"></image><path d="M 50.8 216.2 C 55.2 211.7 55.2 204.5 50.8 200.1 C 46.4 195.7 39.2 195.7 34.8 200.1 C 30.3 204.5 30.3 211.7 34.8 216.2 C 39.2 220.6 46.4 220.6 50.8 216.2 Z M 50.8 216.2 " fill="#C82505"></path></g></g><g><clipPath id="clip0x7fe127c75660"><path d="M 31.4 196.8 L 54.1 196.8 L 54.1 219.5 L 31.4 219.5 Z M 31.4 196.8 "></path></clipPath><g clip-path="url(#clip0x7fe127c75660)"><text xml:space="preserve" font-family="Helvetica-Light,Helvetica" font-size="10.0" fill="#FEFFFF" transform="matrix(1.00, 0.00, -0.00, -1.00, 40.0, 204.8)">8</text></g></g><g><clipPath id="clip0x7fe127c76e00"><path d="M 172.8 11.8 L 203.5 11.8 L 203.5 42.5 L 172.8 42.5 Z M 172.8 11.8 "></path></clipPath><g clip-path="url(#clip0x7fe127c76e00)"><image xlink:href="../../B4985C79-FABA-446C-AF05-784F422AD3F2/assets/73528130521CD733E6D896CA24FB9A6F.png" width="29.00" height="29.00" transform="matrix(0.99, 0.00, -0.00, -0.99, 173.8, 41.5)" opacity="0.50"></image><path d="M 196.2 37.2 C 200.6 32.8 200.6 25.6 196.2 21.2 C 191.8 16.7 184.6 16.7 180.2 21.2 C 175.7 25.6 175.7 32.8 180.2 37.2 C 184.6 41.6 191.8 41.6 196.2 37.2 Z M 196.2 37.2 " fill="#C82505"></path></g></g><g><clipPath id="clip0x7fe127c78850"><path d="M 176.8 17.8 L 199.5 17.8 L 199.5 40.5 L 176.8 40.5 Z M 176.8 17.8 "></path></clipPath><g clip-path="url(#clip0x7fe127c78850)"><text xml:space="preserve" font-family="Helvetica-Light,Helvetica" font-size="10.0" fill="#FEFFFF" transform="matrix(1.00, 0.00, -0.00, -1.00, 185.4, 25.8)">2</text></g></g><g><clipPath id="clip0x7fe127c79ff0"><path d="M 14.6 536.5 L 60.7 641.4 L 68.1 638.1 L 21.9 533.3 Z M 14.6 536.5 "></path></clipPath><g clip-path="url(#clip0x7fe127c79ff0)"><path d="M 0.0 0.0 L 106.5 0.0 L 107.0 0.0 " fill="none" stroke="#000000" stroke-width="1.00" stroke-dasharray="2.0, 2.0" transform="matrix(0.40, 0.92, 0.92, -0.40, 18.7, 535.8)"></path><path d="M 64.3 632.1 L 64.0 638.8 L 58.8 634.5 Z M 64.3 632.1 " fill="#000000"></path></g></g><g><clipPath id="clip0x7fe127c7b660"><path d="M 16.6 281.9 L 154.1 419.5 L 159.8 413.8 L 22.3 276.3 Z M 16.6 281.9 "></path></clipPath><g clip-path="url(#clip0x7fe127c7b660)"><path d="M 0.0 0.0 L 186.5 0.0 L 187.0 0.0 " fill="none" stroke="#000000" stroke-width="1.00" stroke-dasharray="2.0, 2.0" transform="matrix(0.71, 0.71, 0.71, -0.71, 20.1, 279.8)"></path><path d="M 154.1 409.6 L 156.3 415.9 L 149.9 413.8 Z M 154.1 409.6 " fill="#000000"></path></g></g><g><clipPath id="clip0x7fe127c7ce30"><path d="M 17.6 24.5 L 63.7 129.4 L 71.0 126.1 L 24.9 21.3 Z M 17.6 24.5 "></path></clipPath><g clip-path="url(#clip0x7fe127c7ce30)"><path d="M 0.0 0.0 L 106.5 0.0 L 107.0 0.0 " fill="none" stroke="#000000" stroke-width="1.00" stroke-dasharray="2.0, 2.0" transform="matrix(0.40, 0.92, 0.92, -0.40, 21.6, 23.8)"></path><path d="M 67.3 120.1 L 67.0 126.8 L 61.8 122.5 Z M 67.3 120.1 " fill="#000000"></path></g></g><g><clipPath id="clip0x7fe127c7e470"><path d="M 81.3 664.2 L 152.6 684.7 L 154.9 677.1 L 83.5 656.5 Z M 81.3 664.2 "></path></clipPath><g clip-path="url(#clip0x7fe127c7e470)"><path d="M 0.0 0.0 L 66.3 0.0 L 66.8 0.0 " fill="none" stroke="#000000" stroke-width="1.00" stroke-dasharray="2.0, 2.0" transform="matrix(0.96, 0.28, 0.28, -0.96, 83.4, 660.6)"></path><path d="M 147.9 676.1 L 152.8 680.6 L 146.2 681.8 Z M 147.9 676.1 " fill="#000000"></path></g></g><g><clipPath id="clip0x7fe127c7fba0"><path d="M 172.1 671.6 L 163.2 604.1 L 155.2 605.2 L 164.2 672.6 Z M 172.1 671.6 "></path></clipPath><g clip-path="url(#clip0x7fe127c7fba0)"><path d="M 0.0 0.0 L 60.1 0.0 L 60.6 0.0 " fill="none" stroke="#000000" stroke-width="1.00" stroke-dasharray="2.0, 2.0" transform="matrix(-0.13, -0.99, -0.99, 0.13, 168.0, 671.1)"></path><path d="M 157.1 612.0 L 159.3 605.6 L 163.1 611.2 Z M 157.1 612.0 " fill="#000000"></path></g></g><g><clipPath id="clip0x7fe127c81210"><path d="M 170.2 415.7 L 163.0 348.3 L 155.1 349.2 L 162.3 416.6 Z M 170.2 415.7 "></path></clipPath><g clip-path="url(#clip0x7fe127c81210)"><path d="M 0.0 0.0 L 59.8 0.0 L 60.3 0.0 " fill="none" stroke="#000000" stroke-width="1.00" stroke-dasharray="2.0, 2.0" transform="matrix(-0.11, -0.99, -0.99, 0.11, 166.2, 415.2)"></path><path d="M 156.8 356.0 L 159.2 349.7 L 162.8 355.4 Z M 156.8 356.0 " fill="#000000"></path></g></g><g><clipPath id="clip0x7fe127c82880"><path d="M 162.4 326.3 L 184.6 297.8 L 178.3 292.8 L 156.1 321.4 Z M 162.4 326.3 "></path></clipPath><g clip-path="url(#clip0x7fe127c82880)"><path d="M 0.0 0.0 L 28.2 0.0 L 28.7 0.0 " fill="none" stroke="#000000" stroke-width="1.00" stroke-dasharray="2.0, 2.0" transform="matrix(0.61, -0.79, -0.79, -0.61, 159.9, 323.1)"></path><path d="M 174.8 299.0 L 180.8 296.1 L 179.5 302.7 Z M 174.8 299.0 " fill="#000000"></path></g></g><g><clipPath id="clip0x7fe127c83ef0"><path d="M 174.9 277.9 L 24.6 264.6 L 23.9 272.6 L 174.2 285.9 Z M 174.9 277.9 "></path></clipPath><g clip-path="url(#clip0x7fe127c83ef0)"><path d="M 0.0 0.0 L 142.9 0.0 L 143.4 0.0 " fill="none" stroke="#000000" stroke-width="1.00" stroke-dasharray="2.0, 2.0" transform="matrix(-1.00, -0.09, -0.09, 1.00, 173.6, 281.8)"></path><path d="M 31.0 272.2 L 25.2 268.7 L 31.5 266.2 Z M 31.0 272.2 " fill="#000000"></path></g></g><g><clipPath id="clip0x7fe127c85560"><path d="M 80.9 150.4 L 154.3 173.0 L 156.6 165.4 L 83.3 142.8 Z M 80.9 150.4 "></path></clipPath><g clip-path="url(#clip0x7fe127c85560)"><path d="M 0.0 0.0 L 68.7 0.0 L 69.2 0.0 " fill="none" stroke="#000000" stroke-width="1.00" stroke-dasharray="2.0, 2.0" transform="matrix(0.96, 0.29, 0.29, -0.96, 83.1, 146.9)"></path><path d="M 149.6 164.3 L 154.5 168.9 L 147.9 170.0 Z M 149.6 164.3 " fill="#000000"></path></g></g><g><clipPath id="clip0x7fe127c86bd0"><path d="M 169.6 157.7 L 161.6 92.2 L 153.6 93.2 L 161.7 158.7 Z M 169.6 157.7 "></path></clipPath><g clip-path="url(#clip0x7fe127c86bd0)"><path d="M 0.0 0.0 L 57.9 0.0 L 58.4 0.0 " fill="none" stroke="#000000" stroke-width="1.00" stroke-dasharray="2.0, 2.0" transform="matrix(-0.12, -0.99, -0.99, 0.12, 165.5, 157.2)"></path><path d="M 155.5 100.0 L 157.7 93.7 L 161.4 99.3 Z M 155.5 100.0 " fill="#000000"></path></g></g><g><clipPath id="clip0x7fe127c88240"><path d="M 144.8 580.6 L 27.0 523.3 L 23.5 530.5 L 141.3 587.8 Z M 144.8 580.6 "></path></clipPath><g clip-path="url(#clip0x7fe127c88240)"><path d="M 0.0 0.0 L 122.9 0.0 L 123.4 0.0 " fill="none" stroke="#000000" stroke-width="1.00" stroke-dasharray="2.0, 2.0" transform="matrix(-0.90, -0.44, -0.44, 0.90, 142.1, 583.8)"></path><path d="M 30.3 532.7 L 26.2 527.3 L 32.9 527.3 Z M 30.3 532.7 " fill="#000000"></path></g></g><g><clipPath id="clip0x7fe127c898b0"><path d="M 146.8 68.6 L 24.0 12.3 L 20.7 19.6 L 143.4 75.8 Z M 146.8 68.6 "></path></clipPath><g clip-path="url(#clip0x7fe127c898b0)"><path d="M 0.0 0.0 L 127.0 0.0 L 127.5 0.0 " fill="none" stroke="#000000" stroke-width="1.00" stroke-dasharray="2.0, 2.0" transform="matrix(-0.91, -0.42, -0.42, 0.91, 144.2, 71.8)"></path><path d="M 27.5 21.6 L 23.2 16.3 L 30.0 16.1 Z M 27.5 21.6 " fill="#000000"></path></g></g><g><clipPath id="clip0x7fe127c8af20"><path d="M 64.4 710.5 L 159.2 710.5 L 159.2 758.1 L 64.4 758.1 Z M 64.4 710.5 "></path></clipPath><g clip-path="url(#clip0x7fe127c8af20)"><image xlink:href="../../B4985C79-FABA-446C-AF05-784F422AD3F2/assets/CE68325A40E415110816B4C610FEAB47.png" width="93.00" height="46.00" transform="matrix(1.00, 0.00, -0.00, -0.99, 65.4, 757.1)" opacity="0.79"></image></g></g><g><clipPath id="clip0x7fe127c8c5c0"><path d="M 65.9 726.5 L 66.0 744.7 C 66.0 751.1 71.1 756.0 77.6 756.0 L 142.9 756.0 C 149.4 756.0 155.0 751.1 155.0 744.7 L 155.0 726.5 C 155.0 720.0 149.4 715.0 142.9 715.0 L 77.6 715.0 C 71.1 715.0 65.9 720.0 65.9 726.5 Z M 65.9 726.5 "></path></clipPath><g clip-path="url(#clip0x7fe127c8c5c0)"><g><clipPath id="clip0x7fe127c8d390"><path d="M 64.4 710.5 L 159.2 710.5 L 159.2 758.1 L 64.4 758.1 Z M 64.4 710.5 "></path></clipPath><g clip-path="url(#clip0x7fe127c8d390)"><image xlink:href="../../3E3B11BC-EB67-4695-BF98-B7E2DDAB4D21/assets/AB0FFA4F7FC8FE68A05EE08CB233FDC6.png" width="600.00" height="600.00" transform="matrix(0.50, 0.00, -0.00, -0.50, 65.9, 756.0)"></image></g></g></g></g><g><clipPath id="clip0x7fe127b5dc70"><path d="M 65.9 714.8 L 154.6 714.8 L 154.6 756.4 L 65.9 756.4 Z M 65.9 714.8 "></path></clipPath><g clip-path="url(#clip0x7fe127b5dc70)"><text xml:space="preserve" font-family="Helvetica-Light,Helvetica" font-size="13.0" fill="#FEFFFF" transform="matrix(1.00, 0.00, -0.00, -1.00, 79.2, 730.8)">S</text><text xml:space="preserve" font-family="Helvetica-Light,Helvetica" font-size="13.0" fill="#FEFFFF" transform="matrix(1.00, 0.00, -0.00, -1.00, 87.1, 730.8)">c</text><text xml:space="preserve" font-family="Helvetica-Light,Helvetica" font-size="13.0" fill="#FEFFFF" transform="matrix(1.00, 0.00, -0.00, -1.00, 94.4, 730.8)">e</text><text xml:space="preserve" font-family="Helvetica-Light,Helvetica" font-size="13.0" fill="#FEFFFF" transform="matrix(1.00, 0.00, -0.00, -1.00, 101.6, 730.8)">n</text><text xml:space="preserve" font-family="Helvetica-Light,Helvetica" font-size="13.0" fill="#FEFFFF" transform="matrix(1.00, 0.00, -0.00, -1.00, 108.8, 730.8)">a</text><text xml:space="preserve" font-family="Helvetica-Light,Helvetica" font-size="13.0" fill="#FEFFFF" transform="matrix(1.00, 0.00, -0.00, -1.00, 116.0, 730.8)">r</text><text xml:space="preserve" font-family="Helvetica-Light,Helvetica" font-size="13.0" fill="#FEFFFF" transform="matrix(1.00, 0.00, -0.00, -1.00, 120.4, 730.8)">i</text><text xml:space="preserve" font-family="Helvetica-Light,Helvetica" font-size="13.0" fill="#FEFFFF" transform="matrix(1.00, 0.00, -0.00, -1.00, 123.3, 730.8)">o</text><text xml:space="preserve" font-family="Helvetica-Light,Helvetica" font-size="13.0" fill="#FEFFFF" transform="matrix(1.00, 0.00, -0.00, -1.00, 130.5, 730.8)"> </text><text xml:space="preserve" font-family="Helvetica-Light,Helvetica" font-size="13.0" fill="#FEFFFF" transform="matrix(1.00, 0.00, -0.00, -1.00, 134.1, 730.8)">1</text></g></g><g><clipPath id="clip0x7fe127b821e0"><path d="M 64.4 452.5 L 159.2 452.5 L 159.2 500.1 L 64.4 500.1 Z M 64.4 452.5 "></path></clipPath><g clip-path="url(#clip0x7fe127b821e0)"><image xlink:href="../../B4985C79-FABA-446C-AF05-784F422AD3F2/assets/CE68325A40E415110816B4C610FEAB47.png" width="93.00" height="46.00" transform="matrix(1.00, 0.00, -0.00, -0.99, 65.4, 499.1)" opacity="0.79"></image></g></g><g><clipPath id="clip0x7fe127b832d0"><path d="M 65.9 468.5 L 66.0 486.7 C 66.0 493.1 71.1 498.0 77.6 498.0 L 142.9 498.0 C 149.4 498.0 155.0 493.1 155.0 486.7 L 155.0 468.5 C 155.0 462.0 149.4 457.0 142.9 457.0 L 77.6 457.0 C 71.1 457.0 65.9 462.0 65.9 468.5 Z M 65.9 468.5 "></path></clipPath><g clip-path="url(#clip0x7fe127b832d0)"><g><clipPath id="clip0x7fe127b84520"><path d="M 64.4 452.5 L 159.2 452.5 L 159.2 500.1 L 64.4 500.1 Z M 64.4 452.5 "></path></clipPath><g clip-path="url(#clip0x7fe127b84520)"><image xlink:href="../../3E3B11BC-EB67-4695-BF98-B7E2DDAB4D21/assets/AB0FFA4F7FC8FE68A05EE08CB233FDC6.png" width="600.00" height="600.00" transform="matrix(0.50, 0.00, -0.00, -0.50, 65.9, 498.0)"></image></g></g></g></g><g><clipPath id="clip0x7fe127a9c5e0"><path d="M 65.9 456.8 L 154.6 456.8 L 154.6 498.4 L 65.9 498.4 Z M 65.9 456.8 "></path></clipPath><g clip-path="url(#clip0x7fe127a9c5e0)"><text xml:space="preserve" font-family="Helvetica-Light,Helvetica" font-size="13.0" fill="#FEFFFF" transform="matrix(1.00, 0.00, -0.00, -1.00, 79.2, 472.8)">S</text><text xml:space="preserve" font-family="Helvetica-Light,Helvetica" font-size="13.0" fill="#FEFFFF" transform="matrix(1.00, 0.00, -0.00, -1.00, 87.1, 472.8)">c</text><text xml:space="preserve" font-family="Helvetica-Light,Helvetica" font-size="13.0" fill="#FEFFFF" transform="matrix(1.00, 0.00, -0.00, -1.00, 94.4, 472.8)">e</text><text xml:space="preserve" font-family="Helvetica-Light,Helvetica" font-size="13.0" fill="#FEFFFF" transform="matrix(1.00, 0.00, -0.00, -1.00, 101.6, 472.8)">n</text><text xml:space="preserve" font-family="Helvetica-Light,Helvetica" font-size="13.0" fill="#FEFFFF" transform="matrix(1.00, 0.00, -0.00, -1.00, 108.8, 472.8)">a</text><text xml:space="preserve" font-family="Helvetica-Light,Helvetica" font-size="13.0" fill="#FEFFFF" transform="matrix(1.00, 0.00, -0.00, -1.00, 116.0, 472.8)">r</text><text xml:space="preserve" font-family="Helvetica-Light,Helvetica" font-size="13.0" fill="#FEFFFF" transform="matrix(1.00, 0.00, -0.00, -1.00, 120.4, 472.8)">i</text><text xml:space="preserve" font-family="Helvetica-Light,Helvetica" font-size="13.0" fill="#FEFFFF" transform="matrix(1.00, 0.00, -0.00, -1.00, 123.3, 472.8)">o</text><text xml:space="preserve" font-family="Helvetica-Light,Helvetica" font-size="13.0" fill="#FEFFFF" transform="matrix(1.00, 0.00, -0.00, -1.00, 130.5, 472.8)"> </text><text xml:space="preserve" font-family="Helvetica-Light,Helvetica" font-size="13.0" fill="#FEFFFF" transform="matrix(1.00, 0.00, -0.00, -1.00, 134.1, 472.8)">2</text></g></g><g><clipPath id="clip0x7fe127aaa5e0"><path d="M 64.4 193.5 L 159.2 193.5 L 159.2 241.1 L 64.4 241.1 Z M 64.4 193.5 "></path></clipPath><g clip-path="url(#clip0x7fe127aaa5e0)"><image xlink:href="../../B4985C79-FABA-446C-AF05-784F422AD3F2/assets/CE68325A40E415110816B4C610FEAB47.png" width="93.00" height="46.00" transform="matrix(1.00, 0.00, -0.00, -0.99, 65.4, 240.1)" opacity="0.79"></image></g></g><g><clipPath id="clip0x7fe127aab6d0"><path d="M 65.9 209.5 L 66.0 227.7 C 66.0 234.1 71.1 239.0 77.6 239.0 L 142.9 239.0 C 149.4 239.0 155.0 234.1 155.0 227.7 L 155.0 209.5 C 155.0 203.0 149.4 198.0 142.9 198.0 L 77.6 198.0 C 71.1 198.0 65.9 203.0 65.9 209.5 Z M 65.9 209.5 "></path></clipPath><g clip-path="url(#clip0x7fe127aab6d0)"><g><clipPath id="clip0x7fe127aac920"><path d="M 64.4 193.5 L 159.2 193.5 L 159.2 241.1 L 64.4 241.1 Z M 64.4 193.5 "></path></clipPath><g clip-path="url(#clip0x7fe127aac920)"><image xlink:href="../../3E3B11BC-EB67-4695-BF98-B7E2DDAB4D21/assets/AB0FFA4F7FC8FE68A05EE08CB233FDC6.png" width="600.00" height="600.00" transform="matrix(0.50, 0.00, -0.00, -0.50, 65.9, 239.0)"></image></g></g></g></g><g><clipPath id="clip0x7fe127b85100"><path d="M 65.9 197.8 L 154.6 197.8 L 154.6 239.4 L 65.9 239.4 Z M 65.9 197.8 "></path></clipPath><g clip-path="url(#clip0x7fe127b85100)"><text xml:space="preserve" font-family="Helvetica-Light,Helvetica" font-size="13.0" fill="#FEFFFF" transform="matrix(1.00, 0.00, -0.00, -1.00, 79.2, 213.8)">S</text><text xml:space="preserve" font-family="Helvetica-Light,Helvetica" font-size="13.0" fill="#FEFFFF" transform="matrix(1.00, 0.00, -0.00, -1.00, 87.1, 213.8)">c</text><text xml:space="preserve" font-family="Helvetica-Light,Helvetica" font-size="13.0" fill="#FEFFFF" transform="matrix(1.00, 0.00, -0.00, -1.00, 94.4, 213.8)">e</text><text xml:space="preserve" font-family="Helvetica-Light,Helvetica" font-size="13.0" fill="#FEFFFF" transform="matrix(1.00, 0.00, -0.00, -1.00, 101.6, 213.8)">n</text><text xml:space="preserve" font-family="Helvetica-Light,Helvetica" font-size="13.0" fill="#FEFFFF" transform="matrix(1.00, 0.00, -0.00, -1.00, 108.8, 213.8)">a</text><text xml:space="preserve" font-family="Helvetica-Light,Helvetica" font-size="13.0" fill="#FEFFFF" transform="matrix(1.00, 0.00, -0.00, -1.00, 116.0, 213.8)">r</text><text xml:space="preserve" font-family="Helvetica-Light,Helvetica" font-size="13.0" fill="#FEFFFF" transform="matrix(1.00, 0.00, -0.00, -1.00, 120.4, 213.8)">i</text><text xml:space="preserve" font-family="Helvetica-Light,Helvetica" font-size="13.0" fill="#FEFFFF" transform="matrix(1.00, 0.00, -0.00, -1.00, 123.3, 213.8)">o</text><text xml:space="preserve" font-family="Helvetica-Light,Helvetica" font-size="13.0" fill="#FEFFFF" transform="matrix(1.00, 0.00, -0.00, -1.00, 130.5, 213.8)"> </text><text xml:space="preserve" font-family="Helvetica-Light,Helvetica" font-size="13.0" fill="#FEFFFF" transform="matrix(1.00, 0.00, -0.00, -1.00, 134.1, 213.8)">3</text></g></g></g></svg>