<?xml version="1.0" encoding="UTF-8" standalone="no"?><svg xmlns="http://www.w3.org/2000/svg" xmlns:xlink="http://www.w3.org/1999/xlink" clip-rule="evenodd" stroke-miterlimit="10" viewBox="0 0 173 29"><desc>SVG generated by Keynote</desc><defs></defs><g transform="matrix(1.00, 0.00, -0.00, -1.00, 0.0, 29.0)"><text xml:space="preserve" font-family="Helvetica-Light,Helvetica" font-size="35.0" fill="#FEFFFF" transform="matrix(1.00, 0.00, -0.00, -1.00, -0.5, 2.0)">C</text><text xml:space="preserve" font-family="Helvetica-Light,Helvetica" font-size="35.0" fill="#FEFFFF" transform="matrix(1.00, 0.00, -0.00, -1.00, 24.7, 2.0)">o</text><text xml:space="preserve" font-family="Helvetica-Light,Helvetica" font-size="35.0" fill="#FEFFFF" transform="matrix(1.00, 0.00, -0.00, -1.00, 44.2, 2.0)">n</text><text xml:space="preserve" font-family="Helvetica-Light,Helvetica" font-size="35.0" fill="#FEFFFF" transform="matrix(1.00, 0.00, -0.00, -1.00, 63.7, 2.0)">c</text><text xml:space="preserve" font-family="Helvetica-Light,Helvetica" font-size="35.0" fill="#FEFFFF" transform="matrix(1.00, 0.00, -0.00, -1.00, 83.1, 2.0)">l</text><text xml:space="preserve" font-family="Helvetica-Light,Helvetica" font-size="35.0" fill="#FEFFFF" transform="matrix(1.00, 0.00, -0.00, -1.00, 90.9, 2.0)">u</text><text xml:space="preserve" font-family="Helvetica-Light,Helvetica" font-size="35.0" fill="#FEFFFF" transform="matrix(1.00, 0.00, -0.00, -1.00, 110.3, 2.0)">s</text><text xml:space="preserve" font-family="Helvetica-Light,Helvetica" font-size="35.0" fill="#FEFFFF" transform="matrix(1.00, 0.00, -0.00, -1.00, 127.8, 2.0)">i</text><text xml:space="preserve" font-family="Helvetica-Light,Helvetica" font-size="35.0" fill="#FEFFFF" transform="matrix(1.00, 0.00, -0.00, -1.00, 135.6, 2.0)">o</text><text xml:space="preserve" font-family="Helvetica-Light,Helvetica" font-size="35.0" fill="#FEFFFF" transform="matrix(1.00, 0.00, -0.00, -1.00, 155.1, 2.0)">n</text></g></svg>