<?xml version="1.0" encoding="UTF-8" standalone="no"?><svg xmlns="http://www.w3.org/2000/svg" xmlns:xlink="http://www.w3.org/1999/xlink" clip-rule="evenodd" stroke-miterlimit="10" viewBox="0 0 106 29"><desc>SVG generated by Keynote</desc><defs></defs><g transform="matrix(1.00, 0.00, -0.00, -1.00, 0.0, 29.0)"><g><clipPath id="clip0x7fe109ddc520"><path d="M 1.0 5.0 L 104.4 5.0 L 104.4 1.0 L 1.0 1.0 Z M 1.0 5.0 "></path></clipPath><g clip-path="url(#clip0x7fe109ddc520)"><path d="M 0.0 -0.0 L 101.0 -0.0 " fill="none" stroke="#FEFFFE" stroke-width="2.00" transform="matrix(1.00, 0.00, 0.00, -1.00, 2.0, 3.0)"></path></g></g><g><clipPath id="clip0x7fe109dddaf0"><path d="M 101.6 2.4 L 101.6 28.6 L 105.6 28.6 L 105.6 2.4 Z M 101.6 2.4 "></path></clipPath><g clip-path="url(#clip0x7fe109dddaf0)"><path d="M -0.4 0.4 L 24.6 0.4 " fill="none" stroke="#FEFFFE" stroke-width="2.00" transform="matrix(0.00, 1.00, 1.00, 0.00, 103.6, 3.4)"></path></g></g><g><clipPath id="clip0x7fe109ddeb40"><path d="M 0.7 2.4 L 0.7 28.6 L 4.7 28.6 L 4.7 2.4 Z M 0.7 2.4 "></path></clipPath><g clip-path="url(#clip0x7fe109ddeb40)"><path d="M -0.4 0.3 L 24.6 0.3 " fill="none" stroke="#FEFFFE" stroke-width="2.00" transform="matrix(0.00, 1.00, 1.00, 0.00, 2.7, 3.4)"></path></g></g></g></svg>