<?xml version="1.0" encoding="UTF-8" standalone="no"?><svg xmlns="http://www.w3.org/2000/svg" xmlns:xlink="http://www.w3.org/1999/xlink" clip-rule="evenodd" stroke-miterlimit="10" viewBox="0 0 187 45"><desc>SVG generated by Keynote</desc><defs></defs><g transform="matrix(1.00, 0.00, -0.00, -1.00, 0.0, 45.0)"><g><clipPath id="clip0x7fe108e9e420"><path d="M 1.0 43.0 L 186.0 43.0 L 186.0 2.0 L 1.0 2.0 Z M 1.4 43.2 "></path></clipPath><g clip-path="url(#clip0x7fe108e9e420)"><image xlink:href="../../3E3B11BC-EB67-4695-BF98-B7E2DDAB4D21/assets/4B339DEB8C1CA0CF7071ACA74F0502BB.png" width="600.00" height="600.00" transform="matrix(0.50, 0.00, -0.00, -0.50, 1.0, 43.0)"></image></g></g><g><clipPath id="clip0x7fe108d5f130"><path d="M 0.9 1.7 L 186.3 1.7 L 186.3 43.2 L 0.9 43.2 Z M 0.9 1.7 "></path></clipPath><g clip-path="url(#clip0x7fe108d5f130)"><text xml:space="preserve" font-family="Helvetica-Light,Helvetica" font-size="18.0" fill="#FEFFFF" transform="matrix(1.00, 0.00, -0.00, -1.00, 31.1, 15.4)">D</text><text xml:space="preserve" font-family="Helvetica-Light,Helvetica" font-size="18.0" fill="#FEFFFF" transform="matrix(1.00, 0.00, -0.00, -1.00, 44.1, 15.4)">e</text><text xml:space="preserve" font-family="Helvetica-Light,Helvetica" font-size="18.0" fill="#FEFFFF" transform="matrix(1.00, 0.00, -0.00, -1.00, 54.1, 15.4)">c</text><text xml:space="preserve" font-family="Helvetica-Light,Helvetica" font-size="18.0" fill="#FEFFFF" transform="matrix(1.00, 0.00, -0.00, -1.00, 64.1, 15.4)">i</text><text xml:space="preserve" font-family="Helvetica-Light,Helvetica" font-size="18.0" fill="#FEFFFF" transform="matrix(1.00, 0.00, -0.00, -1.00, 68.1, 15.4)">s</text><text xml:space="preserve" font-family="Helvetica-Light,Helvetica" font-size="18.0" fill="#FEFFFF" transform="matrix(1.00, 0.00, -0.00, -1.00, 77.1, 15.4)">i</text><text xml:space="preserve" font-family="Helvetica-Light,Helvetica" font-size="18.0" fill="#FEFFFF" transform="matrix(1.00, 0.00, -0.00, -1.00, 81.1, 15.4)">o</text><text xml:space="preserve" font-family="Helvetica-Light,Helvetica" font-size="18.0" fill="#FEFFFF" transform="matrix(1.00, 0.00, -0.00, -1.00, 91.1, 15.4)">n</text><text xml:space="preserve" font-family="Helvetica-Light,Helvetica" font-size="18.0" fill="#FEFFFF" transform="matrix(1.00, 0.00, -0.00, -1.00, 101.1, 15.4)"> </text><text xml:space="preserve" font-family="Helvetica-Light,Helvetica" font-size="18.0" fill="#FEFFFF" transform="matrix(1.00, 0.00, -0.00, -1.00, 106.1, 15.4)">M</text><text xml:space="preserve" font-family="Helvetica-Light,Helvetica" font-size="18.0" fill="#FEFFFF" transform="matrix(1.00, 0.00, -0.00, -1.00, 121.1, 15.4)">a</text><text xml:space="preserve" font-family="Helvetica-Light,Helvetica" font-size="18.0" fill="#FEFFFF" transform="matrix(1.00, 0.00, -0.00, -1.00, 131.1, 15.4)">k</text><text xml:space="preserve" font-family="Helvetica-Light,Helvetica" font-size="18.0" fill="#FEFFFF" transform="matrix(1.00, 0.00, -0.00, -1.00, 140.1, 15.4)">e</text><text xml:space="preserve" font-family="Helvetica-Light,Helvetica" font-size="18.0" fill="#FEFFFF" transform="matrix(1.00, 0.00, -0.00, -1.00, 150.2, 15.4)">r</text></g></g></g></svg>