<?xml version="1.0" encoding="UTF-8" standalone="no"?><svg xmlns="http://www.w3.org/2000/svg" xmlns:xlink="http://www.w3.org/1999/xlink" clip-rule="evenodd" stroke-miterlimit="10" viewBox="0 0 1024 768"><desc>SVG generated by Keynote</desc><defs></defs><g transform="matrix(1.00, 0.00, -0.00, -1.00, 0.0, 768.0)"><g><clipPath id="clip0x7f8c89e93e90"><path d="M 0.0 768.0 L 1024.0 768.0 L 1024.0 0.0 L 0.0 0.0 Z M 0.0 768.0 "></path></clipPath><g clip-path="url(#clip0x7f8c89e93e90)"><image xlink:href="../../8B133F28-6561-4BEE-89B3-D80F66C4E22A/assets/EC11ABC5F29D162147B74F3E30388275.jpeg" width="2048.00" height="1536.00" transform="matrix(0.50, 0.00, -0.00, -0.50, 0.0, 768.0)"></image></g></g><text xml:space="preserve" font-family="Chalkduster,Chalkduster" font-size="72.0" fill="#FEFFFE" transform="matrix(1.00, 0.00, -0.00, -1.00, 201.9, 48.8)">2</text><text xml:space="preserve" font-family="Chalkduster,Chalkduster" font-size="72.0" fill="#FEFFFE" transform="matrix(1.00, 0.00, -0.00, -1.00, 242.4, 48.8)">0</text><text xml:space="preserve" font-family="Chalkduster,Chalkduster" font-size="72.0" fill="#FEFFFE" transform="matrix(1.00, 0.00, -0.00, -1.00, 292.0, 48.8)">1</text><text xml:space="preserve" font-family="Chalkduster,Chalkduster" font-size="72.0" fill="#FEFFFE" transform="matrix(1.00, 0.00, -0.00, -1.00, 335.5, 48.8)">1</text><text xml:space="preserve" font-family="Chalkduster,Chalkduster" font-size="72.0" fill="#FEFFFE" transform="matrix(1.00, 0.00, -0.00, -1.00, 379.0, 48.8)">…</text><text xml:space="preserve" font-family="Chalkduster,Chalkduster" font-size="72.0" fill="#FEFFFE" transform="matrix(1.00, 0.00, -0.00, -1.00, 450.5, 48.8)">X</text><text xml:space="preserve" font-family="Chalkduster,Chalkduster" font-size="72.0" fill="#FEFFFE" transform="matrix(1.00, 0.00, -0.00, -1.00, 494.1, 48.8)">i</text><text xml:space="preserve" font-family="Chalkduster,Chalkduster" font-size="72.0" fill="#FEFFFE" transform="matrix(1.00, 0.00, -0.00, -1.00, 523.3, 48.8)">a</text><text xml:space="preserve" font-family="Chalkduster,Chalkduster" font-size="72.0" fill="#FEFFFE" transform="matrix(1.00, 0.00, -0.00, -1.00, 572.9, 48.8)">n</text><text xml:space="preserve" font-family="Chalkduster,Chalkduster" font-size="72.0" fill="#FEFFFE" transform="matrix(1.00, 0.00, -0.00, -1.00, 623.5, 48.8)">g</text><text xml:space="preserve" font-family="Chalkduster,Chalkduster" font-size="72.0" fill="#FEFFFE" transform="matrix(1.00, 0.00, -0.00, -1.00, 708.4, 48.8)">S</text><text xml:space="preserve" font-family="Chalkduster,Chalkduster" font-size="72.0" fill="#FEFFFE" transform="matrix(1.00, 0.00, -0.00, -1.00, 744.2, 48.8)">u</text><text xml:space="preserve" font-family="Chalkduster,Chalkduster" font-size="72.0" fill="#FEFFFE" transform="matrix(1.00, 0.00, -0.00, -1.00, 793.7, 48.8)">i</text><image xlink:href="../../FF6C5D1C-1463-4A66-8F55-BD0A5BD59F65/assets/669662B6B4A944F6B29E2A7A4DB4FFD5.jpeg" width="2048.00" height="1536.00" transform="matrix(0.25, 0.00, -0.00, -0.25, 256.0, 576.0)"></image><image xlink:href="../../FF6C5D1C-1463-4A66-8F55-BD0A5BD59F65/assets/069F24D37C41B4DA590AB478C2ABCFC0.jpeg" width="1536.00" height="2048.00" transform="matrix(0.21, 0.00, -0.00, -0.21, 692.0, 742.0)"></image><image xlink:href="../../FF6C5D1C-1463-4A66-8F55-BD0A5BD59F65/assets/B02D11E1B341AA3150F4AA9E6FF8E486.jpeg" width="2048.00" height="1536.00" transform="matrix(0.10, 0.00, -0.00, -0.10, 707.0, 296.0)"></image><image xlink:href="../../FF6C5D1C-1463-4A66-8F55-BD0A5BD59F65/assets/A44E42FF6410162DDCCDFE5B23257409.jpeg" width="1536.00" height="2048.00" transform="matrix(0.11, 0.00, -0.00, -0.10, 127.0, 335.0)"></image><image xlink:href="../../FF6C5D1C-1463-4A66-8F55-BD0A5BD59F65/assets/8F586B39AE2B068C0F22FB83DA858726.jpeg" width="1536.00" height="2048.00" transform="matrix(0.17, 0.00, -0.00, -0.17, 65.0, 718.0)"></image></g></svg>