<?xml version="1.0" encoding="UTF-8" standalone="no"?><svg xmlns="http://www.w3.org/2000/svg" xmlns:xlink="http://www.w3.org/1999/xlink" clip-rule="evenodd" stroke-miterlimit="10" viewBox="0 0 1024 768"><desc>SVG generated by Keynote</desc><defs></defs><g transform="matrix(1.00, 0.00, -0.00, -1.00, 0.0, 768.0)"><g><clipPath id="clip0x7f8c89b7e800"><path d="M 0.0 768.0 L 1024.0 768.0 L 1024.0 0.0 L 0.0 0.0 Z M 0.0 768.0 "></path></clipPath><g clip-path="url(#clip0x7f8c89b7e800)"><image xlink:href="../../8B133F28-6561-4BEE-89B3-D80F66C4E22A/assets/EC11ABC5F29D162147B74F3E30388275.jpeg" width="2048.00" height="1536.00" transform="matrix(0.50, 0.00, -0.00, -0.50, 0.0, 768.0)"></image></g></g><text xml:space="preserve" font-family="Chalkduster,Chalkduster" font-size="72.0" fill="#FEFFFE" transform="matrix(1.00, 0.00, -0.00, -1.00, 190.1, 627.8)">2</text><text xml:space="preserve" font-family="Chalkduster,Chalkduster" font-size="72.0" fill="#FEFFFE" transform="matrix(1.00, 0.00, -0.00, -1.00, 230.6, 627.8)">0</text><text xml:space="preserve" font-family="Chalkduster,Chalkduster" font-size="72.0" fill="#FEFFFE" transform="matrix(1.00, 0.00, -0.00, -1.00, 280.2, 627.8)">1</text><text xml:space="preserve" font-family="Chalkduster,Chalkduster" font-size="72.0" fill="#FEFFFE" transform="matrix(1.00, 0.00, -0.00, -1.00, 323.7, 627.8)">0</text><text xml:space="preserve" font-family="Chalkduster,Chalkduster" font-size="72.0" fill="#FEFFFE" transform="matrix(1.00, 0.00, -0.00, -1.00, 373.3, 627.8)">…</text><text xml:space="preserve" font-family="Chalkduster,Chalkduster" font-size="72.0" fill="#FEFFFE" transform="matrix(1.00, 0.00, -0.00, -1.00, 444.8, 627.8)">X</text><text xml:space="preserve" font-family="Chalkduster,Chalkduster" font-size="72.0" fill="#FEFFFE" transform="matrix(1.00, 0.00, -0.00, -1.00, 488.4, 627.8)">i</text><text xml:space="preserve" font-family="Chalkduster,Chalkduster" font-size="72.0" fill="#FEFFFE" transform="matrix(1.00, 0.00, -0.00, -1.00, 517.5, 627.8)">a</text><text xml:space="preserve" font-family="Chalkduster,Chalkduster" font-size="72.0" fill="#FEFFFE" transform="matrix(1.00, 0.00, -0.00, -1.00, 567.2, 627.8)">n</text><text xml:space="preserve" font-family="Chalkduster,Chalkduster" font-size="72.0" fill="#FEFFFE" transform="matrix(1.00, 0.00, -0.00, -1.00, 617.8, 627.8)">g</text><text xml:space="preserve" font-family="Chalkduster,Chalkduster" font-size="72.0" fill="#FEFFFE" transform="matrix(1.00, 0.00, -0.00, -1.00, 702.7, 627.8)">Z</text><text xml:space="preserve" font-family="Chalkduster,Chalkduster" font-size="72.0" fill="#FEFFFE" transform="matrix(1.00, 0.00, -0.00, -1.00, 759.8, 627.8)">h</text><text xml:space="preserve" font-family="Chalkduster,Chalkduster" font-size="72.0" fill="#FEFFFE" transform="matrix(1.00, 0.00, -0.00, -1.00, 805.4, 627.8)">i</text><image xlink:href="../../E5555727-7D30-4268-8919-F89307497DBC/assets/57FE1499A6518B27E7A658C250375B6A.jpeg" width="1536.00" height="2048.00" transform="matrix(0.24, 0.00, -0.00, -0.24, 329.0, 548.0)"></image><image xlink:href="../../E5555727-7D30-4268-8919-F89307497DBC/assets/F09DE2FB7C99A1CB9E65874A40555328.jpeg" width="2048.00" height="1536.00" transform="matrix(0.16, 0.00, -0.00, -0.16, 659.0, 597.0)"></image><image xlink:href="../../E5555727-7D30-4268-8919-F89307497DBC/assets/5F5D62C46C8DFDF8F899BE1541FD8891.jpeg" width="2048.00" height="1536.00" transform="matrix(0.15, 0.00, -0.00, -0.15, 680.0, 246.0)"></image><image xlink:href="../../E5555727-7D30-4268-8919-F89307497DBC/assets/7422652B116847CDD1142230828AFDCC.jpeg" width="2048.00" height="1536.00" transform="matrix(0.16, 0.00, -0.00, -0.16, 33.0, 584.0)"></image><image xlink:href="../../E5555727-7D30-4268-8919-F89307497DBC/assets/373474FE58871FDF5849AD137B2277EE.jpeg" width="2048.00" height="1536.00" transform="matrix(0.00, 0.13, 0.13, -0.00, 141.0, 10.0)"></image></g></svg>