<?xml version="1.0" encoding="UTF-8" standalone="no"?><svg xmlns="http://www.w3.org/2000/svg" xmlns:xlink="http://www.w3.org/1999/xlink" clip-rule="evenodd" stroke-miterlimit="10" viewBox="0 0 20 61"><desc>SVG generated by Keynote</desc><defs></defs><g transform="matrix(1.00, 0.00, -0.00, -1.00, 0.0, 61.0)"><g><clipPath id="clip0x7fe127f555d0"><path d="M 0.5 43.2 L 18.7 43.2 L 18.7 60.8 L 0.5 60.8 Z M 0.5 43.2 "></path></clipPath><g clip-path="url(#clip0x7fe127f555d0)"><image xlink:href="../../3E3B11BC-EB67-4695-BF98-B7E2DDAB4D21/assets/0BF6D8EE7301EDA63BB58B7729569853.png" width="16.00" height="16.00" transform="matrix(-1.01, 0.00, 0.00, -0.98, 17.7, 59.8)" opacity="0.50"></image></g></g><g><clipPath id="clip0x7fe127f66a60"><path d="M 7.9 55.4 C 6.0 53.5 6.0 50.4 7.9 48.6 C 9.9 46.7 13.2 46.7 15.2 48.6 C 17.2 50.4 17.2 53.5 15.2 55.4 C 13.2 57.2 9.9 57.2 7.9 55.4 Z M 7.9 55.4 "></path></clipPath><g clip-path="url(#clip0x7fe127f66a60)"><g><clipPath id="clip0x7fe127f68920"><path d="M 0.5 43.2 L 18.7 43.2 L 18.7 60.8 L 0.5 60.8 Z M 0.5 43.2 "></path></clipPath><g clip-path="url(#clip0x7fe127f68920)"><image xlink:href="../../3E3B11BC-EB67-4695-BF98-B7E2DDAB4D21/assets/4B339DEB8C1CA0CF7071ACA74F0502BB.png" width="600.00" height="600.00" transform="matrix(-0.50, 0.00, 0.00, -0.50, 16.7, 56.8)"></image></g></g></g></g><g><clipPath id="clip0x7fe1280a6640"><path d="M 0.5 22.1 L 18.7 22.1 L 18.7 39.7 L 0.5 39.7 Z M 0.5 22.1 "></path></clipPath><g clip-path="url(#clip0x7fe1280a6640)"><image xlink:href="../../3E3B11BC-EB67-4695-BF98-B7E2DDAB4D21/assets/0BF6D8EE7301EDA63BB58B7729569853.png" width="16.00" height="16.00" transform="matrix(-1.01, 0.00, 0.00, -0.98, 17.7, 38.7)" opacity="0.50"></image></g></g><g><clipPath id="clip0x7fe1280a7c80"><path d="M 7.9 34.3 C 6.0 32.4 6.0 29.4 7.9 27.5 C 9.9 25.6 13.2 25.6 15.2 27.5 C 17.2 29.4 17.2 32.4 15.2 34.3 C 13.2 36.2 9.9 36.2 7.9 34.3 Z M 7.9 34.3 "></path></clipPath><g clip-path="url(#clip0x7fe1280a7c80)"><g><clipPath id="clip0x7fe1280a89d0"><path d="M 0.5 22.1 L 18.7 22.1 L 18.7 39.7 L 0.5 39.7 Z M 0.5 22.1 "></path></clipPath><g clip-path="url(#clip0x7fe1280a89d0)"><image xlink:href="../../3E3B11BC-EB67-4695-BF98-B7E2DDAB4D21/assets/4B339DEB8C1CA0CF7071ACA74F0502BB.png" width="600.00" height="600.00" transform="matrix(-0.50, 0.00, 0.00, -0.50, 16.7, 35.7)"></image></g></g></g></g><g><clipPath id="clip0x7fe12824cc40"><path d="M 0.5 1.0 L 18.7 1.0 L 18.7 18.6 L 0.5 18.6 Z M 0.5 1.0 "></path></clipPath><g clip-path="url(#clip0x7fe12824cc40)"><image xlink:href="../../3E3B11BC-EB67-4695-BF98-B7E2DDAB4D21/assets/0BF6D8EE7301EDA63BB58B7729569853.png" width="16.00" height="16.00" transform="matrix(-1.01, 0.00, 0.00, -0.98, 17.7, 17.6)" opacity="0.50"></image></g></g><g><clipPath id="clip0x7fe12824f550"><path d="M 7.9 13.2 C 6.0 11.4 6.0 8.3 7.9 6.4 C 9.9 4.6 13.2 4.6 15.2 6.4 C 17.2 8.3 17.2 11.4 15.2 13.2 C 13.2 15.1 9.9 15.1 7.9 13.2 Z M 7.9 13.2 "></path></clipPath><g clip-path="url(#clip0x7fe12824f550)"><g><clipPath id="clip0x7fe12824f740"><path d="M 0.5 1.0 L 18.7 1.0 L 18.7 18.6 L 0.5 18.6 Z M 0.5 1.0 "></path></clipPath><g clip-path="url(#clip0x7fe12824f740)"><image xlink:href="../../3E3B11BC-EB67-4695-BF98-B7E2DDAB4D21/assets/4B339DEB8C1CA0CF7071ACA74F0502BB.png" width="600.00" height="600.00" transform="matrix(-0.50, 0.00, 0.00, -0.50, 16.7, 14.6)"></image></g></g></g></g></g></svg>