<?xml version="1.0" encoding="UTF-8" standalone="no"?><svg xmlns="http://www.w3.org/2000/svg" xmlns:xlink="http://www.w3.org/1999/xlink" clip-rule="evenodd" stroke-miterlimit="10" viewBox="0 0 99 51"><desc>SVG generated by Keynote</desc><defs></defs><g transform="matrix(1.00, 0.00, -0.00, -1.00, 0.0, 51.0)"><image xlink:href="../../3E3B11BC-EB67-4695-BF98-B7E2DDAB4D21/assets/F1871C771D6203FC96020948C79A0AE2.png" width="93.00" height="46.00" transform="matrix(1.00, 0.00, -0.00, -0.99, 5.0, 47.1)" opacity="0.79"></image><g><clipPath id="clip0x7fe126805190"><path d="M 5.5 16.5 L 5.0 34.7 C 5.0 41.1 10.7 46.0 17.2 46.0 L 82.5 46.0 C 89.0 46.0 94.0 41.1 94.0 34.7 L 94.0 16.5 C 94.0 10.0 89.0 5.0 82.5 5.0 L 17.2 5.0 C 10.7 5.0 5.5 10.0 5.5 16.5 Z M 5.5 16.5 "></path></clipPath><g clip-path="url(#clip0x7fe126805190)"><image xlink:href="../../3E3B11BC-EB67-4695-BF98-B7E2DDAB4D21/assets/AB0FFA4F7FC8FE68A05EE08CB233FDC6.png" width="600.00" height="600.00" transform="matrix(0.50, 0.00, -0.00, -0.50, 5.0, 46.0)"></image></g></g><g><clipPath id="clip0x7fe1262f60a0"><path d="M 5.5 4.8 L 94.2 4.8 L 94.2 46.4 L 5.5 46.4 Z M 5.5 4.8 "></path></clipPath><g clip-path="url(#clip0x7fe1262f60a0)"><text xml:space="preserve" font-family="Helvetica-Light,Helvetica" font-size="18.0" fill="#FEFFFF" transform="matrix(1.00, 0.00, -0.00, -1.00, 14.3, 18.1)">S</text><text xml:space="preserve" font-family="Helvetica-Light,Helvetica" font-size="18.0" fill="#FEFFFF" transform="matrix(1.00, 0.00, -0.00, -1.00, 25.3, 18.1)">c</text><text xml:space="preserve" font-family="Helvetica-Light,Helvetica" font-size="18.0" fill="#FEFFFF" transform="matrix(1.00, 0.00, -0.00, -1.00, 35.3, 18.1)">e</text><text xml:space="preserve" font-family="Helvetica-Light,Helvetica" font-size="18.0" fill="#FEFFFF" transform="matrix(1.00, 0.00, -0.00, -1.00, 45.3, 18.1)">n</text><text xml:space="preserve" font-family="Helvetica-Light,Helvetica" font-size="18.0" fill="#FEFFFF" transform="matrix(1.00, 0.00, -0.00, -1.00, 55.3, 18.1)">a</text><text xml:space="preserve" font-family="Helvetica-Light,Helvetica" font-size="18.0" fill="#FEFFFF" transform="matrix(1.00, 0.00, -0.00, -1.00, 65.4, 18.1)">r</text><text xml:space="preserve" font-family="Helvetica-Light,Helvetica" font-size="18.0" fill="#FEFFFF" transform="matrix(1.00, 0.00, -0.00, -1.00, 71.4, 18.1)">i</text><text xml:space="preserve" font-family="Helvetica-Light,Helvetica" font-size="18.0" fill="#FEFFFF" transform="matrix(1.00, 0.00, -0.00, -1.00, 75.3, 18.1)">o</text></g></g></g></svg>