<?xml version="1.0" encoding="UTF-8" standalone="no"?><svg xmlns="http://www.w3.org/2000/svg" xmlns:xlink="http://www.w3.org/1999/xlink" clip-rule="evenodd" stroke-miterlimit="10" viewBox="0 0 180 134"><desc>SVG generated by Keynote</desc><defs><linearGradient id="gradSh1.8" x1="0.0" y1="0.0" x2="100.0" y2="0.0" gradientUnits="userSpaceOnUse" gradientTransform="matrix(0.00, -1.19, -1.65, 0.00, 90.5, 126.0)"><stop offset="0.00000" stop-color="#A6AAA8"></stop><stop offset="0.00806" stop-color="#A6A9A8"></stop><stop offset="0.46628" stop-color="#7F8486"></stop><stop offset="0.46994" stop-color="#7F8386"></stop><stop offset="0.55865" stop-color="#787C7F"></stop><stop offset="0.56232" stop-color="#777C7F"></stop><stop offset="1.00000" stop-color="#53585F"></stop></linearGradient></defs><g transform="matrix(1.00, 0.00, -0.00, -1.00, 0.0, 134.0)"><image xlink:href="2402CA30117F513EA8754E502AD62F05.png" width="177.00" height="131.00" transform="matrix(1.00, 0.00, -0.00, -1.00, 2.0, 132.5)" opacity="0.80"></image><g><clipPath id="clip0x7fe10b8c0fc0"><path d="M 9.0 23.4 L 9.0 110.6 C 9.0 118.8 15.6 125.0 23.8 125.0 L 157.1 125.0 C 165.3 125.0 172.0 118.8 172.0 110.6 L 172.0 23.4 C 172.0 15.2 165.3 8.0 157.1 8.0 L 23.8 8.0 C 15.6 8.0 9.0 15.2 9.0 23.4 Z M 9.0 23.4 "></path></clipPath><g clip-path="url(#clip0x7fe10b8c0fc0)"><path d="M 9.0 23.4 L 9.0 110.6 C 9.0 118.8 15.6 125.0 23.8 125.0 L 157.1 125.0 C 165.3 125.0 172.0 118.8 172.0 110.6 L 172.0 23.4 C 172.0 15.2 165.3 8.0 157.1 8.0 L 23.8 8.0 C 15.6 8.0 9.0 15.2 9.0 23.4 Z M 9.0 23.4 " fill="url(#gradSh1.8)"></path></g></g><path d="M 0.0 102.1 L 0.0 14.9 C 0.0 6.7 6.7 0.5 14.9 0.5 L 148.1 0.5 C 156.3 0.5 163.0 6.7 163.0 14.9 L 163.0 102.1 C 163.0 110.3 156.3 117.5 148.1 117.5 L 14.9 117.5 C 6.7 117.5 0.0 110.3 0.0 102.1 Z M 0.0 102.1 " fill="none" stroke="#FEFFFF" stroke-width="2.00" transform="matrix(1.00, 0.00, 0.00, -1.00, 9.0, 125.5)"></path><image xlink:href="80EB567DA42A134A71D217CA3C781C67.png" width="147.00" height="22.00" transform="matrix(1.00, 0.00, -0.00, -1.00, 18.0, 91.0)"></image><g><clipPath id="clip0x7fe10afb4080"><path d="M 7.3 8.5 L 176.3 8.5 L 176.3 125.5 L 7.3 125.5 Z M 7.3 8.5 "></path></clipPath><g clip-path="url(#clip0x7fe10afb4080)"><text xml:space="preserve" font-family="Helvetica-Bold,Helvetica" font-weight="bold" font-size="24.0" fill="#FEFFFF" transform="matrix(1.00, 0.00, -0.00, -1.00, 17.8, 72.6)">E</text><text xml:space="preserve" font-family="Helvetica-Bold,Helvetica" font-weight="bold" font-size="24.0" fill="#FEFFFF" transform="matrix(1.00, 0.00, -0.00, -1.00, 33.8, 72.6)">v</text><text xml:space="preserve" font-family="Helvetica-Bold,Helvetica" font-weight="bold" font-size="24.0" fill="#FEFFFF" transform="matrix(1.00, 0.00, -0.00, -1.00, 47.1, 72.6)">e</text><text xml:space="preserve" font-family="Helvetica-Bold,Helvetica" font-weight="bold" font-size="24.0" fill="#FEFFFF" transform="matrix(1.00, 0.00, -0.00, -1.00, 60.5, 72.6)">n</text><text xml:space="preserve" font-family="Helvetica-Bold,Helvetica" font-weight="bold" font-size="24.0" fill="#FEFFFF" transform="matrix(1.00, 0.00, -0.00, -1.00, 75.1, 72.6)">t</text><text xml:space="preserve" font-family="Helvetica-Bold,Helvetica" font-weight="bold" font-size="24.0" fill="#FEFFFF" transform="matrix(1.00, 0.00, -0.00, -1.00, 83.1, 72.6)">-</text><text xml:space="preserve" font-family="Helvetica-Bold,Helvetica" font-weight="bold" font-size="24.0" fill="#FEFFFF" transform="matrix(1.00, 0.00, -0.00, -1.00, 91.1, 72.6)">d</text><text xml:space="preserve" font-family="Helvetica-Bold,Helvetica" font-weight="bold" font-size="24.0" fill="#FEFFFF" transform="matrix(1.00, 0.00, -0.00, -1.00, 105.8, 72.6)">r</text><text xml:space="preserve" font-family="Helvetica-Bold,Helvetica" font-weight="bold" font-size="24.0" fill="#FEFFFF" transform="matrix(1.00, 0.00, -0.00, -1.00, 115.1, 72.6)">i</text><text xml:space="preserve" font-family="Helvetica-Bold,Helvetica" font-weight="bold" font-size="24.0" fill="#FEFFFF" transform="matrix(1.00, 0.00, -0.00, -1.00, 121.8, 72.6)">v</text><text xml:space="preserve" font-family="Helvetica-Bold,Helvetica" font-weight="bold" font-size="24.0" fill="#FEFFFF" transform="matrix(1.00, 0.00, -0.00, -1.00, 135.1, 72.6)">e</text><text xml:space="preserve" font-family="Helvetica-Bold,Helvetica" font-weight="bold" font-size="24.0" fill="#FEFFFF" transform="matrix(1.00, 0.00, -0.00, -1.00, 148.5, 72.6)">n</text><text xml:space="preserve" font-family="Helvetica-Bold,Helvetica" font-weight="bold" font-size="24.0" fill="#FEFFFF" transform="matrix(1.00, 0.00, -0.00, -1.00, 163.1, 72.6)"> </text></g></g><image xlink:href="509810BC5AA19D2D1B256E02F7088271.png" width="132.00" height="23.00" transform="matrix(1.00, 0.00, -0.00, -1.00, 26.0, 63.0)"></image><g><clipPath id="clip0x7fe10acf82f0"><path d="M 7.3 8.5 L 176.3 8.5 L 176.3 125.5 L 7.3 125.5 Z M 7.3 8.5 "></path></clipPath><g clip-path="url(#clip0x7fe10acf82f0)"><text xml:space="preserve" font-family="Helvetica-Bold,Helvetica" font-weight="bold" font-size="24.0" fill="#FEFFFF" transform="matrix(1.00, 0.00, -0.00, -1.00, 25.8, 43.6)">b</text><text xml:space="preserve" font-family="Helvetica-Bold,Helvetica" font-weight="bold" font-size="24.0" fill="#FEFFFF" transform="matrix(1.00, 0.00, -0.00, -1.00, 40.4, 43.6)">a</text><text xml:space="preserve" font-family="Helvetica-Bold,Helvetica" font-weight="bold" font-size="24.0" fill="#FEFFFF" transform="matrix(1.00, 0.00, -0.00, -1.00, 53.8, 43.6)">s</text><text xml:space="preserve" font-family="Helvetica-Bold,Helvetica" font-weight="bold" font-size="24.0" fill="#FEFFFF" transform="matrix(1.00, 0.00, -0.00, -1.00, 67.1, 43.6)">e</text><text xml:space="preserve" font-family="Helvetica-Bold,Helvetica" font-weight="bold" font-size="24.0" fill="#FEFFFF" transform="matrix(1.00, 0.00, -0.00, -1.00, 80.5, 43.6)">d</text><text xml:space="preserve" font-family="Helvetica-Bold,Helvetica" font-weight="bold" font-size="24.0" fill="#FEFFFF" transform="matrix(1.00, 0.00, -0.00, -1.00, 95.1, 43.6)"> </text><text xml:space="preserve" font-family="Helvetica-Bold,Helvetica" font-weight="bold" font-size="24.0" fill="#FEFFFF" transform="matrix(1.00, 0.00, -0.00, -1.00, 101.8, 43.6)">M</text><text xml:space="preserve" font-family="Helvetica-Bold,Helvetica" font-weight="bold" font-size="24.0" fill="#FEFFFF" transform="matrix(1.00, 0.00, -0.00, -1.00, 121.8, 43.6)">S</text><text xml:space="preserve" font-family="Helvetica-Bold,Helvetica" font-weight="bold" font-size="24.0" fill="#FEFFFF" transform="matrix(1.00, 0.00, -0.00, -1.00, 137.8, 43.6)">A</text></g></g></g></svg>