<?xml version="1.0" encoding="UTF-8" standalone="no"?><svg xmlns="http://www.w3.org/2000/svg" xmlns:xlink="http://www.w3.org/1999/xlink" clip-rule="evenodd" stroke-miterlimit="10" viewBox="0 0 1024 768"><desc>SVG generated by Keynote</desc><defs><linearGradient id="gradSh1.10" x1="0.0" y1="0.0" x2="100.0" y2="0.0" gradientUnits="userSpaceOnUse" gradientTransform="matrix(0.00, -1.19, -1.65, 0.00, 873.5, 443.0)"><stop offset="0.00000" stop-color="#A6AAA8"></stop><stop offset="0.00806" stop-color="#A6A9A8"></stop><stop offset="0.46628" stop-color="#7F8486"></stop><stop offset="0.46994" stop-color="#7F8386"></stop><stop offset="0.55865" stop-color="#787C7F"></stop><stop offset="0.56232" stop-color="#777C7F"></stop><stop offset="1.00000" stop-color="#53585F"></stop></linearGradient><linearGradient id="gradSh1.11" x1="0.0" y1="0.0" x2="100.0" y2="0.0" gradientUnits="userSpaceOnUse" gradientTransform="matrix(0.00, -0.57, -1.65, 0.00, 670.5, 412.4)"><stop offset="0.00000" stop-color="#A6AAA8"></stop><stop offset="0.00806" stop-color="#A6A9A8"></stop><stop offset="0.46628" stop-color="#7F8486"></stop><stop offset="0.46994" stop-color="#7F8386"></stop><stop offset="0.55865" stop-color="#787C7F"></stop><stop offset="0.56232" stop-color="#777C7F"></stop><stop offset="1.00000" stop-color="#53585F"></stop></linearGradient></defs><g transform="matrix(1.00, 0.00, -0.00, -1.00, 0.0, 768.0)"><g><clipPath id="clip0x7fe10bcaac10"><path d="M 0.0 768.0 L 1024.0 768.0 L 1024.0 0.0 L 0.0 0.0 Z M 0.0 768.0 "></path></clipPath><g clip-path="url(#clip0x7fe10bcaac10)"><image xlink:href="../../A458083D-D69B-45C4-902F-6A2AFF5FFDFF/assets/C1ECA91D654ECC927BC479E89DA39F96.jpeg" width="2048.00" height="1536.00" transform="matrix(0.50, 0.00, -0.00, -0.50, 0.0, 768.0)"></image></g></g><image xlink:href="../../856E68D5-3E1F-49FB-9CFE-257A60947E97/assets/2402CA30117F513EA8754E502AD62F05.png" width="177.00" height="131.00" transform="matrix(1.00, 0.00, -0.00, -1.00, 785.0, 449.5)" opacity="0.80"></image><g><clipPath id="clip0x7fe10afd4ba0"><path d="M 792.0 340.4 L 792.0 427.6 C 792.0 435.8 798.6 442.0 806.8 442.0 L 940.1 442.0 C 948.3 442.0 955.0 435.8 955.0 427.6 L 955.0 340.4 C 955.0 332.2 948.3 325.0 940.1 325.0 L 806.8 325.0 C 798.6 325.0 792.0 332.2 792.0 340.4 Z M 792.0 340.4 "></path></clipPath><g clip-path="url(#clip0x7fe10afd4ba0)"><path d="M 792.0 340.4 L 792.0 427.6 C 792.0 435.8 798.6 442.0 806.8 442.0 L 940.1 442.0 C 948.3 442.0 955.0 435.8 955.0 427.6 L 955.0 340.4 C 955.0 332.2 948.3 325.0 940.1 325.0 L 806.8 325.0 C 798.6 325.0 792.0 332.2 792.0 340.4 Z M 792.0 340.4 " fill="url(#gradSh1.10)"></path></g></g><path d="M 0.0 102.1 L 0.0 14.9 C 0.0 6.7 6.7 0.5 14.9 0.5 L 148.1 0.5 C 156.3 0.5 163.0 6.7 163.0 14.9 L 163.0 102.1 C 163.0 110.3 156.3 117.5 148.1 117.5 L 14.9 117.5 C 6.7 117.5 0.0 110.3 0.0 102.1 Z M 0.0 102.1 " fill="none" stroke="#FEFFFF" stroke-width="2.00" transform="matrix(1.00, 0.00, 0.00, -1.00, 792.0, 442.5)"></path><image xlink:href="../../856E68D5-3E1F-49FB-9CFE-257A60947E97/assets/80EB567DA42A134A71D217CA3C781C67.png" width="147.00" height="22.00" transform="matrix(1.00, 0.00, -0.00, -1.00, 801.0, 408.0)"></image><g><clipPath id="clip0x7fe10bd2fbc0"><path d="M 790.3 325.5 L 959.3 325.5 L 959.3 442.5 L 790.3 442.5 Z M 790.3 325.5 "></path></clipPath><g clip-path="url(#clip0x7fe10bd2fbc0)"><text xml:space="preserve" font-family="Helvetica-Bold,Helvetica" font-weight="bold" font-size="24.0" fill="#FEFFFF" transform="matrix(1.00, 0.00, -0.00, -1.00, 800.8, 389.6)">E</text><text xml:space="preserve" font-family="Helvetica-Bold,Helvetica" font-weight="bold" font-size="24.0" fill="#FEFFFF" transform="matrix(1.00, 0.00, -0.00, -1.00, 816.8, 389.6)">v</text><text xml:space="preserve" font-family="Helvetica-Bold,Helvetica" font-weight="bold" font-size="24.0" fill="#FEFFFF" transform="matrix(1.00, 0.00, -0.00, -1.00, 830.1, 389.6)">e</text><text xml:space="preserve" font-family="Helvetica-Bold,Helvetica" font-weight="bold" font-size="24.0" fill="#FEFFFF" transform="matrix(1.00, 0.00, -0.00, -1.00, 843.5, 389.6)">n</text><text xml:space="preserve" font-family="Helvetica-Bold,Helvetica" font-weight="bold" font-size="24.0" fill="#FEFFFF" transform="matrix(1.00, 0.00, -0.00, -1.00, 858.1, 389.6)">t</text><text xml:space="preserve" font-family="Helvetica-Bold,Helvetica" font-weight="bold" font-size="24.0" fill="#FEFFFF" transform="matrix(1.00, 0.00, -0.00, -1.00, 866.1, 389.6)">-</text><text xml:space="preserve" font-family="Helvetica-Bold,Helvetica" font-weight="bold" font-size="24.0" fill="#FEFFFF" transform="matrix(1.00, 0.00, -0.00, -1.00, 874.1, 389.6)">d</text><text xml:space="preserve" font-family="Helvetica-Bold,Helvetica" font-weight="bold" font-size="24.0" fill="#FEFFFF" transform="matrix(1.00, 0.00, -0.00, -1.00, 888.8, 389.6)">r</text><text xml:space="preserve" font-family="Helvetica-Bold,Helvetica" font-weight="bold" font-size="24.0" fill="#FEFFFF" transform="matrix(1.00, 0.00, -0.00, -1.00, 898.1, 389.6)">i</text><text xml:space="preserve" font-family="Helvetica-Bold,Helvetica" font-weight="bold" font-size="24.0" fill="#FEFFFF" transform="matrix(1.00, 0.00, -0.00, -1.00, 904.8, 389.6)">v</text><text xml:space="preserve" font-family="Helvetica-Bold,Helvetica" font-weight="bold" font-size="24.0" fill="#FEFFFF" transform="matrix(1.00, 0.00, -0.00, -1.00, 918.1, 389.6)">e</text><text xml:space="preserve" font-family="Helvetica-Bold,Helvetica" font-weight="bold" font-size="24.0" fill="#FEFFFF" transform="matrix(1.00, 0.00, -0.00, -1.00, 931.5, 389.6)">n</text><text xml:space="preserve" font-family="Helvetica-Bold,Helvetica" font-weight="bold" font-size="24.0" fill="#FEFFFF" transform="matrix(1.00, 0.00, -0.00, -1.00, 946.1, 389.6)"> </text></g></g><image xlink:href="../../856E68D5-3E1F-49FB-9CFE-257A60947E97/assets/509810BC5AA19D2D1B256E02F7088271.png" width="132.00" height="23.00" transform="matrix(1.00, 0.00, -0.00, -1.00, 809.0, 380.0)"></image><g><clipPath id="clip0x7fe10bd38920"><path d="M 790.3 325.5 L 959.3 325.5 L 959.3 442.5 L 790.3 442.5 Z M 790.3 325.5 "></path></clipPath><g clip-path="url(#clip0x7fe10bd38920)"><text xml:space="preserve" font-family="Helvetica-Bold,Helvetica" font-weight="bold" font-size="24.0" fill="#FEFFFF" transform="matrix(1.00, 0.00, -0.00, -1.00, 808.8, 360.6)">b</text><text xml:space="preserve" font-family="Helvetica-Bold,Helvetica" font-weight="bold" font-size="24.0" fill="#FEFFFF" transform="matrix(1.00, 0.00, -0.00, -1.00, 823.4, 360.6)">a</text><text xml:space="preserve" font-family="Helvetica-Bold,Helvetica" font-weight="bold" font-size="24.0" fill="#FEFFFF" transform="matrix(1.00, 0.00, -0.00, -1.00, 836.8, 360.6)">s</text><text xml:space="preserve" font-family="Helvetica-Bold,Helvetica" font-weight="bold" font-size="24.0" fill="#FEFFFF" transform="matrix(1.00, 0.00, -0.00, -1.00, 850.1, 360.6)">e</text><text xml:space="preserve" font-family="Helvetica-Bold,Helvetica" font-weight="bold" font-size="24.0" fill="#FEFFFF" transform="matrix(1.00, 0.00, -0.00, -1.00, 863.5, 360.6)">d</text><text xml:space="preserve" font-family="Helvetica-Bold,Helvetica" font-weight="bold" font-size="24.0" fill="#FEFFFF" transform="matrix(1.00, 0.00, -0.00, -1.00, 878.1, 360.6)"> </text><text xml:space="preserve" font-family="Helvetica-Bold,Helvetica" font-weight="bold" font-size="24.0" fill="#FEFFFF" transform="matrix(1.00, 0.00, -0.00, -1.00, 884.8, 360.6)">M</text><text xml:space="preserve" font-family="Helvetica-Bold,Helvetica" font-weight="bold" font-size="24.0" fill="#FEFFFF" transform="matrix(1.00, 0.00, -0.00, -1.00, 904.8, 360.6)">S</text><text xml:space="preserve" font-family="Helvetica-Bold,Helvetica" font-weight="bold" font-size="24.0" fill="#FEFFFF" transform="matrix(1.00, 0.00, -0.00, -1.00, 920.8, 360.6)">A</text></g></g><g><clipPath id="clip0x7fe10bd3c650"><path d="M 222.0 300.1 L 528.0 300.1 L 528.0 467.9 L 222.0 467.9 Z M 222.0 300.1 "></path></clipPath><g clip-path="url(#clip0x7fe10bd3c650)"><image xlink:href="../../856E68D5-3E1F-49FB-9CFE-257A60947E97/assets/E56F8E97C43EDD0AB432F246BFCBC5BC.png" width="2400.00" height="1316.00" transform="matrix(0.13, 0.00, -0.00, -0.13, 222.0, 468.0)"></image></g></g><g><clipPath id="clip0x7fe10bcabda0"><path d="M 285.2 351.4 L 464.8 351.4 L 464.8 396.9 L 285.2 396.9 Z M 285.2 351.4 "></path></clipPath><g clip-path="url(#clip0x7fe10bcabda0)"><text xml:space="preserve" font-family="Helvetica-Bold,Helvetica" font-weight="bold" font-size="27.0" fill="#000000" transform="matrix(1.00, 0.00, -0.00, -1.00, 292.5, 364.4)">E</text><text xml:space="preserve" font-family="Helvetica-Bold,Helvetica" font-weight="bold" font-size="27.0" fill="#000000" transform="matrix(1.00, 0.00, -0.00, -1.00, 310.5, 364.4)">n</text><text xml:space="preserve" font-family="Helvetica-Bold,Helvetica" font-weight="bold" font-size="27.0" fill="#000000" transform="matrix(1.00, 0.00, -0.00, -1.00, 327.0, 364.4)">v</text><text xml:space="preserve" font-family="Helvetica-Bold,Helvetica" font-weight="bold" font-size="27.0" fill="#000000" transform="matrix(1.00, 0.00, -0.00, -1.00, 342.0, 364.4)">i</text><text xml:space="preserve" font-family="Helvetica-Bold,Helvetica" font-weight="bold" font-size="27.0" fill="#000000" transform="matrix(1.00, 0.00, -0.00, -1.00, 349.5, 364.4)">r</text><text xml:space="preserve" font-family="Helvetica-Bold,Helvetica" font-weight="bold" font-size="27.0" fill="#000000" transform="matrix(1.00, 0.00, -0.00, -1.00, 360.0, 364.4)">o</text><text xml:space="preserve" font-family="Helvetica-Bold,Helvetica" font-weight="bold" font-size="27.0" fill="#000000" transform="matrix(1.00, 0.00, -0.00, -1.00, 376.5, 364.4)">n</text><text xml:space="preserve" font-family="Helvetica-Bold,Helvetica" font-weight="bold" font-size="27.0" fill="#000000" transform="matrix(1.00, 0.00, -0.00, -1.00, 393.0, 364.4)">m</text><text xml:space="preserve" font-family="Helvetica-Bold,Helvetica" font-weight="bold" font-size="27.0" fill="#000000" transform="matrix(1.00, 0.00, -0.00, -1.00, 417.0, 364.4)">e</text><text xml:space="preserve" font-family="Helvetica-Bold,Helvetica" font-weight="bold" font-size="27.0" fill="#000000" transform="matrix(1.00, 0.00, -0.00, -1.00, 432.0, 364.4)">n</text><text xml:space="preserve" font-family="Helvetica-Bold,Helvetica" font-weight="bold" font-size="27.0" fill="#000000" transform="matrix(1.00, 0.00, -0.00, -1.00, 448.5, 364.4)">t</text></g></g><path d="M 484.0 555.4 C 448.1 555.4 419.0 541.0 419.0 523.4 C 419.0 514.3 426.7 506.2 438.9 500.4 L 419.8 478.6 L 459.2 493.8 C 466.8 492.3 475.2 491.4 484.0 491.4 C 519.9 491.4 549.0 505.7 549.0 523.4 C 549.0 541.0 519.9 555.4 484.0 555.4 Z M 484.0 555.4 " fill="#FEFFFE"></path><path d="M 65.0 0.0 C 29.1 0.0 0.0 14.3 0.0 32.0 C 0.0 41.0 7.7 49.2 19.9 55.0 L 0.8 76.8 L 40.2 61.6 C 47.8 63.1 56.2 64.0 65.0 64.0 C 100.9 64.0 130.0 49.7 130.0 32.0 C 130.0 14.3 100.9 0.0 65.0 0.0 Z M 65.0 0.0 " fill="none" stroke="#FEFFFF" stroke-width="2.00" transform="matrix(1.00, 0.00, 0.00, -1.00, 419.0, 555.4)"></path><image xlink:href="../../856E68D5-3E1F-49FB-9CFE-257A60947E97/assets/4CA9121E48F989003445C1B0192D8DAD.png" width="75.00" height="18.00" transform="matrix(1.00, 0.00, -0.00, -1.00, 448.0, 529.0)"></image><g><clipPath id="clip0x7fe10bcb33c0"><path d="M 419.0 491.4 L 549.0 491.4 L 549.0 555.4 L 419.0 555.4 Z M 419.0 491.4 "></path></clipPath><g clip-path="url(#clip0x7fe10bcb33c0)"><text xml:space="preserve" font-family="Helvetica-Bold,Helvetica" font-weight="bold" font-size="14.0" fill="#000000" transform="matrix(1.00, 0.00, -0.00, -1.00, 448.2, 517.9)">N</text><text xml:space="preserve" font-family="Helvetica-Bold,Helvetica" font-weight="bold" font-size="14.0" fill="#000000" transform="matrix(1.00, 0.00, -0.00, -1.00, 458.3, 517.9)">e</text><text xml:space="preserve" font-family="Helvetica-Bold,Helvetica" font-weight="bold" font-size="14.0" fill="#000000" transform="matrix(1.00, 0.00, -0.00, -1.00, 466.1, 517.9)">w</text><text xml:space="preserve" font-family="Helvetica-Bold,Helvetica" font-weight="bold" font-size="14.0" fill="#000000" transform="matrix(1.00, 0.00, -0.00, -1.00, 477.0, 517.9)"> </text><text xml:space="preserve" font-family="Helvetica-Bold,Helvetica" font-weight="bold" font-size="14.0" fill="#000000" transform="matrix(1.00, 0.00, -0.00, -1.00, 480.9, 517.9)">t</text><text xml:space="preserve" font-family="Helvetica-Bold,Helvetica" font-weight="bold" font-size="14.0" fill="#000000" transform="matrix(1.00, 0.00, -0.00, -1.00, 485.6, 517.9)">a</text><text xml:space="preserve" font-family="Helvetica-Bold,Helvetica" font-weight="bold" font-size="14.0" fill="#000000" transform="matrix(1.00, 0.00, -0.00, -1.00, 493.3, 517.9)">r</text><text xml:space="preserve" font-family="Helvetica-Bold,Helvetica" font-weight="bold" font-size="14.0" fill="#000000" transform="matrix(1.00, 0.00, -0.00, -1.00, 498.8, 517.9)">g</text><text xml:space="preserve" font-family="Helvetica-Bold,Helvetica" font-weight="bold" font-size="14.0" fill="#000000" transform="matrix(1.00, 0.00, -0.00, -1.00, 507.3, 517.9)">e</text><text xml:space="preserve" font-family="Helvetica-Bold,Helvetica" font-weight="bold" font-size="14.0" fill="#000000" transform="matrix(1.00, 0.00, -0.00, -1.00, 515.1, 517.9)">t</text></g></g><path d="M 232.0 555.4 C 267.9 555.4 297.0 541.0 297.0 523.4 C 297.0 514.3 289.3 506.2 277.1 500.4 L 296.2 478.6 L 256.8 493.8 C 249.2 492.3 240.8 491.4 232.0 491.4 C 196.1 491.4 167.0 505.7 167.0 523.4 C 167.0 541.0 196.1 555.4 232.0 555.4 Z M 232.0 555.4 " fill="#FEFFFE"></path><path d="M 65.0 0.0 C 100.9 0.0 130.0 14.3 130.0 32.0 C 130.0 41.0 122.3 49.2 110.1 55.0 L 129.2 76.8 L 89.8 61.6 C 82.2 63.1 73.8 64.0 65.0 64.0 C 29.1 64.0 -0.0 49.7 -0.0 32.0 C -0.0 14.3 29.1 0.0 65.0 0.0 Z M 65.0 0.0 " fill="none" stroke="#FEFFFF" stroke-width="2.00" transform="matrix(1.00, 0.00, 0.00, -1.00, 167.0, 555.4)"></path><image xlink:href="../../856E68D5-3E1F-49FB-9CFE-257A60947E97/assets/A4629313E1AF628F64F979A3160793EE.png" width="62.00" height="16.00" transform="matrix(1.00, 0.00, -0.00, -1.00, 202.0, 530.0)"></image><g><clipPath id="clip0x7fe10bcbaf50"><path d="M 167.0 491.4 L 297.0 491.4 L 297.0 555.4 L 167.0 555.4 Z M 167.0 491.4 "></path></clipPath><g clip-path="url(#clip0x7fe10bcbaf50)"><text xml:space="preserve" font-family="Helvetica-Bold,Helvetica" font-weight="bold" font-size="14.0" fill="#000000" transform="matrix(1.00, 0.00, -0.00, -1.00, 202.8, 517.9)">D</text><text xml:space="preserve" font-family="Helvetica-Bold,Helvetica" font-weight="bold" font-size="14.0" fill="#000000" transform="matrix(1.00, 0.00, -0.00, -1.00, 212.9, 517.9)">e</text><text xml:space="preserve" font-family="Helvetica-Bold,Helvetica" font-weight="bold" font-size="14.0" fill="#000000" transform="matrix(1.00, 0.00, -0.00, -1.00, 220.7, 517.9)">c</text><text xml:space="preserve" font-family="Helvetica-Bold,Helvetica" font-weight="bold" font-size="14.0" fill="#000000" transform="matrix(1.00, 0.00, -0.00, -1.00, 228.5, 517.9)">i</text><text xml:space="preserve" font-family="Helvetica-Bold,Helvetica" font-weight="bold" font-size="14.0" fill="#000000" transform="matrix(1.00, 0.00, -0.00, -1.00, 232.4, 517.9)">s</text><text xml:space="preserve" font-family="Helvetica-Bold,Helvetica" font-weight="bold" font-size="14.0" fill="#000000" transform="matrix(1.00, 0.00, -0.00, -1.00, 240.2, 517.9)">i</text><text xml:space="preserve" font-family="Helvetica-Bold,Helvetica" font-weight="bold" font-size="14.0" fill="#000000" transform="matrix(1.00, 0.00, -0.00, -1.00, 244.1, 517.9)">o</text><text xml:space="preserve" font-family="Helvetica-Bold,Helvetica" font-weight="bold" font-size="14.0" fill="#000000" transform="matrix(1.00, 0.00, -0.00, -1.00, 252.6, 517.9)">n</text></g></g><path d="M 484.0 212.6 C 448.1 212.6 419.0 226.9 419.0 244.6 C 419.0 253.7 426.7 261.8 438.9 267.7 L 419.8 289.4 L 459.2 274.2 C 466.9 275.8 475.2 276.7 484.0 276.7 C 519.9 276.7 549.0 262.3 549.0 244.6 C 549.0 226.9 519.9 212.6 484.0 212.6 Z M 484.0 212.6 " fill="#FEFFFE"></path><path d="M 65.0 64.0 C 29.1 64.0 0.0 49.7 0.0 32.0 C 0.0 23.0 7.7 14.8 19.9 9.0 L 0.8 -12.8 L 40.2 2.4 C 47.9 0.9 56.2 -0.0 65.0 -0.0 C 100.9 -0.0 130.0 14.3 130.0 32.0 C 130.0 49.7 100.9 64.0 65.0 64.0 Z M 65.0 64.0 " fill="none" stroke="#FEFFFF" stroke-width="2.00" transform="matrix(1.00, 0.00, 0.00, -1.00, 419.0, 276.6)"></path><image xlink:href="../../856E68D5-3E1F-49FB-9CFE-257A60947E97/assets/270D3268759A7884709C749D69622AAD.png" width="63.00" height="15.00" transform="matrix(1.00, 0.00, -0.00, -1.00, 454.0, 259.0)"></image><g><clipPath id="clip0x7fe10bcc0b70"><path d="M 419.0 212.6 L 549.0 212.6 L 549.0 276.6 L 419.0 276.6 Z M 419.0 212.6 "></path></clipPath><g clip-path="url(#clip0x7fe10bcc0b70)"><text xml:space="preserve" font-family="Helvetica-Bold,Helvetica" font-weight="bold" font-size="14.0" fill="#000000" transform="matrix(1.00, 0.00, -0.00, -1.00, 454.4, 247.6)">S</text><text xml:space="preserve" font-family="Helvetica-Bold,Helvetica" font-weight="bold" font-size="14.0" fill="#000000" transform="matrix(1.00, 0.00, -0.00, -1.00, 463.8, 247.6)">c</text><text xml:space="preserve" font-family="Helvetica-Bold,Helvetica" font-weight="bold" font-size="14.0" fill="#000000" transform="matrix(1.00, 0.00, -0.00, -1.00, 471.6, 247.6)">e</text><text xml:space="preserve" font-family="Helvetica-Bold,Helvetica" font-weight="bold" font-size="14.0" fill="#000000" transform="matrix(1.00, 0.00, -0.00, -1.00, 479.3, 247.6)">n</text><text xml:space="preserve" font-family="Helvetica-Bold,Helvetica" font-weight="bold" font-size="14.0" fill="#000000" transform="matrix(1.00, 0.00, -0.00, -1.00, 487.9, 247.6)">a</text><text xml:space="preserve" font-family="Helvetica-Bold,Helvetica" font-weight="bold" font-size="14.0" fill="#000000" transform="matrix(1.00, 0.00, -0.00, -1.00, 495.7, 247.6)">r</text><text xml:space="preserve" font-family="Helvetica-Bold,Helvetica" font-weight="bold" font-size="14.0" fill="#000000" transform="matrix(1.00, 0.00, -0.00, -1.00, 501.1, 247.6)">i</text><text xml:space="preserve" font-family="Helvetica-Bold,Helvetica" font-weight="bold" font-size="14.0" fill="#000000" transform="matrix(1.00, 0.00, -0.00, -1.00, 505.0, 247.6)">o</text><text xml:space="preserve" font-family="Helvetica-Bold,Helvetica" font-weight="bold" font-size="14.0" fill="#000000" transform="matrix(1.00, 0.00, -0.00, -1.00, 513.6, 247.6)"> </text></g></g><image xlink:href="../../856E68D5-3E1F-49FB-9CFE-257A60947E97/assets/801CAAE8A0D63986674F25F4BBF438AA.png" width="78.00" height="15.00" transform="matrix(1.00, 0.00, -0.00, -1.00, 446.0, 242.0)"></image><g><clipPath id="clip0x7fe10bcc61c0"><path d="M 419.0 212.6 L 549.0 212.6 L 549.0 276.6 L 419.0 276.6 Z M 419.0 212.6 "></path></clipPath><g clip-path="url(#clip0x7fe10bcc61c0)"><text xml:space="preserve" font-family="Helvetica-Bold,Helvetica" font-weight="bold" font-size="14.0" fill="#000000" transform="matrix(1.00, 0.00, -0.00, -1.00, 447.0, 230.6)">G</text><text xml:space="preserve" font-family="Helvetica-Bold,Helvetica" font-weight="bold" font-size="14.0" fill="#000000" transform="matrix(1.00, 0.00, -0.00, -1.00, 457.9, 230.6)">e</text><text xml:space="preserve" font-family="Helvetica-Bold,Helvetica" font-weight="bold" font-size="14.0" fill="#000000" transform="matrix(1.00, 0.00, -0.00, -1.00, 465.7, 230.6)">n</text><text xml:space="preserve" font-family="Helvetica-Bold,Helvetica" font-weight="bold" font-size="14.0" fill="#000000" transform="matrix(1.00, 0.00, -0.00, -1.00, 474.3, 230.6)">e</text><text xml:space="preserve" font-family="Helvetica-Bold,Helvetica" font-weight="bold" font-size="14.0" fill="#000000" transform="matrix(1.00, 0.00, -0.00, -1.00, 482.1, 230.6)">r</text><text xml:space="preserve" font-family="Helvetica-Bold,Helvetica" font-weight="bold" font-size="14.0" fill="#000000" transform="matrix(1.00, 0.00, -0.00, -1.00, 487.5, 230.6)">a</text><text xml:space="preserve" font-family="Helvetica-Bold,Helvetica" font-weight="bold" font-size="14.0" fill="#000000" transform="matrix(1.00, 0.00, -0.00, -1.00, 495.3, 230.6)">t</text><text xml:space="preserve" font-family="Helvetica-Bold,Helvetica" font-weight="bold" font-size="14.0" fill="#000000" transform="matrix(1.00, 0.00, -0.00, -1.00, 500.0, 230.6)">i</text><text xml:space="preserve" font-family="Helvetica-Bold,Helvetica" font-weight="bold" font-size="14.0" fill="#000000" transform="matrix(1.00, 0.00, -0.00, -1.00, 503.9, 230.6)">o</text><text xml:space="preserve" font-family="Helvetica-Bold,Helvetica" font-weight="bold" font-size="14.0" fill="#000000" transform="matrix(1.00, 0.00, -0.00, -1.00, 512.4, 230.6)">n</text></g></g><path d="M 232.0 211.4 C 270.5 211.4 301.6 226.0 301.6 243.9 C 301.6 253.2 293.3 261.5 280.1 267.4 L 300.8 289.4 L 258.7 274.0 C 250.5 275.6 241.5 276.5 232.0 276.5 C 193.5 276.5 162.4 261.9 162.4 243.9 C 162.4 226.0 193.5 211.4 232.0 211.4 Z M 232.0 211.4 " fill="#FEFFFE"></path><path d="M 69.6 65.0 C 108.1 65.0 139.2 50.5 139.2 32.5 C 139.2 23.3 130.9 15.0 117.7 9.1 L 138.4 -13.0 L 96.3 2.5 C 88.1 0.9 79.1 -0.0 69.6 -0.0 C 31.2 -0.0 -0.0 14.6 -0.0 32.5 C -0.0 50.5 31.2 65.0 69.6 65.0 Z M 69.6 65.0 " fill="none" stroke="#FEFFFF" stroke-width="2.00" transform="matrix(1.00, 0.00, 0.00, -1.00, 162.4, 276.5)"></path><image xlink:href="../../856E68D5-3E1F-49FB-9CFE-257A60947E97/assets/561A1E866E9E99D23D741475B2E014F0.png" width="63.00" height="16.00" transform="matrix(1.00, 0.00, -0.00, -1.00, 202.0, 259.0)"></image><g><clipPath id="clip0x7fe10bccea40"><path d="M 162.4 211.4 L 301.6 211.4 L 301.6 276.5 L 162.4 276.5 Z M 162.4 211.4 "></path></clipPath><g clip-path="url(#clip0x7fe10bccea40)"><text xml:space="preserve" font-family="Helvetica-Bold,Helvetica" font-weight="bold" font-size="14.0" fill="#000000" transform="matrix(1.00, 0.00, -0.00, -1.00, 202.4, 247.2)">S</text><text xml:space="preserve" font-family="Helvetica-Bold,Helvetica" font-weight="bold" font-size="14.0" fill="#000000" transform="matrix(1.00, 0.00, -0.00, -1.00, 211.8, 247.2)">c</text><text xml:space="preserve" font-family="Helvetica-Bold,Helvetica" font-weight="bold" font-size="14.0" fill="#000000" transform="matrix(1.00, 0.00, -0.00, -1.00, 219.6, 247.2)">e</text><text xml:space="preserve" font-family="Helvetica-Bold,Helvetica" font-weight="bold" font-size="14.0" fill="#000000" transform="matrix(1.00, 0.00, -0.00, -1.00, 227.4, 247.2)">n</text><text xml:space="preserve" font-family="Helvetica-Bold,Helvetica" font-weight="bold" font-size="14.0" fill="#000000" transform="matrix(1.00, 0.00, -0.00, -1.00, 235.9, 247.2)">a</text><text xml:space="preserve" font-family="Helvetica-Bold,Helvetica" font-weight="bold" font-size="14.0" fill="#000000" transform="matrix(1.00, 0.00, -0.00, -1.00, 243.7, 247.2)">r</text><text xml:space="preserve" font-family="Helvetica-Bold,Helvetica" font-weight="bold" font-size="14.0" fill="#000000" transform="matrix(1.00, 0.00, -0.00, -1.00, 249.1, 247.2)">i</text><text xml:space="preserve" font-family="Helvetica-Bold,Helvetica" font-weight="bold" font-size="14.0" fill="#000000" transform="matrix(1.00, 0.00, -0.00, -1.00, 253.0, 247.2)">o</text><text xml:space="preserve" font-family="Helvetica-Bold,Helvetica" font-weight="bold" font-size="14.0" fill="#000000" transform="matrix(1.00, 0.00, -0.00, -1.00, 261.6, 247.2)"> </text></g></g><image xlink:href="../../856E68D5-3E1F-49FB-9CFE-257A60947E97/assets/36A36DA212850D22681F8C099D78A1DE.png" width="88.00" height="18.00" transform="matrix(1.00, 0.00, -0.00, -1.00, 189.0, 242.0)"></image><g><clipPath id="clip0x7fe10bcd3200"><path d="M 162.4 211.4 L 301.6 211.4 L 301.6 276.5 L 162.4 276.5 Z M 162.4 211.4 "></path></clipPath><g clip-path="url(#clip0x7fe10bcd3200)"><text xml:space="preserve" font-family="Helvetica-Bold,Helvetica" font-weight="bold" font-size="14.0" fill="#000000" transform="matrix(1.00, 0.00, -0.00, -1.00, 189.6, 230.2)">O</text><text xml:space="preserve" font-family="Helvetica-Bold,Helvetica" font-weight="bold" font-size="14.0" fill="#000000" transform="matrix(1.00, 0.00, -0.00, -1.00, 200.5, 230.2)">p</text><text xml:space="preserve" font-family="Helvetica-Bold,Helvetica" font-weight="bold" font-size="14.0" fill="#000000" transform="matrix(1.00, 0.00, -0.00, -1.00, 209.1, 230.2)">t</text><text xml:space="preserve" font-family="Helvetica-Bold,Helvetica" font-weight="bold" font-size="14.0" fill="#000000" transform="matrix(1.00, 0.00, -0.00, -1.00, 213.7, 230.2)">i</text><text xml:space="preserve" font-family="Helvetica-Bold,Helvetica" font-weight="bold" font-size="14.0" fill="#000000" transform="matrix(1.00, 0.00, -0.00, -1.00, 217.6, 230.2)">m</text><text xml:space="preserve" font-family="Helvetica-Bold,Helvetica" font-weight="bold" font-size="14.0" fill="#000000" transform="matrix(1.00, 0.00, -0.00, -1.00, 230.1, 230.2)">i</text><text xml:space="preserve" font-family="Helvetica-Bold,Helvetica" font-weight="bold" font-size="14.0" fill="#000000" transform="matrix(1.00, 0.00, -0.00, -1.00, 233.9, 230.2)">z</text><text xml:space="preserve" font-family="Helvetica-Bold,Helvetica" font-weight="bold" font-size="14.0" fill="#000000" transform="matrix(1.00, 0.00, -0.00, -1.00, 240.9, 230.2)">a</text><text xml:space="preserve" font-family="Helvetica-Bold,Helvetica" font-weight="bold" font-size="14.0" fill="#000000" transform="matrix(1.00, 0.00, -0.00, -1.00, 248.7, 230.2)">t</text><text xml:space="preserve" font-family="Helvetica-Bold,Helvetica" font-weight="bold" font-size="14.0" fill="#000000" transform="matrix(1.00, 0.00, -0.00, -1.00, 253.4, 230.2)">i</text><text xml:space="preserve" font-family="Helvetica-Bold,Helvetica" font-weight="bold" font-size="14.0" fill="#000000" transform="matrix(1.00, 0.00, -0.00, -1.00, 257.3, 230.2)">o</text><text xml:space="preserve" font-family="Helvetica-Bold,Helvetica" font-weight="bold" font-size="14.0" fill="#000000" transform="matrix(1.00, 0.00, -0.00, -1.00, 265.8, 230.2)">n</text></g></g><path d="M 102.0 352.0 C 66.1 352.0 37.0 366.3 37.0 384.0 C 37.0 401.7 66.1 416.0 102.0 416.0 C 132.5 416.0 158.1 405.6 165.1 391.7 L 199.5 382.7 L 164.1 374.5 C 155.8 361.5 131.2 352.0 102.0 352.0 Z M 102.0 352.0 " fill="#FEFFFE"></path><path d="M 65.0 64.0 C 29.1 64.0 0.0 49.7 0.0 32.0 C 0.0 14.3 29.1 -0.0 65.0 -0.0 C 95.5 -0.0 121.1 10.4 128.1 24.3 L 162.5 33.3 L 127.1 41.5 C 118.8 54.6 94.2 64.0 65.0 64.0 Z M 65.0 64.0 " fill="none" stroke="#FEFFFF" stroke-width="2.00" transform="matrix(1.00, 0.00, 0.00, -1.00, 37.0, 416.0)"></path><image xlink:href="../../856E68D5-3E1F-49FB-9CFE-257A60947E97/assets/DEC1449547DD7CC315299FB3AFD4AB84.png" width="85.00" height="18.00" transform="matrix(1.00, 0.00, -0.00, -1.00, 61.0, 390.0)"></image><g><clipPath id="clip0x7fe10bcdb180"><path d="M 37.0 352.0 L 167.0 352.0 L 167.0 416.0 L 37.0 416.0 Z M 37.0 352.0 "></path></clipPath><g clip-path="url(#clip0x7fe10bcdb180)"><text xml:space="preserve" font-family="Helvetica-Bold,Helvetica" font-weight="bold" font-size="14.0" fill="#000000" transform="matrix(1.00, 0.00, -0.00, -1.00, 61.2, 378.5)">P</text><text xml:space="preserve" font-family="Helvetica-Bold,Helvetica" font-weight="bold" font-size="14.0" fill="#000000" transform="matrix(1.00, 0.00, -0.00, -1.00, 70.5, 378.5)">o</text><text xml:space="preserve" font-family="Helvetica-Bold,Helvetica" font-weight="bold" font-size="14.0" fill="#000000" transform="matrix(1.00, 0.00, -0.00, -1.00, 79.1, 378.5)">o</text><text xml:space="preserve" font-family="Helvetica-Bold,Helvetica" font-weight="bold" font-size="14.0" fill="#000000" transform="matrix(1.00, 0.00, -0.00, -1.00, 87.6, 378.5)">l</text><text xml:space="preserve" font-family="Helvetica-Bold,Helvetica" font-weight="bold" font-size="14.0" fill="#000000" transform="matrix(1.00, 0.00, -0.00, -1.00, 91.5, 378.5)"> </text><text xml:space="preserve" font-family="Helvetica-Bold,Helvetica" font-weight="bold" font-size="14.0" fill="#000000" transform="matrix(1.00, 0.00, -0.00, -1.00, 95.4, 378.5)">U</text><text xml:space="preserve" font-family="Helvetica-Bold,Helvetica" font-weight="bold" font-size="14.0" fill="#000000" transform="matrix(1.00, 0.00, -0.00, -1.00, 105.5, 378.5)">p</text><text xml:space="preserve" font-family="Helvetica-Bold,Helvetica" font-weight="bold" font-size="14.0" fill="#000000" transform="matrix(1.00, 0.00, -0.00, -1.00, 114.0, 378.5)">d</text><text xml:space="preserve" font-family="Helvetica-Bold,Helvetica" font-weight="bold" font-size="14.0" fill="#000000" transform="matrix(1.00, 0.00, -0.00, -1.00, 122.6, 378.5)">a</text><text xml:space="preserve" font-family="Helvetica-Bold,Helvetica" font-weight="bold" font-size="14.0" fill="#000000" transform="matrix(1.00, 0.00, -0.00, -1.00, 130.4, 378.5)">t</text><text xml:space="preserve" font-family="Helvetica-Bold,Helvetica" font-weight="bold" font-size="14.0" fill="#000000" transform="matrix(1.00, 0.00, -0.00, -1.00, 135.0, 378.5)">e</text></g></g><image xlink:href="../../856E68D5-3E1F-49FB-9CFE-257A60947E97/assets/0DC7ABD5B28C04F9C1422522B98E222B.png" width="178.00" height="70.00" transform="matrix(1.00, 0.00, -0.00, -1.01, 582.0, 419.2)" opacity="0.80"></image><g><clipPath id="clip0x7fe10bd3e010"><path d="M 710.0 378.0 L 710.0 356.6 L 752.0 384.0 L 710.0 411.4 L 710.0 390.0 L 589.0 390.0 L 589.0 378.0 Z M 710.1 377.6 "></path></clipPath><g clip-path="url(#clip0x7fe10bd3e010)"><path d="M 710.0 378.0 L 710.0 356.6 L 752.0 384.0 L 710.0 411.4 L 710.0 390.0 L 589.0 390.0 L 589.0 378.0 Z M 710.1 377.6 " fill="url(#gradSh1.11)"></path></g></g><path d="M 121.0 33.4 L 121.0 54.7 L 163.0 27.4 L 121.0 0.0 L 121.0 21.4 L 0.0 21.4 L 0.0 33.4 Z M 121.1 33.7 " fill="none" stroke="#FEFFFF" stroke-width="2.00" transform="matrix(1.00, 0.00, 0.00, -1.00, 589.0, 411.4)"></path></g></svg>