<?xml version="1.0" encoding="UTF-8" standalone="no"?><svg xmlns="http://www.w3.org/2000/svg" xmlns:xlink="http://www.w3.org/1999/xlink" clip-rule="evenodd" stroke-miterlimit="10" viewBox="0 0 180 74"><desc>SVG generated by Keynote</desc><defs><linearGradient id="gradSh1.9" x1="0.0" y1="0.0" x2="100.0" y2="0.0" gradientUnits="userSpaceOnUse" gradientTransform="matrix(0.00, -0.57, -1.65, 0.00, 89.5, 65.4)"><stop offset="0.00000" stop-color="#A6AAA8"></stop><stop offset="0.00806" stop-color="#A6A9A8"></stop><stop offset="0.46628" stop-color="#7F8486"></stop><stop offset="0.46994" stop-color="#7F8386"></stop><stop offset="0.55865" stop-color="#787C7F"></stop><stop offset="0.56232" stop-color="#777C7F"></stop><stop offset="1.00000" stop-color="#53585F"></stop></linearGradient></defs><g transform="matrix(1.00, 0.00, -0.00, -1.00, 0.0, 74.0)"><image xlink:href="0DC7ABD5B28C04F9C1422522B98E222B.png" width="178.00" height="70.00" transform="matrix(1.00, 0.00, -0.00, -1.01, 1.0, 72.2)" opacity="0.80"></image><g><clipPath id="clip0x7fe10ba499e0"><path d="M 129.0 31.0 L 129.0 9.6 L 171.0 37.0 L 129.0 64.4 L 129.0 43.0 L 8.0 43.0 L 8.0 31.0 Z M 129.1 30.6 "></path></clipPath><g clip-path="url(#clip0x7fe10ba499e0)"><path d="M 129.0 31.0 L 129.0 9.6 L 171.0 37.0 L 129.0 64.4 L 129.0 43.0 L 8.0 43.0 L 8.0 31.0 Z M 129.1 30.6 " fill="url(#gradSh1.9)"></path></g></g><path d="M 121.0 33.4 L 121.0 54.7 L 163.0 27.4 L 121.0 0.0 L 121.0 21.4 L 0.0 21.4 L 0.0 33.4 Z M 121.1 33.7 " fill="none" stroke="#FEFFFF" stroke-width="2.00" transform="matrix(1.00, 0.00, 0.00, -1.00, 8.0, 64.4)"></path></g></svg>