<?xml version="1.0" encoding="UTF-8" standalone="no"?><svg xmlns="http://www.w3.org/2000/svg" xmlns:xlink="http://www.w3.org/1999/xlink" clip-rule="evenodd" stroke-miterlimit="10" viewBox="0 0 1024 768"><desc>SVG generated by Keynote</desc><defs></defs><g transform="matrix(1.00, 0.00, -0.00, -1.00, 0.0, 768.0)"><g><clipPath id="clip0x7f8c8a495a00"><path d="M 0.0 768.0 L 1024.0 768.0 L 1024.0 0.0 L 0.0 0.0 Z M 0.0 768.0 "></path></clipPath><g clip-path="url(#clip0x7f8c8a495a00)"><image xlink:href="../../8B133F28-6561-4BEE-89B3-D80F66C4E22A/assets/EC11ABC5F29D162147B74F3E30388275.jpeg" width="2048.00" height="1536.00" transform="matrix(0.50, 0.00, -0.00, -0.50, 0.0, 768.0)"></image></g></g><g><clipPath id="clip0x7f8c8a3eccd0"><path d="M 369.0 550.0 L 534.0 550.0 L 534.0 257.0 L 369.0 257.0 Z M 369.4 550.1 "></path></clipPath><g clip-path="url(#clip0x7f8c8a3eccd0)"><image xlink:href="BB42D6E2952537912AA88593A9D85E8C.png" width="720.00" height="1280.00" transform="matrix(0.23, 0.00, -0.00, -0.23, 369.0, 550.0)"></image></g></g><image xlink:href="91156D3144B9C389E0F9326D4E670DD6.png" width="960.00" height="1280.00" transform="matrix(0.08, 0.00, -0.00, -0.08, 487.0, 580.0)"></image><image xlink:href="BFD05C9835C50ED55DFF0FE20D61578D.png" width="960.00" height="1280.00" transform="matrix(0.00, 0.10, 0.10, -0.00, 463.0, 236.0)"></image><image xlink:href="666195266162F481D2FD0BD5A557E584.png" width="960.00" height="1280.00" transform="matrix(0.09, 0.00, -0.00, -0.09, 360.0, 575.0)"></image></g></svg>