<?xml version="1.0" encoding="UTF-8" standalone="no"?><svg xmlns="http://www.w3.org/2000/svg" xmlns:xlink="http://www.w3.org/1999/xlink" clip-rule="evenodd" stroke-miterlimit="10" viewBox="0 0 1024 768"><desc>SVG generated by Keynote</desc><defs></defs><g transform="matrix(1.00, 0.00, -0.00, -1.00, 0.0, 768.0)"><g><clipPath id="clip0x7f8c8a3e4f60"><path d="M 0.0 768.0 L 1024.0 768.0 L 1024.0 0.0 L 0.0 0.0 Z M 0.0 768.0 "></path></clipPath><g clip-path="url(#clip0x7f8c8a3e4f60)"><image xlink:href="../../8B133F28-6561-4BEE-89B3-D80F66C4E22A/assets/EC11ABC5F29D162147B74F3E30388275.jpeg" width="2048.00" height="1536.00" transform="matrix(0.50, 0.00, -0.00, -0.50, 0.0, 768.0)"></image></g></g><text xml:space="preserve" font-family="Chalkduster,Chalkduster" font-size="72.0" fill="#FEFFFE" transform="matrix(1.00, 0.00, -0.00, -1.00, 198.9, 50.8)">2</text><text xml:space="preserve" font-family="Chalkduster,Chalkduster" font-size="72.0" fill="#FEFFFE" transform="matrix(1.00, 0.00, -0.00, -1.00, 239.4, 50.8)">0</text><text xml:space="preserve" font-family="Chalkduster,Chalkduster" font-size="72.0" fill="#FEFFFE" transform="matrix(1.00, 0.00, -0.00, -1.00, 289.0, 50.8)">1</text><text xml:space="preserve" font-family="Chalkduster,Chalkduster" font-size="72.0" fill="#FEFFFE" transform="matrix(1.00, 0.00, -0.00, -1.00, 332.5, 50.8)">3</text><text xml:space="preserve" font-family="Chalkduster,Chalkduster" font-size="72.0" fill="#FEFFFE" transform="matrix(1.00, 0.00, -0.00, -1.00, 382.0, 50.8)">…</text><text xml:space="preserve" font-family="Chalkduster,Chalkduster" font-size="72.0" fill="#FEFFFE" transform="matrix(1.00, 0.00, -0.00, -1.00, 453.5, 50.8)">X</text><text xml:space="preserve" font-family="Chalkduster,Chalkduster" font-size="72.0" fill="#FEFFFE" transform="matrix(1.00, 0.00, -0.00, -1.00, 497.1, 50.8)">i</text><text xml:space="preserve" font-family="Chalkduster,Chalkduster" font-size="72.0" fill="#FEFFFE" transform="matrix(1.00, 0.00, -0.00, -1.00, 526.2, 50.8)">a</text><text xml:space="preserve" font-family="Chalkduster,Chalkduster" font-size="72.0" fill="#FEFFFE" transform="matrix(1.00, 0.00, -0.00, -1.00, 575.9, 50.8)">n</text><text xml:space="preserve" font-family="Chalkduster,Chalkduster" font-size="72.0" fill="#FEFFFE" transform="matrix(1.00, 0.00, -0.00, -1.00, 626.5, 50.8)">g</text><text xml:space="preserve" font-family="Chalkduster,Chalkduster" font-size="72.0" fill="#FEFFFE" transform="matrix(1.00, 0.00, -0.00, -1.00, 711.4, 50.8)">S</text><text xml:space="preserve" font-family="Chalkduster,Chalkduster" font-size="72.0" fill="#FEFFFE" transform="matrix(1.00, 0.00, -0.00, -1.00, 747.2, 50.8)">u</text><text xml:space="preserve" font-family="Chalkduster,Chalkduster" font-size="72.0" fill="#FEFFFE" transform="matrix(1.00, 0.00, -0.00, -1.00, 796.7, 50.8)">i</text><image xlink:href="../../12FEEC8A-C78E-47B5-A3B1-3E30C891F578/assets/6A945E287577B1650D7060EEB3162965.jpeg" width="3264.00" height="2448.00" transform="matrix(0.00, -0.15, -0.15, 0.00, 663.0, 644.0)"></image><image xlink:href="../../12FEEC8A-C78E-47B5-A3B1-3E30C891F578/assets/76346EA3CB40D736124322161758DFC0.jpeg" width="1280.00" height="960.00" transform="matrix(0.00, 0.26, 0.26, -0.00, 645.0, 424.0)"></image><image xlink:href="../../12FEEC8A-C78E-47B5-A3B1-3E30C891F578/assets/B1D28F0DCB43749D91261DA0DBA08D85.jpeg" width="3264.00" height="2448.00" transform="matrix(0.00, -0.10, -0.10, 0.00, 343.0, 415.0)"></image><image xlink:href="../../12FEEC8A-C78E-47B5-A3B1-3E30C891F578/assets/BDF4B46935FD5485FA3F9B6FF34C4809.jpeg" width="3264.00" height="2448.00" transform="matrix(0.00, -0.09, -0.09, 0.00, 866.0, 404.0)"></image><image xlink:href="../../12FEEC8A-C78E-47B5-A3B1-3E30C891F578/assets/15895A254ABE3732B6512BBD9DA4CD35.jpeg" width="3264.00" height="2448.00" transform="matrix(0.00, 0.10, 0.10, -0.00, 72.0, 424.0)"></image></g></svg>