<?xml version="1.0" encoding="UTF-8" standalone="no"?><svg xmlns="http://www.w3.org/2000/svg" xmlns:xlink="http://www.w3.org/1999/xlink" clip-rule="evenodd" stroke-miterlimit="10" viewBox="0 0 89 50"><desc>SVG generated by Keynote</desc><defs></defs><g transform="matrix(1.00, 0.00, -0.00, -1.00, 0.0, 50.0)"><image xlink:href="../../B02E24ED-8989-44EB-BE2D-9DF72DDE784B/assets/9723B52B7E00D374C90A994E76E4BC76.png" width="86.00" height="43.00" transform="matrix(1.00, 0.00, -0.00, -1.01, 1.7, 45.0)" opacity="0.50"></image><g><clipPath id="clip0x7fe10ad6a2d0"><path d="M 5.0 44.0 L 85.0 44.0 L 85.0 7.0 L 5.0 7.0 Z M 4.7 44.0 "></path></clipPath><g clip-path="url(#clip0x7fe10ad6a2d0)"><image xlink:href="../../3E3B11BC-EB67-4695-BF98-B7E2DDAB4D21/assets/4B339DEB8C1CA0CF7071ACA74F0502BB.png" width="600.00" height="600.00" transform="matrix(0.50, 0.00, -0.00, -0.50, 5.0, 44.0)"></image></g></g><g><clipPath id="clip0x7fe10ad6c700"><path d="M 4.2 6.7 L 85.2 6.7 L 85.2 44.0 L 4.2 44.0 Z M 4.2 6.7 "></path></clipPath><g clip-path="url(#clip0x7fe10ad6c700)"><text xml:space="preserve" font-family="Helvetica-Light,Helvetica" font-size="18.0" fill="#FEFFFF" transform="matrix(1.00, 0.00, -0.00, -1.00, 14.7, 18.1)">E</text><text xml:space="preserve" font-family="Helvetica-Light,Helvetica" font-size="18.0" fill="#FEFFFF" transform="matrix(1.00, 0.00, -0.00, -1.00, 25.7, 18.1)">v</text><text xml:space="preserve" font-family="Helvetica-Light,Helvetica" font-size="18.0" fill="#FEFFFF" transform="matrix(1.00, 0.00, -0.00, -1.00, 34.7, 18.1)">e</text><text xml:space="preserve" font-family="Helvetica-Light,Helvetica" font-size="18.0" fill="#FEFFFF" transform="matrix(1.00, 0.00, -0.00, -1.00, 44.7, 18.1)">n</text><text xml:space="preserve" font-family="Helvetica-Light,Helvetica" font-size="18.0" fill="#FEFFFF" transform="matrix(1.00, 0.00, -0.00, -1.00, 54.7, 18.1)">t</text><text xml:space="preserve" font-family="Helvetica-Light,Helvetica" font-size="18.0" fill="#FEFFFF" transform="matrix(1.00, 0.00, -0.00, -1.00, 59.7, 18.1)"> </text><text xml:space="preserve" font-family="Helvetica-Light,Helvetica" font-size="18.0" fill="#FEFFFF" transform="matrix(1.00, 0.00, -0.00, -1.00, 64.7, 18.1)">3</text></g></g></g></svg>