<?xml version="1.0" encoding="UTF-8" standalone="no"?><svg xmlns="http://www.w3.org/2000/svg" xmlns:xlink="http://www.w3.org/1999/xlink" clip-rule="evenodd" stroke-miterlimit="10" viewBox="0 0 76 48"><desc>SVG generated by Keynote</desc><defs></defs><g transform="matrix(1.00, 0.00, -0.00, -1.00, 0.0, 48.0)"><image xlink:href="../../B02E24ED-8989-44EB-BE2D-9DF72DDE784B/assets/7508E136E5999E366F546A66BAA3554E.png" width="71.00" height="45.00" transform="matrix(1.00, 0.00, -0.00, -1.00, 3.3, 47.0)" opacity="0.50"></image><g><clipPath id="clip0x7fe10ad73dd0"><path d="M 6.0 43.0 L 69.0 43.0 L 69.0 6.0 L 6.0 6.0 Z M 6.3 43.0 "></path></clipPath><g clip-path="url(#clip0x7fe10ad73dd0)"><image xlink:href="../../3E3B11BC-EB67-4695-BF98-B7E2DDAB4D21/assets/7601905A8B384AC9F603FFE45E5675BE.png" width="600.00" height="600.00" transform="matrix(0.50, 0.00, -0.00, -0.50, 6.0, 43.0)"></image></g></g><g><clipPath id="clip0x7fe10ad764a0"><path d="M 5.8 5.7 L 69.5 5.7 L 69.5 43.0 L 5.8 43.0 Z M 5.8 5.7 "></path></clipPath><g clip-path="url(#clip0x7fe10ad764a0)"><text xml:space="preserve" font-family="Helvetica-Light,Helvetica" font-size="18.0" fill="#FEFFFF" transform="matrix(1.00, 0.00, -0.00, -1.00, 15.1, 17.1)">F</text><text xml:space="preserve" font-family="Helvetica-Light,Helvetica" font-size="18.0" fill="#FEFFFF" transform="matrix(1.00, 0.00, -0.00, -1.00, 25.2, 17.1)">e</text><text xml:space="preserve" font-family="Helvetica-Light,Helvetica" font-size="18.0" fill="#FEFFFF" transform="matrix(1.00, 0.00, -0.00, -1.00, 35.2, 17.1)">t</text><text xml:space="preserve" font-family="Helvetica-Light,Helvetica" font-size="18.0" fill="#FEFFFF" transform="matrix(1.00, 0.00, -0.00, -1.00, 40.2, 17.1)">c</text><text xml:space="preserve" font-family="Helvetica-Light,Helvetica" font-size="18.0" fill="#FEFFFF" transform="matrix(1.00, 0.00, -0.00, -1.00, 50.2, 17.1)">h</text></g></g></g></svg>