<?xml version="1.0" encoding="UTF-8" standalone="no"?><svg xmlns="http://www.w3.org/2000/svg" xmlns:xlink="http://www.w3.org/1999/xlink" clip-rule="evenodd" stroke-miterlimit="10" viewBox="0 0 215 119"><desc>SVG generated by Keynote</desc><defs></defs><g transform="matrix(1.00, 0.00, -0.00, -1.00, 0.0, 119.0)"><path d="M 167.2 35.7 C 167.6 35.6 169.1 35.0 169.1 34.9 C 168.5 35.2 167.3 35.6 167.2 35.7 C 167.2 35.7 167.2 35.7 167.2 35.7 Z M 164.2 37.1 C 164.8 36.9 166.0 36.3 166.3 36.1 C 165.7 36.4 164.4 36.9 164.2 37.1 C 164.2 37.1 164.2 37.1 164.2 37.1 Z M 168.7 34.8 C 169.5 34.4 171.0 33.9 171.3 33.6 C 170.5 34.0 169.0 34.6 168.7 34.8 C 168.7 34.8 168.7 34.8 168.7 34.8 Z M 127.1 54.8 C 127.4 54.6 128.9 54.0 128.9 53.9 C 128.3 54.2 127.1 54.6 127.1 54.8 C 127.1 54.8 127.1 54.8 127.1 54.8 Z M 135.3 50.9 C 135.9 50.7 137.1 50.2 137.4 50.0 C 136.8 50.3 135.5 50.7 135.3 50.9 C 135.3 50.9 135.3 50.9 135.3 50.9 Z M 140.2 48.8 C 141.3 48.3 142.6 47.8 142.3 47.8 C 142.0 48.1 140.3 48.7 140.2 48.8 C 140.2 48.8 140.2 48.8 140.2 48.8 Z M 166.0 31.2 C 164.8 31.8 163.9 32.1 163.1 32.5 C 159.0 34.3 165.3 31.8 166.0 31.2 C 166.0 31.2 166.0 31.2 166.0 31.2 Z M 148.6 44.8 C 147.8 45.2 147.2 45.5 146.8 45.7 C 147.6 45.4 148.6 45.0 148.6 44.8 C 148.6 44.8 148.6 44.8 148.6 44.8 Z M 155.6 41.7 C 155.8 41.7 160.0 39.8 162.3 38.8 C 160.3 39.6 155.4 41.7 155.6 41.7 C 155.6 41.7 155.6 41.7 155.6 41.7 Z M 156.2 35.4 C 153.5 36.7 149.2 38.5 147.2 39.4 C 145.3 40.3 150.8 38.0 155.8 35.8 C 160.8 33.7 156.5 35.3 158.6 34.3 C 160.6 33.4 156.6 35.1 154.6 36.0 C 152.6 36.9 155.9 35.5 156.2 35.4 C 156.2 35.4 156.2 35.4 156.2 35.4 Z M 156.2 35.0 C 157.2 34.6 158.0 34.2 158.5 33.9 C 157.5 34.3 156.5 34.7 156.2 35.0 C 156.2 35.0 156.2 35.0 156.2 35.0 Z M 12.0 100.2 C 12.8 101.1 15.5 100.8 18.3 100.3 C 19.0 100.2 19.7 100.0 20.5 99.9 C 25.4 98.2 30.3 96.4 35.1 94.5 C 36.0 94.1 37.0 93.7 38.0 93.3 C 40.9 92.1 43.9 90.8 46.8 89.6 C 47.8 89.2 48.8 88.8 49.8 88.3 C 53.4 86.9 56.7 85.3 60.2 83.8 C 62.0 83.1 63.8 82.4 65.6 81.7 C 66.6 81.4 70.4 79.7 71.8 79.0 C 70.5 79.8 76.9 76.9 76.6 77.1 C 77.3 76.7 78.0 76.3 78.7 76.0 C 79.5 75.6 78.5 76.0 77.6 76.4 C 78.4 76.0 79.2 75.6 80.1 75.2 C 81.0 74.9 81.8 74.5 82.8 74.1 C 85.8 72.9 89.0 71.4 91.7 70.1 C 99.3 66.9 120.0 57.8 116.2 59.4 C 112.0 61.2 114.1 60.2 115.2 59.7 C 115.9 59.4 116.8 59.0 117.8 58.5 C 117.8 58.6 117.7 58.6 117.6 58.7 C 119.5 57.9 122.2 56.9 124.8 55.7 C 124.3 55.9 123.6 56.1 123.4 56.2 C 124.7 55.6 123.6 56.0 124.5 55.6 C 126.9 54.5 128.0 54.0 125.2 55.2 C 127.8 54.0 129.4 53.1 131.9 51.8 C 132.8 51.4 132.3 51.7 132.0 51.8 C 133.8 51.2 137.6 49.5 138.0 49.4 C 138.4 49.3 127.5 53.9 129.5 53.2 C 130.3 52.9 131.9 52.1 132.5 51.9 C 131.2 52.5 129.5 53.2 128.6 53.7 C 129.6 53.3 130.9 52.7 131.7 52.4 C 130.7 52.8 130.1 53.1 129.8 53.2 C 131.2 52.7 132.2 52.2 133.8 51.5 C 134.5 51.2 133.2 51.7 134.7 51.1 C 134.9 50.9 133.7 51.5 133.8 51.4 C 135.0 50.8 137.4 49.8 138.0 49.5 C 138.6 49.2 136.5 50.1 136.5 50.1 C 141.2 48.0 146.6 45.7 148.2 45.0 C 149.9 44.2 148.3 44.9 147.6 45.2 C 149.5 44.3 151.0 43.6 153.3 42.6 C 154.8 42.0 154.2 42.2 153.6 42.4 C 154.0 42.3 154.4 42.1 154.6 42.0 C 154.7 41.9 155.2 41.7 155.4 41.6 C 154.5 41.9 152.8 42.7 152.1 43.0 C 153.4 42.3 156.7 41.0 157.8 40.4 C 155.9 41.2 153.9 42.1 151.8 42.9 C 155.9 41.1 160.2 39.5 163.4 37.9 C 162.8 38.1 162.5 38.2 162.0 38.4 C 163.3 37.9 165.2 37.1 166.3 36.5 C 166.9 36.3 168.1 35.7 169.3 35.1 C 167.2 36.0 165.7 36.6 164.2 37.3 C 164.2 37.3 164.4 37.2 164.6 37.1 C 161.2 38.4 159.4 39.5 157.0 40.6 C 156.8 40.6 156.6 40.7 156.5 40.8 C 155.6 41.0 158.4 39.9 158.6 39.7 C 155.1 41.2 151.2 42.9 149.5 43.6 C 153.6 41.7 157.4 40.2 160.5 38.7 C 159.6 39.0 156.5 40.4 154.9 41.0 C 161.8 37.9 162.5 37.6 163.0 37.4 C 162.5 37.6 162.0 37.8 161.4 38.0 C 161.6 38.0 161.7 37.9 161.8 37.8 C 164.8 36.5 168.4 34.9 168.2 35.0 C 168.1 35.0 165.3 36.2 162.3 37.5 C 162.6 37.3 162.9 37.1 163.2 36.9 C 166.6 35.4 170.4 33.6 173.9 32.2 C 173.3 32.3 173.6 32.2 174.3 31.9 C 173.2 32.3 171.6 32.9 170.5 33.4 C 170.8 33.2 171.6 32.9 171.8 32.7 C 171.2 33.0 170.3 33.4 170.0 33.4 C 171.6 32.7 173.3 31.9 175.0 31.2 C 175.3 30.9 174.3 31.5 174.3 31.4 C 175.9 30.6 178.2 29.7 179.4 29.1 C 178.0 29.6 175.3 30.8 174.5 31.1 C 175.0 30.9 175.5 30.6 176.1 30.3 C 177.2 29.8 177.7 29.6 176.4 30.1 C 175.8 30.4 175.8 30.4 175.9 30.3 C 176.7 29.9 179.3 28.8 179.2 28.7 C 178.5 28.9 175.9 30.1 175.2 30.3 C 175.6 30.0 177.0 29.4 177.1 29.3 C 174.2 30.6 174.3 30.5 173.6 30.9 C 173.9 30.8 174.7 30.4 174.7 30.4 C 172.9 31.2 171.1 32.0 169.3 32.8 C 169.3 32.8 169.3 32.8 169.3 32.8 C 169.3 32.8 169.3 32.8 169.3 32.8 C 169.3 32.8 169.3 32.8 169.3 32.8 C 169.4 32.7 169.3 32.6 169.1 32.6 C 169.9 32.3 170.7 31.9 172.2 31.3 C 171.7 31.3 170.4 31.9 169.2 32.5 C 169.2 32.5 169.2 32.4 169.2 32.4 C 171.2 31.5 174.2 30.2 176.3 29.2 C 175.3 29.6 171.9 31.1 169.5 32.1 C 169.6 32.1 169.6 32.0 169.7 32.0 C 166.7 33.3 163.2 34.7 159.9 36.2 C 161.4 35.3 163.4 34.6 165.4 33.7 C 166.4 33.3 167.2 32.8 168.1 32.4 C 170.8 31.3 178.6 27.9 179.5 27.5 C 180.4 27.0 172.5 30.4 172.4 30.4 C 172.4 30.4 176.1 28.7 174.3 29.5 C 173.4 29.9 171.4 30.8 170.0 31.4 C 169.9 31.3 169.8 31.3 169.7 31.2 C 171.0 30.7 172.5 30.0 172.6 30.1 C 173.2 29.8 174.5 29.3 174.7 29.2 C 174.5 29.2 174.2 29.4 174.2 29.4 C 174.5 29.2 174.9 29.0 174.9 29.0 C 173.4 29.6 171.3 30.5 169.7 31.2 C 169.5 31.2 169.3 31.2 169.2 31.3 C 169.2 31.2 170.5 30.7 171.6 30.2 C 172.7 29.6 170.3 30.6 168.4 31.5 C 168.0 31.6 167.7 31.7 167.4 31.8 C 168.1 31.5 168.8 31.1 169.7 30.7 C 170.8 30.2 170.7 30.2 171.8 29.7 C 169.8 30.5 167.4 31.5 165.5 32.3 C 164.8 32.6 164.1 32.8 163.4 33.0 C 164.9 32.3 166.3 31.6 167.2 31.2 C 167.9 30.9 168.6 30.6 168.9 30.4 C 168.2 30.7 169.9 29.9 169.6 30.0 C 168.7 30.4 166.8 31.2 166.2 31.6 C 164.8 32.2 163.2 32.9 161.8 33.5 C 161.6 33.6 161.4 33.7 161.2 33.7 C 162.4 33.2 163.5 32.7 164.8 32.1 C 164.1 32.2 160.6 33.7 158.1 34.9 C 152.9 37.0 147.9 39.8 142.7 42.1 C 142.5 42.2 142.2 42.3 141.9 42.4 C 141.5 42.6 141.1 42.7 140.7 42.8 C 141.9 42.3 143.0 41.8 143.9 41.4 C 140.2 42.8 149.1 39.0 149.6 38.7 C 143.6 41.1 132.6 46.0 125.7 48.8 C 127.3 48.1 127.8 47.9 126.1 48.6 C 125.6 48.8 125.1 49.0 124.6 49.2 C 131.5 46.1 138.9 43.2 144.3 40.6 C 141.0 42.0 136.1 44.2 134.6 44.7 C 135.6 44.3 137.0 43.7 137.2 43.5 C 135.4 44.2 129.8 46.8 128.1 47.4 C 136.2 43.8 147.3 39.1 153.2 36.3 C 144.2 40.3 131.9 45.5 124.2 49.0 C 125.6 48.4 125.6 48.4 124.9 48.8 C 122.5 49.9 120.1 50.9 117.6 52.0 C 117.1 52.2 117.3 52.1 118.5 51.6 C 119.4 51.1 120.0 50.9 120.3 50.7 C 119.6 51.0 112.0 54.3 118.1 51.6 C 124.1 49.0 134.6 44.4 128.5 47.0 C 122.3 49.6 119.8 50.6 123.2 49.1 C 126.5 47.6 137.1 42.9 133.5 44.4 C 130.0 45.9 122.4 49.1 118.2 50.9 C 114.0 52.8 121.2 50.0 115.0 52.8 C 108.7 55.5 113.9 53.1 112.7 53.6 C 110.8 54.4 107.3 55.9 104.0 57.4 C 101.7 58.3 98.7 59.6 97.2 60.2 C 97.3 60.1 104.3 57.1 101.5 58.3 C 94.7 61.2 87.0 64.5 90.2 63.3 C 86.0 65.1 82.8 66.5 80.2 67.6 C 76.0 69.3 71.3 71.4 70.7 71.6 C 70.1 71.8 59.0 76.9 54.6 78.4 C 54.3 78.5 46.7 81.9 46.1 82.3 C 38.9 85.2 39.8 84.7 32.7 87.8 C 26.8 90.4 25.0 91.3 24.0 91.7 C 17.8 94.5 17.8 94.3 15.0 96.2 C 14.1 96.7 12.7 97.3 12.3 97.8 C 11.6 98.7 11.4 99.5 12.0 100.2 C 12.0 100.2 12.0 100.2 12.0 100.2 Z M 168.5 33.3 C 169.6 32.9 171.6 32.0 172.8 31.5 C 171.5 32.2 169.9 32.9 168.2 33.6 C 168.3 33.5 168.4 33.4 168.5 33.3 C 168.5 33.3 168.5 33.3 168.5 33.3 Z M 159.3 35.5 C 160.0 35.1 161.0 34.8 161.8 34.5 C 162.6 34.1 163.4 33.8 164.6 33.2 C 164.5 33.2 162.5 34.0 160.9 34.7 C 160.9 34.6 160.9 34.6 160.9 34.6 C 161.6 34.2 162.5 33.8 163.5 33.4 C 163.9 33.2 164.3 33.1 164.6 32.9 C 164.7 33.0 164.1 33.2 163.9 33.3 C 164.2 33.3 165.2 32.9 166.4 32.4 C 166.5 32.4 166.7 32.3 166.8 32.3 C 167.0 32.3 166.1 32.7 167.1 32.3 C 166.5 32.7 164.6 33.4 163.5 33.9 C 164.7 33.2 159.9 35.4 158.6 35.8 C 158.8 35.7 159.1 35.6 159.3 35.5 Z M 151.5 43.0 C 150.9 43.3 150.2 43.6 149.6 43.9 C 150.5 43.4 151.3 43.1 151.9 42.8 C 151.8 42.9 151.7 42.9 151.5 43.0 Z M 97.4 67.3 C 101.3 65.4 109.7 62.0 110.2 61.7 C 111.0 61.3 111.9 60.9 112.8 60.6 C 107.3 63.0 101.3 65.6 97.4 67.3 C 97.4 67.3 97.4 67.3 97.4 67.3 Z M 109.0 55.7 C 109.3 55.5 109.2 55.6 108.4 56.0 C 104.2 57.9 101.7 59.0 104.4 57.9 C 106.7 56.9 111.7 54.8 110.2 55.4 C 108.3 56.3 106.3 57.1 104.3 58.0 C 102.8 58.7 101.2 59.2 99.6 59.8 C 102.9 58.3 106.1 56.9 109.0 55.7 C 109.0 55.7 109.0 55.7 109.0 55.7 Z M 97.7 60.4 C 98.9 59.9 100.3 59.3 101.8 58.7 C 100.5 59.2 99.3 59.8 98.0 60.3 C 97.9 60.4 97.8 60.4 97.7 60.4 Z M 96.2 60.9 C 98.6 59.9 101.0 58.9 98.6 60.0 C 98.0 60.2 97.5 60.4 96.9 60.7 C 96.7 60.8 96.4 60.9 96.2 60.9 Z M 94.7 61.5 C 94.7 61.6 95.1 61.4 95.9 61.1 C 94.3 61.8 91.0 63.2 91.2 63.1 C 92.2 62.6 93.4 62.1 94.7 61.5 C 94.7 61.5 94.7 61.5 94.7 61.5 Z M 94.8 68.6 C 95.9 68.2 96.8 67.8 95.2 68.5 C 94.5 68.8 93.9 69.1 93.2 69.4 C 93.8 69.1 94.3 68.9 94.8 68.6 Z M 147.9 38.9 C 147.4 39.1 145.7 39.9 144.7 40.3 C 144.7 40.6 148.6 38.7 147.9 38.9 C 147.9 38.9 147.9 38.9 147.9 38.9 Z M 154.3 36.0 C 153.9 36.2 152.1 37.0 151.1 37.4 C 151.1 37.7 155.0 35.8 154.3 36.0 C 154.3 36.0 154.3 36.0 154.3 36.0 Z M 54.5 78.4 C 54.6 78.4 54.6 78.3 54.6 78.3 C 54.6 78.3 54.6 78.4 54.5 78.4 C 54.5 78.4 54.5 78.4 54.5 78.4 Z M 54.5 78.4 " fill="#179A19"></path><path d="M 182.8 43.9 C 183.6 44.0 183.9 43.6 184.0 43.5 C 184.1 43.4 184.0 43.5 184.0 43.4 L 184.1 43.4 L 184.1 43.4 L 184.1 43.4 L 184.2 43.3 L 184.3 43.1 L 184.5 42.8 C 184.7 42.7 184.8 42.6 184.9 42.6 C 185.2 42.7 184.3 43.6 184.6 43.7 C 184.9 43.7 187.8 40.2 187.9 40.1 C 188.0 39.7 188.6 38.8 188.8 38.5 C 188.4 39.1 188.2 39.7 188.1 39.9 C 188.1 39.9 187.5 40.9 188.4 40.2 C 188.4 40.3 188.4 40.4 188.4 40.4 L 188.5 40.4 C 188.4 40.4 187.6 41.2 187.7 41.4 C 188.1 41.8 190.0 38.4 190.4 38.3 C 190.1 38.7 189.9 39.0 189.9 39.2 C 190.3 38.3 193.2 35.1 193.7 34.4 C 195.5 32.0 197.2 29.1 199.0 26.6 C 199.8 25.5 200.7 24.2 201.7 22.8 L 203.2 20.6 L 203.3 20.5 L 203.4 20.4 L 203.4 20.4 C 203.5 20.2 203.1 20.8 203.6 20.0 C 204.5 19.4 203.1 16.5 202.2 16.8 C 201.4 16.7 202.0 16.8 201.8 16.7 L 201.8 16.7 L 201.4 16.7 L 200.8 16.7 L 199.4 16.6 C 195.9 16.4 192.3 16.1 189.4 15.8 C 187.5 15.5 179.8 15.3 179.4 15.1 C 179.2 15.0 176.9 14.9 174.6 14.8 L 172.9 14.7 L 172.1 14.6 L 172.0 14.6 L 171.9 14.6 L 171.8 14.6 L 171.8 14.6 L 171.8 14.6 C 172.0 14.8 171.4 14.2 170.3 15.3 C 169.9 18.0 170.3 16.5 170.2 16.9 L 170.2 16.9 L 170.3 17.2 C 170.7 18.0 170.9 18.6 170.9 18.6 C 171.0 18.9 170.5 18.5 170.4 18.5 L 170.9 19.7 C 170.7 19.6 170.6 19.4 170.5 19.2 C 171.1 21.2 173.5 25.1 174.1 26.5 C 174.1 26.3 174.4 26.6 174.4 26.6 C 174.4 26.6 179.1 38.1 179.6 39.3 C 180.1 40.4 182.1 42.8 181.8 41.5 C 181.6 40.6 182.0 41.3 182.3 41.8 C 182.6 39.9 183.2 44.9 183.1 40.9 C 183.1 40.9 184.0 41.8 184.0 42.3 C 183.1 40.9 184.0 41.8 184.0 42.3 C 183.1 40.9 184.0 41.8 184.0 42.3 " fill="#179A19"></path></g></svg>