<?xml version="1.0" encoding="UTF-8" standalone="no"?><svg xmlns="http://www.w3.org/2000/svg" xmlns:xlink="http://www.w3.org/1999/xlink" clip-rule="evenodd" stroke-miterlimit="10" viewBox="0 0 221 36"><desc>SVG generated by Keynote</desc><defs></defs><g transform="matrix(1.00, 0.00, -0.00, -1.00, 0.0, 36.0)"><path d="M 173.8 20.2 C 174.1 20.3 175.8 20.3 175.8 20.2 C 175.2 20.2 173.9 20.1 173.8 20.2 C 173.8 20.2 173.8 20.2 173.8 20.2 Z M 170.5 20.3 C 171.1 20.3 172.4 20.3 172.8 20.2 C 172.1 20.3 170.7 20.2 170.5 20.3 C 170.5 20.3 170.5 20.3 170.5 20.3 Z M 175.5 20.0 C 176.4 19.9 178.0 20.0 178.4 19.9 C 177.5 19.9 175.9 19.9 175.5 20.0 C 175.5 20.0 175.5 20.0 175.5 20.0 Z M 129.4 21.8 C 129.7 21.8 131.4 21.8 131.4 21.7 C 130.8 21.8 129.5 21.7 129.4 21.8 C 129.4 21.8 129.4 21.8 129.4 21.8 Z M 138.5 21.5 C 139.1 21.6 140.4 21.5 140.8 21.5 C 140.1 21.5 138.7 21.4 138.5 21.5 C 138.5 21.5 138.5 21.5 138.5 21.5 Z M 143.8 21.6 C 145.0 21.6 146.3 21.6 146.1 21.5 C 145.7 21.5 143.9 21.4 143.8 21.6 C 143.8 21.6 143.8 21.6 143.8 21.6 Z M 174.5 15.6 C 173.1 15.7 172.2 15.6 171.3 15.6 C 166.8 15.6 173.6 15.8 174.5 15.6 C 174.5 15.6 174.5 15.6 174.5 15.6 Z M 153.1 21.2 C 152.2 21.2 151.5 21.2 151.1 21.3 C 151.9 21.3 153.1 21.3 153.1 21.2 C 153.1 21.2 153.1 21.2 153.1 21.2 Z M 160.8 21.1 C 161.0 21.2 165.5 21.2 168.1 21.1 C 165.9 21.1 160.6 21.1 160.8 21.1 C 160.8 21.1 160.8 21.1 160.8 21.1 Z M 163.8 15.6 C 160.8 15.7 156.1 15.7 154.0 15.7 C 151.8 15.8 157.8 15.8 163.2 15.8 C 168.7 15.8 164.2 15.6 166.4 15.5 C 168.6 15.5 164.3 15.4 162.1 15.5 C 159.9 15.5 163.5 15.5 163.8 15.6 C 163.8 15.6 163.8 15.6 163.8 15.6 Z M 163.9 15.2 C 165.0 15.2 165.9 15.2 166.5 15.1 C 165.4 15.1 164.4 15.1 163.9 15.2 C 163.9 15.2 163.9 15.2 163.9 15.2 Z M 5.7 17.9 C 6.1 19.0 8.7 19.9 11.5 20.5 C 12.2 20.7 12.9 20.8 13.6 20.9 C 18.8 21.4 24.0 21.7 29.2 21.8 C 30.2 21.8 31.2 21.8 32.3 21.8 C 35.5 21.9 38.7 21.9 41.9 22.0 C 43.0 22.0 44.0 22.0 45.1 22.0 C 49.0 22.1 52.7 22.0 56.5 22.0 C 58.4 22.0 60.3 22.0 62.3 22.2 C 63.3 22.3 67.5 22.2 69.0 22.1 C 67.6 22.4 74.5 22.3 74.2 22.3 C 75.0 22.2 75.8 22.1 76.6 22.1 C 77.4 22.1 76.4 22.1 75.4 22.0 C 76.3 22.0 77.2 22.0 78.1 22.0 C 79.1 22.0 80.0 22.0 81.0 22.0 C 84.3 22.1 87.8 22.0 90.8 21.9 C 99.0 21.9 121.7 21.8 117.6 21.8 C 113.0 21.7 115.3 21.6 116.6 21.6 C 117.3 21.6 118.3 21.6 119.4 21.6 C 119.3 21.6 119.3 21.7 119.1 21.7 C 121.1 21.7 124.0 21.8 126.9 21.7 C 126.4 21.7 125.7 21.7 125.4 21.6 C 126.9 21.6 125.7 21.5 126.7 21.5 C 129.3 21.5 130.5 21.4 127.5 21.4 C 130.3 21.3 132.1 21.2 134.9 21.0 C 136.0 21.0 135.4 21.0 135.1 21.1 C 136.9 21.1 141.2 21.1 141.6 21.2 C 142.0 21.2 130.1 21.2 132.2 21.3 C 133.1 21.3 134.8 21.3 135.5 21.3 C 134.0 21.3 132.2 21.3 131.2 21.4 C 132.2 21.4 133.7 21.4 134.5 21.4 C 133.5 21.4 132.8 21.4 132.5 21.5 C 134.0 21.5 135.1 21.5 136.8 21.5 C 137.6 21.5 136.2 21.4 137.8 21.4 C 138.1 21.4 136.8 21.4 136.8 21.3 C 138.2 21.3 140.8 21.3 141.5 21.3 C 142.1 21.3 139.9 21.3 139.8 21.3 C 145.0 21.2 150.9 21.2 152.7 21.2 C 154.5 21.1 152.8 21.1 152.0 21.1 C 154.2 21.1 155.8 21.1 158.3 21.1 C 159.9 21.0 159.2 21.0 158.6 21.0 C 159.1 21.0 159.4 21.0 159.7 21.0 C 159.9 21.0 160.3 20.9 160.7 20.9 C 159.7 20.9 157.8 20.9 157.0 20.9 C 158.5 20.8 162.0 20.9 163.3 20.8 C 161.3 20.7 159.1 20.8 156.8 20.7 C 161.2 20.7 165.8 20.9 169.4 20.7 C 168.8 20.7 168.5 20.6 168.0 20.6 C 169.3 20.6 171.4 20.7 172.6 20.6 C 173.3 20.6 174.6 20.5 175.9 20.5 C 173.6 20.5 172.0 20.5 170.4 20.5 C 170.4 20.5 170.6 20.5 170.9 20.4 C 167.2 20.3 165.1 20.6 162.5 20.6 C 162.3 20.6 162.1 20.6 161.9 20.6 C 161.0 20.5 164.0 20.5 164.3 20.5 C 160.5 20.4 156.2 20.5 154.3 20.4 C 158.9 20.4 163.0 20.4 166.4 20.3 C 165.5 20.2 162.1 20.3 160.4 20.2 C 167.9 20.1 168.7 20.1 169.3 20.1 C 168.7 20.1 168.1 20.1 167.5 20.0 C 167.7 20.0 167.8 20.0 168.0 20.0 C 171.3 20.0 175.2 20.0 175.0 19.9 C 174.8 19.9 171.8 19.9 168.6 19.9 C 168.9 19.8 169.3 19.8 169.6 19.7 C 173.4 19.7 177.6 19.5 181.3 19.6 C 180.7 19.5 181.0 19.5 181.8 19.5 C 180.6 19.4 178.9 19.4 177.7 19.3 C 178.1 19.3 178.9 19.3 179.1 19.3 C 178.5 19.3 177.5 19.3 177.2 19.2 C 179.0 19.2 180.9 19.1 182.7 19.1 C 183.1 19.0 181.9 19.1 182.0 19.0 C 183.8 19.0 186.3 19.0 187.6 18.9 C 186.1 18.9 183.2 18.9 182.3 18.9 C 182.8 18.8 183.4 18.8 184.0 18.8 C 185.2 18.8 185.8 18.8 184.5 18.7 C 183.7 18.7 183.8 18.7 183.9 18.7 C 184.8 18.6 187.6 18.6 187.6 18.5 C 186.8 18.5 184.0 18.5 183.2 18.4 C 183.8 18.3 185.2 18.3 185.4 18.2 C 182.2 18.3 182.3 18.2 181.5 18.3 C 181.9 18.3 182.8 18.3 182.8 18.3 C 180.8 18.3 178.8 18.3 176.8 18.3 C 176.8 18.3 176.8 18.3 176.8 18.3 C 176.8 18.3 176.8 18.3 176.8 18.3 C 176.8 18.3 176.8 18.3 176.8 18.3 C 177.0 18.3 176.9 18.2 176.7 18.1 C 177.6 18.1 178.5 18.1 180.1 18.1 C 179.7 18.0 178.2 18.0 176.8 18.0 C 176.9 18.0 176.9 18.0 176.9 18.0 C 179.1 18.0 182.4 17.9 184.7 17.8 C 183.6 17.8 179.9 17.8 177.3 17.8 C 177.4 17.8 177.5 17.8 177.5 17.7 C 174.3 17.8 170.5 17.7 166.9 17.7 C 168.6 17.5 170.7 17.7 172.9 17.6 C 174.0 17.6 174.9 17.6 175.9 17.5 C 178.8 17.5 187.3 17.6 188.3 17.5 C 189.4 17.4 180.7 17.4 180.7 17.4 C 180.6 17.3 184.7 17.3 182.8 17.3 C 181.8 17.3 179.6 17.3 178.1 17.3 C 178.0 17.3 177.9 17.2 177.9 17.1 C 179.3 17.1 180.9 17.0 180.9 17.2 C 181.6 17.2 183.0 17.2 183.2 17.2 C 183.0 17.2 182.7 17.2 182.7 17.1 C 183.0 17.1 183.5 17.1 183.5 17.1 C 181.9 17.1 179.6 17.0 177.8 17.0 C 177.7 17.0 177.5 17.0 177.3 16.9 C 177.4 16.9 178.8 16.9 180.0 16.8 C 181.3 16.8 178.6 16.8 176.5 16.8 C 176.2 16.7 175.9 16.7 175.5 16.7 C 176.2 16.7 177.1 16.7 178.1 16.6 C 179.2 16.6 179.2 16.5 180.3 16.5 C 178.2 16.4 175.6 16.4 173.6 16.4 C 172.8 16.4 172.1 16.3 171.3 16.2 C 173.0 16.2 174.6 16.1 175.5 16.1 C 176.3 16.1 177.1 16.1 177.4 16.0 C 176.7 16.0 178.5 16.0 178.2 15.9 C 177.2 16.0 175.2 15.9 174.5 16.1 C 172.9 16.1 171.2 16.0 169.6 16.1 C 169.4 16.0 169.2 16.0 169.0 16.0 C 170.3 16.0 171.6 16.0 173.0 15.9 C 172.3 15.8 168.5 15.8 165.7 15.9 C 160.1 15.8 154.4 16.3 148.8 16.4 C 148.5 16.4 148.2 16.4 147.8 16.3 C 147.4 16.3 147.0 16.3 146.6 16.2 C 147.9 16.2 149.2 16.2 150.1 16.1 C 146.2 16.0 155.9 16.1 156.5 16.0 C 150.0 15.8 137.9 15.9 130.4 15.8 C 132.2 15.8 132.8 15.8 130.9 15.7 C 130.4 15.7 129.8 15.7 129.3 15.7 C 136.9 15.6 144.8 15.8 150.9 15.6 C 147.3 15.6 141.8 15.7 140.3 15.5 C 141.4 15.5 142.9 15.6 143.1 15.5 C 141.3 15.4 135.1 15.5 133.3 15.4 C 142.1 15.3 154.2 15.4 160.7 15.2 C 150.8 15.3 137.5 15.2 129.0 15.3 C 130.5 15.4 130.5 15.4 129.7 15.5 C 127.1 15.5 124.5 15.5 121.8 15.5 C 121.2 15.5 121.4 15.5 122.7 15.5 C 123.8 15.4 124.4 15.4 124.8 15.4 C 124.0 15.4 115.7 15.4 122.3 15.3 C 129.0 15.3 140.4 15.2 133.7 15.2 C 127.0 15.2 124.4 15.1 128.0 15.0 C 131.7 15.0 143.3 14.9 139.4 14.9 C 135.5 14.8 127.4 14.8 122.7 14.8 C 118.1 14.8 125.9 15.1 119.1 15.2 C 112.3 15.2 117.9 15.0 116.6 15.0 C 114.6 15.0 110.8 15.0 107.2 15.0 C 104.7 15.0 101.4 15.0 99.8 15.0 C 99.9 14.9 107.6 15.0 104.5 14.9 C 97.1 14.9 88.7 14.9 92.2 15.0 C 87.5 15.0 84.1 15.0 81.2 15.0 C 76.8 14.9 71.5 14.9 71.0 14.9 C 70.3 14.8 58.1 15.1 53.5 14.7 C 53.1 14.7 44.9 14.8 44.2 14.9 C 36.3 14.8 37.4 14.7 29.7 14.8 C 23.2 14.8 21.2 14.9 20.1 14.9 C 13.3 15.0 13.4 14.8 10.0 15.4 C 9.0 15.5 7.5 15.5 7.0 15.8 C 5.9 16.4 5.4 17.1 5.7 17.9 C 5.7 17.9 5.7 17.9 5.7 17.9 Z M 175.9 18.5 C 177.1 18.6 179.3 18.5 180.6 18.6 C 179.1 18.7 177.3 18.7 175.5 18.6 C 175.6 18.6 175.8 18.6 175.9 18.5 C 175.9 18.5 175.9 18.5 175.9 18.5 Z M 166.6 16.8 C 167.4 16.8 168.4 16.9 169.3 16.9 C 170.2 16.9 171.1 16.9 172.4 16.9 C 172.2 16.8 170.1 16.8 168.4 16.8 C 168.4 16.7 168.4 16.7 168.4 16.7 C 169.2 16.6 170.2 16.6 171.3 16.6 C 171.7 16.6 172.1 16.6 172.5 16.6 C 172.5 16.7 171.9 16.7 171.7 16.7 C 172.0 16.8 173.0 16.8 174.3 16.9 C 174.5 16.9 174.6 16.9 174.8 16.9 C 175.0 17.0 174.0 17.0 175.1 17.0 C 174.3 17.1 172.3 17.0 171.0 17.1 C 172.4 16.9 167.1 17.0 165.8 16.9 C 166.1 16.9 166.4 16.9 166.6 16.8 Z M 156.5 20.7 C 155.8 20.7 155.1 20.7 154.3 20.7 C 155.4 20.7 156.2 20.7 156.9 20.7 C 156.8 20.7 156.6 20.7 156.5 20.7 Z M 97.1 21.6 C 101.5 21.3 110.5 21.6 111.1 21.4 C 112.1 21.4 113.0 21.5 113.9 21.5 C 107.9 21.5 101.5 21.5 97.1 21.6 C 97.1 21.6 97.1 21.6 97.1 21.6 Z M 112.4 15.5 C 112.8 15.5 112.6 15.5 111.7 15.5 C 107.1 15.6 104.3 15.7 107.3 15.7 C 109.8 15.7 115.2 15.7 113.6 15.7 C 111.5 15.7 109.4 15.7 107.2 15.8 C 105.5 15.7 103.9 15.6 102.2 15.5 C 105.8 15.5 109.3 15.5 112.4 15.5 C 112.4 15.5 112.4 15.5 112.4 15.5 Z M 100.2 15.3 C 101.5 15.4 103.0 15.4 104.6 15.4 C 103.2 15.4 101.9 15.4 100.5 15.4 C 100.4 15.4 100.3 15.4 100.2 15.3 Z M 98.6 15.2 C 101.2 15.2 103.8 15.2 101.2 15.3 C 100.6 15.3 100.0 15.3 99.4 15.3 C 99.1 15.3 98.8 15.2 98.6 15.2 Z M 96.9 15.2 C 97.0 15.2 97.4 15.2 98.3 15.2 C 96.5 15.2 92.9 15.3 93.1 15.2 C 94.3 15.2 95.6 15.2 96.9 15.2 C 96.9 15.2 96.9 15.2 96.9 15.2 Z M 94.3 21.7 C 95.4 21.7 96.4 21.8 94.6 21.8 C 93.9 21.8 93.2 21.8 92.5 21.8 C 93.1 21.8 93.7 21.8 94.3 21.7 Z M 154.8 15.5 C 154.3 15.5 152.4 15.5 151.3 15.5 C 151.2 15.8 155.5 15.6 154.8 15.5 C 154.8 15.5 154.8 15.5 154.8 15.5 Z M 161.8 15.4 C 161.3 15.4 159.4 15.4 158.3 15.4 C 158.2 15.7 162.5 15.5 161.8 15.4 C 161.8 15.4 161.8 15.4 161.8 15.4 Z M 53.4 14.7 C 53.4 14.7 53.4 14.7 53.5 14.7 C 53.4 14.7 53.4 14.7 53.4 14.7 C 53.4 14.7 53.4 14.7 53.4 14.7 Z M 53.4 14.7 " fill="#179A19"></path><path d="M 184.9 33.9 C 185.5 34.3 186.0 34.1 186.1 34.0 C 186.2 34.0 186.2 34.0 186.2 34.0 L 186.2 34.0 L 186.2 34.0 L 186.2 33.9 L 186.3 33.9 L 186.5 33.8 L 186.8 33.6 C 187.0 33.5 187.2 33.5 187.3 33.6 C 187.5 33.7 186.4 34.2 186.6 34.4 C 186.9 34.5 190.9 32.5 191.0 32.4 C 191.3 32.1 192.2 31.5 192.5 31.4 C 191.9 31.7 191.5 32.2 191.2 32.4 C 191.3 32.4 190.4 33.0 191.5 32.7 C 191.4 32.8 191.3 32.9 191.4 32.9 L 191.4 33.0 C 191.4 33.0 190.3 33.3 190.4 33.6 C 190.5 34.1 193.6 31.7 194.0 31.8 C 193.6 32.0 193.3 32.2 193.2 32.4 C 194.0 31.8 197.8 29.9 198.6 29.5 C 201.3 28.0 203.9 26.1 206.6 24.5 C 207.8 23.7 209.1 22.9 210.6 22.0 L 212.8 20.6 L 212.9 20.6 L 213.0 20.5 L 213.1 20.5 C 213.2 20.4 212.7 20.8 213.5 20.2 C 214.5 20.0 214.3 16.8 213.4 16.7 C 212.7 16.3 213.2 16.6 213.1 16.5 L 213.0 16.5 L 212.7 16.3 L 212.1 16.0 L 210.9 15.4 C 207.7 13.8 204.5 12.2 202.0 10.7 C 200.4 9.7 193.4 6.4 193.1 6.1 C 193.0 6.0 190.9 5.0 188.8 3.9 L 187.3 3.2 L 186.6 2.8 L 186.5 2.7 L 186.4 2.7 L 186.4 2.7 L 186.3 2.7 L 186.3 2.7 C 186.5 2.9 186.2 2.1 184.7 2.7 C 183.2 5.0 184.2 3.8 183.9 4.1 L 183.9 4.1 L 183.9 4.5 C 184.0 5.3 184.0 5.9 184.0 6.0 C 183.9 6.2 183.6 5.7 183.5 5.7 L 183.5 6.9 C 183.4 6.8 183.4 6.6 183.3 6.3 C 183.1 8.4 183.8 12.9 183.7 14.5 C 183.8 14.3 184.0 14.7 184.0 14.7 C 183.9 14.7 183.8 27.1 183.8 28.4 C 183.7 29.6 184.6 32.6 184.8 31.3 C 185.0 30.4 185.1 31.2 185.2 31.8 C 186.3 30.2 184.8 35.0 186.3 31.3 C 186.3 31.2 186.8 32.4 186.6 32.9 C 186.3 31.2 186.8 32.4 186.6 32.9 C 186.3 31.2 186.8 32.4 186.6 32.9 " fill="#179A19"></path></g></svg>