<?xml version="1.0" encoding="UTF-8" standalone="no"?><svg xmlns="http://www.w3.org/2000/svg" xmlns:xlink="http://www.w3.org/1999/xlink" clip-rule="evenodd" stroke-miterlimit="10" viewBox="0 0 187 69"><desc>SVG generated by Keynote</desc><defs><linearGradient id="gradSh1.6" x1="0.0" y1="0.0" x2="100.0" y2="0.0" gradientUnits="userSpaceOnUse" gradientTransform="matrix(0.00, -0.56, -1.73, 0.00, 93.4, 63.0)"><stop offset="0.00000" stop-color="#189B1A"></stop><stop offset="0.00587" stop-color="#189A1A"></stop><stop offset="0.67082" stop-color="#207110"></stop><stop offset="0.68328" stop-color="#207010"></stop><stop offset="0.71408" stop-color="#206F0F"></stop><stop offset="0.71554" stop-color="#206E0F"></stop><stop offset="1.00000" stop-color="#235D0B"></stop></linearGradient></defs><g transform="matrix(1.00, 0.00, -0.00, -1.00, 0.0, 69.0)"><image xlink:href="A6C1214BF8A67F17DB1F487BAF247C83.png" width="183.00" height="66.00" transform="matrix(1.00, 0.00, -0.00, -1.00, 1.8, 67.6)" opacity="0.80"></image><g><clipPath id="clip0x7fe1085be4b0"><path d="M 45.3 62.0 C 43.1 61.6 41.0 59.8 41.0 57.6 L 41.0 43.6 L 7.8 35.7 L 41.0 27.7 L 41.0 11.5 C 41.0 9.3 43.1 8.0 45.3 8.0 L 175.3 8.0 C 177.5 8.0 179.0 9.3 179.0 11.5 L 179.0 57.6 C 179.0 59.8 177.5 62.0 175.3 62.0 L 45.3 62.0 Z M 45.3 61.6 "></path></clipPath><g clip-path="url(#clip0x7fe1085be4b0)"><path d="M 45.3 62.0 C 43.1 61.6 41.0 59.8 41.0 57.6 L 41.0 43.6 L 7.8 35.7 L 41.0 27.7 L 41.0 11.5 C 41.0 9.3 43.1 8.0 45.3 8.0 L 175.3 8.0 C 177.5 8.0 179.0 9.3 179.0 11.5 L 179.0 57.6 C 179.0 59.8 177.5 62.0 175.3 62.0 L 45.3 62.0 Z M 45.3 61.6 " fill="url(#gradSh1.6)"></path></g></g><image xlink:href="8E5D2EE90E21B2A2DFFEB019FA82B244.png" width="112.00" height="22.00" transform="matrix(1.00, 0.00, -0.00, -1.00, 56.0, 43.0)"></image><g><clipPath id="clip0x7fe108614190"><path d="M 40.2 7.6 L 183.1 7.6 L 183.1 61.6 L 40.2 61.6 Z M 40.2 7.6 "></path></clipPath><g clip-path="url(#clip0x7fe108614190)"><text xml:space="preserve" font-family="Helvetica-Light,Helvetica" font-size="18.0" fill="#FEFFFF" transform="matrix(1.00, 0.00, -0.00, -1.00, 55.8, 28.2)">N</text><text xml:space="preserve" font-family="Helvetica-Light,Helvetica" font-size="18.0" fill="#FEFFFF" transform="matrix(1.00, 0.00, -0.00, -1.00, 68.8, 28.2)">e</text><text xml:space="preserve" font-family="Helvetica-Light,Helvetica" font-size="18.0" fill="#FEFFFF" transform="matrix(1.00, 0.00, -0.00, -1.00, 78.8, 28.2)">x</text><text xml:space="preserve" font-family="Helvetica-Light,Helvetica" font-size="18.0" fill="#FEFFFF" transform="matrix(1.00, 0.00, -0.00, -1.00, 87.8, 28.2)">t</text><text xml:space="preserve" font-family="Helvetica-Light,Helvetica" font-size="18.0" fill="#FEFFFF" transform="matrix(1.00, 0.00, -0.00, -1.00, 92.8, 28.2)"> </text><text xml:space="preserve" font-family="Helvetica-Light,Helvetica" font-size="18.0" fill="#FEFFFF" transform="matrix(1.00, 0.00, -0.00, -1.00, 97.8, 28.2)">t</text><text xml:space="preserve" font-family="Helvetica-Light,Helvetica" font-size="18.0" fill="#FEFFFF" transform="matrix(1.00, 0.00, -0.00, -1.00, 102.8, 28.2)">a</text><text xml:space="preserve" font-family="Helvetica-Light,Helvetica" font-size="18.0" fill="#FEFFFF" transform="matrix(1.00, 0.00, -0.00, -1.00, 112.8, 28.2)">r</text><text xml:space="preserve" font-family="Helvetica-Light,Helvetica" font-size="18.0" fill="#FEFFFF" transform="matrix(1.00, 0.00, -0.00, -1.00, 118.8, 28.2)">g</text><text xml:space="preserve" font-family="Helvetica-Light,Helvetica" font-size="18.0" fill="#FEFFFF" transform="matrix(1.00, 0.00, -0.00, -1.00, 129.8, 28.2)">e</text><text xml:space="preserve" font-family="Helvetica-Light,Helvetica" font-size="18.0" fill="#FEFFFF" transform="matrix(1.00, 0.00, -0.00, -1.00, 139.8, 28.2)">t</text><text xml:space="preserve" font-family="Helvetica-Light,Helvetica" font-size="18.0" fill="#FEFFFF" transform="matrix(1.00, 0.00, -0.00, -1.00, 144.8, 28.2)">:</text><text xml:space="preserve" font-family="Helvetica-Light,Helvetica" font-size="18.0" fill="#FEFFFF" transform="matrix(1.00, 0.00, -0.00, -1.00, 149.8, 28.2)"> </text><text xml:space="preserve" font-family="Helvetica-Light,Helvetica" font-size="18.0" fill="#FEFFFF" transform="matrix(1.00, 0.00, -0.00, -1.00, 154.8, 28.2)">3</text></g></g></g></svg>