<?xml version="1.0" encoding="UTF-8" standalone="no"?><svg xmlns="http://www.w3.org/2000/svg" xmlns:xlink="http://www.w3.org/1999/xlink" clip-rule="evenodd" stroke-miterlimit="10" viewBox="0 0 105 63"><desc>SVG generated by Keynote</desc><defs></defs><g transform="matrix(1.00, 0.00, -0.00, -1.00, 0.0, 63.0)"><g><clipPath id="clip0x7fe10859e510"><path d="M 24.4 1.6 L 81.1 1.6 L 81.1 28.6 L 24.4 28.6 Z M 24.4 1.6 "></path></clipPath><g clip-path="url(#clip0x7fe10859e510)"><text xml:space="preserve" font-family="Helvetica-Light,Helvetica" font-size="16.0" fill="#FEFFFF" transform="matrix(1.00, 0.00, -0.00, -1.00, 28.9, 9.2)">V</text><text xml:space="preserve" font-family="Helvetica-Light,Helvetica" font-size="16.0" fill="#FEFFFF" transform="matrix(1.00, 0.00, -0.00, -1.00, 38.3, 9.2)">i</text><text xml:space="preserve" font-family="Helvetica-Light,Helvetica" font-size="16.0" fill="#FEFFFF" transform="matrix(1.00, 0.00, -0.00, -1.00, 41.9, 9.2)">s</text><text xml:space="preserve" font-family="Helvetica-Light,Helvetica" font-size="16.0" fill="#FEFFFF" transform="matrix(1.00, 0.00, -0.00, -1.00, 49.9, 9.2)">i</text><text xml:space="preserve" font-family="Helvetica-Light,Helvetica" font-size="16.0" fill="#FEFFFF" transform="matrix(1.00, 0.00, -0.00, -1.00, 53.4, 9.2)">t</text><text xml:space="preserve" font-family="Helvetica-Light,Helvetica" font-size="16.0" fill="#FEFFFF" transform="matrix(1.00, 0.00, -0.00, -1.00, 57.9, 9.2)">e</text><text xml:space="preserve" font-family="Helvetica-Light,Helvetica" font-size="16.0" fill="#FEFFFF" transform="matrix(1.00, 0.00, -0.00, -1.00, 66.8, 9.2)">d</text></g></g><g><clipPath id="clip0x7fe1085a5ea0"><path d="M 1.0 39.2 L 104.4 39.2 L 104.4 35.2 L 1.0 35.2 Z M 1.0 39.2 "></path></clipPath><g clip-path="url(#clip0x7fe1085a5ea0)"><path d="M 0.0 0.2 L 101.0 0.2 " fill="none" stroke="#FEFFFE" stroke-width="2.00" transform="matrix(1.00, 0.00, 0.00, -1.00, 2.0, 37.2)"></path></g></g><g><clipPath id="clip0x7fe1085a6f60"><path d="M 100.7 36.6 L 100.7 62.8 L 104.7 62.8 L 104.7 36.6 Z M 100.7 36.6 "></path></clipPath><g clip-path="url(#clip0x7fe1085a6f60)"><path d="M 0.4 0.3 L 24.4 0.3 " fill="none" stroke="#FEFFFE" stroke-width="2.00" transform="matrix(0.00, 1.00, 1.00, 0.00, 102.7, 37.6)"></path></g></g><g><clipPath id="clip0x7fe1085a7f30"><path d="M 0.7 36.6 L 0.7 62.8 L 4.7 62.8 L 4.7 36.6 Z M 0.7 36.6 "></path></clipPath><g clip-path="url(#clip0x7fe1085a7f30)"><path d="M 0.4 0.3 L 24.4 0.3 " fill="none" stroke="#FEFFFE" stroke-width="2.00" transform="matrix(0.00, 1.00, 1.00, 0.00, 2.7, 37.6)"></path></g></g></g></svg>