<?xml version="1.0" encoding="UTF-8" standalone="no"?><svg xmlns="http://www.w3.org/2000/svg" xmlns:xlink="http://www.w3.org/1999/xlink" clip-rule="evenodd" stroke-miterlimit="10" viewBox="0 0 1024 768"><desc>SVG generated by Keynote</desc><defs></defs><g transform="matrix(1.00, 0.00, -0.00, -1.00, 0.0, 768.0)"><g><clipPath id="clip0x7f8c89ef6390"><path d="M 0.0 768.0 L 1024.0 768.0 L 1024.0 0.0 L 0.0 0.0 Z M 0.0 768.0 "></path></clipPath><g clip-path="url(#clip0x7f8c89ef6390)"><image xlink:href="../../8B133F28-6561-4BEE-89B3-D80F66C4E22A/assets/EC11ABC5F29D162147B74F3E30388275.jpeg" width="2048.00" height="1536.00" transform="matrix(0.50, 0.00, -0.00, -0.50, 0.0, 768.0)"></image></g></g><text xml:space="preserve" font-family="Chalkduster,Chalkduster" font-size="72.0" fill="#FEFFFE" transform="matrix(1.00, 0.00, -0.00, -1.00, 204.2, 667.8)">2</text><text xml:space="preserve" font-family="Chalkduster,Chalkduster" font-size="72.0" fill="#FEFFFE" transform="matrix(1.00, 0.00, -0.00, -1.00, 244.7, 667.8)">0</text><text xml:space="preserve" font-family="Chalkduster,Chalkduster" font-size="72.0" fill="#FEFFFE" transform="matrix(1.00, 0.00, -0.00, -1.00, 294.2, 667.8)">1</text><text xml:space="preserve" font-family="Chalkduster,Chalkduster" font-size="72.0" fill="#FEFFFE" transform="matrix(1.00, 0.00, -0.00, -1.00, 336.3, 667.8)">2</text><text xml:space="preserve" font-family="Chalkduster,Chalkduster" font-size="72.0" fill="#FEFFFE" transform="matrix(1.00, 0.00, -0.00, -1.00, 376.8, 667.8)">…</text><text xml:space="preserve" font-family="Chalkduster,Chalkduster" font-size="72.0" fill="#FEFFFE" transform="matrix(1.00, 0.00, -0.00, -1.00, 448.3, 667.8)">X</text><text xml:space="preserve" font-family="Chalkduster,Chalkduster" font-size="72.0" fill="#FEFFFE" transform="matrix(1.00, 0.00, -0.00, -1.00, 491.9, 667.8)">i</text><text xml:space="preserve" font-family="Chalkduster,Chalkduster" font-size="72.0" fill="#FEFFFE" transform="matrix(1.00, 0.00, -0.00, -1.00, 521.0, 667.8)">a</text><text xml:space="preserve" font-family="Chalkduster,Chalkduster" font-size="72.0" fill="#FEFFFE" transform="matrix(1.00, 0.00, -0.00, -1.00, 570.6, 667.8)">n</text><text xml:space="preserve" font-family="Chalkduster,Chalkduster" font-size="72.0" fill="#FEFFFE" transform="matrix(1.00, 0.00, -0.00, -1.00, 621.2, 667.8)">g</text><text xml:space="preserve" font-family="Chalkduster,Chalkduster" font-size="72.0" fill="#FEFFFE" transform="matrix(1.00, 0.00, -0.00, -1.00, 706.1, 667.8)">S</text><text xml:space="preserve" font-family="Chalkduster,Chalkduster" font-size="72.0" fill="#FEFFFE" transform="matrix(1.00, 0.00, -0.00, -1.00, 741.9, 667.8)">u</text><text xml:space="preserve" font-family="Chalkduster,Chalkduster" font-size="72.0" fill="#FEFFFE" transform="matrix(1.00, 0.00, -0.00, -1.00, 791.4, 667.8)">i</text><image xlink:href="../../C867D010-7380-463B-A525-3FE37ADA0EE6/assets/44EB275A19C3DB6391BE90E00896A6A4.jpeg" width="3072.00" height="4096.00" transform="matrix(0.12, 0.00, -0.00, -0.12, 324.0, 575.0)"></image><image xlink:href="../../C867D010-7380-463B-A525-3FE37ADA0EE6/assets/F4E0757CAA8721607935CF4C6245E908.jpeg" width="2448.00" height="3264.00" transform="matrix(0.10, 0.00, -0.00, -0.10, 661.0, 642.0)"></image><image xlink:href="../../C867D010-7380-463B-A525-3FE37ADA0EE6/assets/D3E90D06E4CE9F7D32969A89740ACD78.jpeg" width="2448.00" height="3264.00" transform="matrix(0.10, 0.00, -0.00, -0.10, 80.0, 644.0)"></image><image xlink:href="../../C867D010-7380-463B-A525-3FE37ADA0EE6/assets/D0E29E8703A187506683AD44FD797826.jpeg" width="2448.00" height="3264.00" transform="matrix(0.08, 0.00, -0.00, -0.08, 681.0, 264.0)"></image><image xlink:href="../../C867D010-7380-463B-A525-3FE37ADA0EE6/assets/654297E411F8E27683AC7ED259C2D4D0.jpeg" width="2448.00" height="3264.00" transform="matrix(0.07, 0.00, -0.00, -0.07, 162.0, 253.0)"></image></g></svg>