<?xml version="1.0" encoding="UTF-8" standalone="no"?><svg xmlns="http://www.w3.org/2000/svg" xmlns:xlink="http://www.w3.org/1999/xlink" clip-rule="evenodd" stroke-miterlimit="10" viewBox="0 0 61 19"><desc>SVG generated by Keynote</desc><defs></defs><g transform="matrix(1.00, 0.00, -0.00, -1.00, 0.0, 19.0)"><g><clipPath id="clip0x7fe12682d7a0"><path d="M 0.5 18.7 L 0.5 0.5 L 18.1 0.5 L 18.1 18.7 Z M 0.5 18.7 "></path></clipPath><g clip-path="url(#clip0x7fe12682d7a0)"><image xlink:href="../../3E3B11BC-EB67-4695-BF98-B7E2DDAB4D21/assets/0BF6D8EE7301EDA63BB58B7729569853.png" width="16.00" height="16.00" transform="matrix(0.00, -1.01, 0.98, 0.00, 1.5, 17.7)" opacity="0.50"></image></g></g><g><clipPath id="clip0x7fe12682f110"><path d="M 0.5 18.7 L 0.5 0.5 L 18.1 0.5 L 18.1 18.7 Z M 0.5 18.7 "></path></clipPath><g clip-path="url(#clip0x7fe12682f110)"><g><clipPath id="clip0x7fe12682dcf0"><path d="M 5.9 8.0 C 7.8 6.0 10.8 6.0 12.7 8.0 C 14.5 10.0 14.5 13.2 12.7 15.2 C 10.8 17.2 7.8 17.2 5.9 15.2 C 4.0 13.2 4.0 10.0 5.9 8.0 Z M 5.9 8.0 "></path></clipPath><g clip-path="url(#clip0x7fe12682dcf0)"><image xlink:href="../../3E3B11BC-EB67-4695-BF98-B7E2DDAB4D21/assets/4B339DEB8C1CA0CF7071ACA74F0502BB.png" width="600.00" height="600.00" transform="matrix(0.00, -0.50, 0.50, 0.00, 4.5, 16.7)"></image></g></g></g></g><g><clipPath id="clip0x7fe126697180"><path d="M 21.5 18.7 L 21.5 0.5 L 39.1 0.5 L 39.1 18.7 Z M 21.5 18.7 "></path></clipPath><g clip-path="url(#clip0x7fe126697180)"><image xlink:href="../../3E3B11BC-EB67-4695-BF98-B7E2DDAB4D21/assets/0BF6D8EE7301EDA63BB58B7729569853.png" width="16.00" height="16.00" transform="matrix(0.00, -1.01, 0.98, 0.00, 22.5, 17.7)" opacity="0.50"></image></g></g><g><clipPath id="clip0x7fe126692dd0"><path d="M 21.5 18.7 L 21.5 0.5 L 39.1 0.5 L 39.1 18.7 Z M 21.5 18.7 "></path></clipPath><g clip-path="url(#clip0x7fe126692dd0)"><g><clipPath id="clip0x7fe1266982d0"><path d="M 27.0 8.0 C 28.8 6.0 31.9 6.0 33.7 8.0 C 35.6 10.0 35.6 13.2 33.7 15.2 C 31.9 17.2 28.8 17.2 27.0 15.2 C 25.1 13.2 25.1 10.0 27.0 8.0 Z M 27.0 8.0 "></path></clipPath><g clip-path="url(#clip0x7fe1266982d0)"><image xlink:href="../../3E3B11BC-EB67-4695-BF98-B7E2DDAB4D21/assets/4B339DEB8C1CA0CF7071ACA74F0502BB.png" width="600.00" height="600.00" transform="matrix(0.00, -0.50, 0.50, 0.00, 25.5, 16.7)"></image></g></g></g></g><g><clipPath id="clip0x7fe1265883a0"><path d="M 42.6 18.7 L 42.6 0.5 L 60.2 0.5 L 60.2 18.7 Z M 42.6 18.7 "></path></clipPath><g clip-path="url(#clip0x7fe1265883a0)"><image xlink:href="../../3E3B11BC-EB67-4695-BF98-B7E2DDAB4D21/assets/0BF6D8EE7301EDA63BB58B7729569853.png" width="16.00" height="16.00" transform="matrix(0.00, -1.01, 0.98, 0.00, 43.6, 17.7)" opacity="0.50"></image></g></g><g><clipPath id="clip0x7fe126589d20"><path d="M 42.6 18.7 L 42.6 0.5 L 60.2 0.5 L 60.2 18.7 Z M 42.6 18.7 "></path></clipPath><g clip-path="url(#clip0x7fe126589d20)"><g><clipPath id="clip0x7fe12658a560"><path d="M 48.0 8.0 C 49.9 6.0 52.9 6.0 54.8 8.0 C 56.7 10.0 56.7 13.2 54.8 15.2 C 52.9 17.2 49.9 17.2 48.0 15.2 C 46.1 13.2 46.1 10.0 48.0 8.0 Z M 48.0 8.0 "></path></clipPath><g clip-path="url(#clip0x7fe12658a560)"><image xlink:href="../../3E3B11BC-EB67-4695-BF98-B7E2DDAB4D21/assets/4B339DEB8C1CA0CF7071ACA74F0502BB.png" width="600.00" height="600.00" transform="matrix(0.00, -0.50, 0.50, 0.00, 46.6, 16.7)"></image></g></g></g></g></g></svg>