<?xml version="1.0" encoding="UTF-8" standalone="no"?><svg xmlns="http://www.w3.org/2000/svg" xmlns:xlink="http://www.w3.org/1999/xlink" clip-rule="evenodd" stroke-miterlimit="10" viewBox="0 0 54 57"><desc>SVG generated by Keynote</desc><defs></defs><g transform="matrix(1.00, 0.00, -0.00, -1.00, 0.0, 57.0)"><image xlink:href="../../02F80D6D-8987-46BD-A342-0C53BE9A6B40/assets/836DBC2F64AF551C451C006B33B643EE.png" width="51.00" height="51.00" transform="matrix(1.00, 0.00, -0.00, -1.00, 1.6, 52.0)" opacity="0.50"></image><path d="M 43.0 44.4 C 51.8 35.6 51.8 21.4 43.0 12.6 C 34.2 3.8 19.9 3.8 11.2 12.6 C 2.4 21.4 2.4 35.6 11.2 44.4 C 19.9 53.2 34.2 53.2 43.0 44.4 Z M 43.0 44.4 " fill="#C82505"></path><g><clipPath id="clip0x7fe125b6f4e0"><path d="M 4.6 6.0 L 49.6 6.0 L 49.6 51.0 L 4.6 51.0 Z M 4.6 6.0 "></path></clipPath><g clip-path="url(#clip0x7fe125b6f4e0)"><text xml:space="preserve" font-family="Helvetica-Light,Helvetica" font-size="13.0" fill="#FEFFFF" transform="matrix(1.00, 0.00, -0.00, -1.00, 13.7, 24.0)">[</text><text xml:space="preserve" font-family="Helvetica-Light,Helvetica" font-size="13.0" fill="#FEFFFF" transform="matrix(1.00, 0.00, -0.00, -1.00, 18.0, 24.0)">5</text><text xml:space="preserve" font-family="Helvetica-Light,Helvetica" font-size="13.0" fill="#FEFFFF" transform="matrix(1.00, 0.00, -0.00, -1.00, 25.3, 24.0)">,</text><text xml:space="preserve" font-family="Helvetica-Light,Helvetica" font-size="13.0" fill="#FEFFFF" transform="matrix(1.00, 0.00, -0.00, -1.00, 28.9, 24.0)">9</text><text xml:space="preserve" font-family="Helvetica-Light,Helvetica" font-size="13.0" fill="#FEFFFF" transform="matrix(1.00, 0.00, -0.00, -1.00, 36.1, 24.0)">]</text></g></g></g></svg>