<?xml version="1.0" encoding="UTF-8" standalone="no"?><svg xmlns="http://www.w3.org/2000/svg" xmlns:xlink="http://www.w3.org/1999/xlink" clip-rule="evenodd" stroke-miterlimit="10" viewBox="0 0 719 36"><desc>SVG generated by Keynote</desc><defs></defs><g transform="matrix(1.00, 0.00, -0.00, -1.00, 0.0, 36.0)"><text xml:space="preserve" font-family="Helvetica-Light,Helvetica" font-size="35.0" fill="#FEFFFF" transform="matrix(1.00, 0.00, -0.00, -1.00, -1.8, 9.0)">D</text><text xml:space="preserve" font-family="Helvetica-Light,Helvetica" font-size="35.0" fill="#FEFFFF" transform="matrix(1.00, 0.00, -0.00, -1.00, 23.5, 9.0)">y</text><text xml:space="preserve" font-family="Helvetica-Light,Helvetica" font-size="35.0" fill="#FEFFFF" transform="matrix(1.00, 0.00, -0.00, -1.00, 41.0, 9.0)">n</text><text xml:space="preserve" font-family="Helvetica-Light,Helvetica" font-size="35.0" fill="#FEFFFF" transform="matrix(1.00, 0.00, -0.00, -1.00, 60.5, 9.0)">a</text><text xml:space="preserve" font-family="Helvetica-Light,Helvetica" font-size="35.0" fill="#FEFFFF" transform="matrix(1.00, 0.00, -0.00, -1.00, 79.9, 9.0)">m</text><text xml:space="preserve" font-family="Helvetica-Light,Helvetica" font-size="35.0" fill="#FEFFFF" transform="matrix(1.00, 0.00, -0.00, -1.00, 109.1, 9.0)">i</text><text xml:space="preserve" font-family="Helvetica-Light,Helvetica" font-size="35.0" fill="#FEFFFF" transform="matrix(1.00, 0.00, -0.00, -1.00, 116.8, 9.0)">c</text><text xml:space="preserve" font-family="Helvetica-Light,Helvetica" font-size="35.0" fill="#FEFFFF" transform="matrix(1.00, 0.00, -0.00, -1.00, 136.3, 9.0)"> </text><text xml:space="preserve" font-family="Helvetica-Light,Helvetica" font-size="35.0" fill="#FEFFFF" transform="matrix(1.00, 0.00, -0.00, -1.00, 146.0, 9.0)">a</text><text xml:space="preserve" font-family="Helvetica-Light,Helvetica" font-size="35.0" fill="#FEFFFF" transform="matrix(1.00, 0.00, -0.00, -1.00, 165.5, 9.0)">n</text><text xml:space="preserve" font-family="Helvetica-Light,Helvetica" font-size="35.0" fill="#FEFFFF" transform="matrix(1.00, 0.00, -0.00, -1.00, 184.9, 9.0)">d</text><text xml:space="preserve" font-family="Helvetica-Light,Helvetica" font-size="35.0" fill="#FEFFFF" transform="matrix(1.00, 0.00, -0.00, -1.00, 206.3, 9.0)"> </text><text xml:space="preserve" font-family="Helvetica-Light,Helvetica" font-size="35.0" fill="#FEFFFF" transform="matrix(1.00, 0.00, -0.00, -1.00, 216.1, 9.0)">U</text><text xml:space="preserve" font-family="Helvetica-Light,Helvetica" font-size="35.0" fill="#FEFFFF" transform="matrix(1.00, 0.00, -0.00, -1.00, 241.3, 9.0)">n</text><text xml:space="preserve" font-family="Helvetica-Light,Helvetica" font-size="35.0" fill="#FEFFFF" transform="matrix(1.00, 0.00, -0.00, -1.00, 260.8, 9.0)">c</text><text xml:space="preserve" font-family="Helvetica-Light,Helvetica" font-size="35.0" fill="#FEFFFF" transform="matrix(1.00, 0.00, -0.00, -1.00, 280.2, 9.0)">e</text><text xml:space="preserve" font-family="Helvetica-Light,Helvetica" font-size="35.0" fill="#FEFFFF" transform="matrix(1.00, 0.00, -0.00, -1.00, 299.7, 9.0)">r</text><text xml:space="preserve" font-family="Helvetica-Light,Helvetica" font-size="35.0" fill="#FEFFFF" transform="matrix(1.00, 0.00, -0.00, -1.00, 312.0, 9.0)">t</text><text xml:space="preserve" font-family="Helvetica-Light,Helvetica" font-size="35.0" fill="#FEFFFF" transform="matrix(1.00, 0.00, -0.00, -1.00, 321.7, 9.0)">a</text><text xml:space="preserve" font-family="Helvetica-Light,Helvetica" font-size="35.0" fill="#FEFFFF" transform="matrix(1.00, 0.00, -0.00, -1.00, 341.2, 9.0)">i</text><text xml:space="preserve" font-family="Helvetica-Light,Helvetica" font-size="35.0" fill="#FEFFFF" transform="matrix(1.00, 0.00, -0.00, -1.00, 349.0, 9.0)">n</text><text xml:space="preserve" font-family="Helvetica-Light,Helvetica" font-size="35.0" fill="#FEFFFF" transform="matrix(1.00, 0.00, -0.00, -1.00, 368.4, 9.0)"> </text><text xml:space="preserve" font-family="Helvetica-Light,Helvetica" font-size="35.0" fill="#FEFFFF" transform="matrix(1.00, 0.00, -0.00, -1.00, 378.1, 9.0)">U</text><text xml:space="preserve" font-family="Helvetica-Light,Helvetica" font-size="35.0" fill="#FEFFFF" transform="matrix(1.00, 0.00, -0.00, -1.00, 403.4, 9.0)">A</text><text xml:space="preserve" font-family="Helvetica-Light,Helvetica" font-size="35.0" fill="#FEFFFF" transform="matrix(1.00, 0.00, -0.00, -1.00, 424.2, 9.0)">V</text><text xml:space="preserve" font-family="Helvetica-Light,Helvetica" font-size="35.0" fill="#FEFFFF" transform="matrix(1.00, 0.00, -0.00, -1.00, 445.6, 9.0)"> </text><text xml:space="preserve" font-family="Helvetica-Light,Helvetica" font-size="35.0" fill="#FEFFFF" transform="matrix(1.00, 0.00, -0.00, -1.00, 455.3, 9.0)">M</text><text xml:space="preserve" font-family="Helvetica-Light,Helvetica" font-size="35.0" fill="#FEFFFF" transform="matrix(1.00, 0.00, -0.00, -1.00, 484.4, 9.0)">i</text><text xml:space="preserve" font-family="Helvetica-Light,Helvetica" font-size="35.0" fill="#FEFFFF" transform="matrix(1.00, 0.00, -0.00, -1.00, 492.2, 9.0)">s</text><text xml:space="preserve" font-family="Helvetica-Light,Helvetica" font-size="35.0" fill="#FEFFFF" transform="matrix(1.00, 0.00, -0.00, -1.00, 509.7, 9.0)">s</text><text xml:space="preserve" font-family="Helvetica-Light,Helvetica" font-size="35.0" fill="#FEFFFF" transform="matrix(1.00, 0.00, -0.00, -1.00, 527.2, 9.0)">i</text><text xml:space="preserve" font-family="Helvetica-Light,Helvetica" font-size="35.0" fill="#FEFFFF" transform="matrix(1.00, 0.00, -0.00, -1.00, 535.0, 9.0)">o</text><text xml:space="preserve" font-family="Helvetica-Light,Helvetica" font-size="35.0" fill="#FEFFFF" transform="matrix(1.00, 0.00, -0.00, -1.00, 554.4, 9.0)">n</text><text xml:space="preserve" font-family="Helvetica-Light,Helvetica" font-size="35.0" fill="#FEFFFF" transform="matrix(1.00, 0.00, -0.00, -1.00, 573.9, 9.0)"> </text><text xml:space="preserve" font-family="Helvetica-Light,Helvetica" font-size="35.0" fill="#FEFFFF" transform="matrix(1.00, 0.00, -0.00, -1.00, 583.6, 9.0)">P</text><text xml:space="preserve" font-family="Helvetica-Light,Helvetica" font-size="35.0" fill="#FEFFFF" transform="matrix(1.00, 0.00, -0.00, -1.00, 605.0, 9.0)">l</text><text xml:space="preserve" font-family="Helvetica-Light,Helvetica" font-size="35.0" fill="#FEFFFF" transform="matrix(1.00, 0.00, -0.00, -1.00, 612.8, 9.0)">a</text><text xml:space="preserve" font-family="Helvetica-Light,Helvetica" font-size="35.0" fill="#FEFFFF" transform="matrix(1.00, 0.00, -0.00, -1.00, 632.2, 9.0)">n</text><text xml:space="preserve" font-family="Helvetica-Light,Helvetica" font-size="35.0" fill="#FEFFFF" transform="matrix(1.00, 0.00, -0.00, -1.00, 651.7, 9.0)">n</text><text xml:space="preserve" font-family="Helvetica-Light,Helvetica" font-size="35.0" fill="#FEFFFF" transform="matrix(1.00, 0.00, -0.00, -1.00, 671.2, 9.0)">i</text><text xml:space="preserve" font-family="Helvetica-Light,Helvetica" font-size="35.0" fill="#FEFFFF" transform="matrix(1.00, 0.00, -0.00, -1.00, 678.9, 9.0)">n</text><text xml:space="preserve" font-family="Helvetica-Light,Helvetica" font-size="35.0" fill="#FEFFFF" transform="matrix(1.00, 0.00, -0.00, -1.00, 698.4, 9.0)">g</text></g></svg>