<?xml version="1.0" encoding="UTF-8" standalone="no"?><svg xmlns="http://www.w3.org/2000/svg" xmlns:xlink="http://www.w3.org/1999/xlink" clip-rule="evenodd" stroke-miterlimit="10" viewBox="0 0 358 57"><desc>SVG generated by Keynote</desc><defs></defs><g transform="matrix(1.00, 0.00, -0.00, -1.00, 0.0, 57.0)"><text xml:space="preserve" font-family="Helvetica-Light,Helvetica" font-size="21.0" fill="#FEFFFF" transform="matrix(1.00, 0.00, -0.00, -1.00, 0.0, 38.3)">•</text><text xml:space="preserve" font-family="Helvetica-Light,Helvetica" font-size="28.0" fill="#FEFFFF" transform="matrix(1.00, 0.00, -0.00, -1.00, 30.0, 35.4)">E</text><text xml:space="preserve" font-family="Helvetica-Light,Helvetica" font-size="28.0" fill="#FEFFFF" transform="matrix(1.00, 0.00, -0.00, -1.00, 47.1, 35.4)">a</text><text xml:space="preserve" font-family="Helvetica-Light,Helvetica" font-size="28.0" fill="#FEFFFF" transform="matrix(1.00, 0.00, -0.00, -1.00, 62.7, 35.4)">c</text><text xml:space="preserve" font-family="Helvetica-Light,Helvetica" font-size="28.0" fill="#FEFFFF" transform="matrix(1.00, 0.00, -0.00, -1.00, 78.2, 35.4)">h</text><text xml:space="preserve" font-family="Helvetica-Light,Helvetica" font-size="28.0" fill="#FEFFFF" transform="matrix(1.00, 0.00, -0.00, -1.00, 93.8, 35.4)"> </text><text xml:space="preserve" font-family="Helvetica-Light,Helvetica" font-size="28.0" fill="#FEFFFF" transform="matrix(1.00, 0.00, -0.00, -1.00, 101.6, 35.4)">t</text><text xml:space="preserve" font-family="Helvetica-Light,Helvetica" font-size="28.0" fill="#FEFFFF" transform="matrix(1.00, 0.00, -0.00, -1.00, 109.4, 35.4)">a</text><text xml:space="preserve" font-family="Helvetica-Light,Helvetica" font-size="28.0" fill="#FEFFFF" transform="matrix(1.00, 0.00, -0.00, -1.00, 124.9, 35.4)">r</text><text xml:space="preserve" font-family="Helvetica-Light,Helvetica" font-size="28.0" fill="#FEFFFF" transform="matrix(1.00, 0.00, -0.00, -1.00, 134.3, 35.4)">g</text><text xml:space="preserve" font-family="Helvetica-Light,Helvetica" font-size="28.0" fill="#FEFFFF" transform="matrix(1.00, 0.00, -0.00, -1.00, 151.4, 35.4)">e</text><text xml:space="preserve" font-family="Helvetica-Light,Helvetica" font-size="28.0" fill="#FEFFFF" transform="matrix(1.00, 0.00, -0.00, -1.00, 166.9, 35.4)">t</text><text xml:space="preserve" font-family="Helvetica-Light,Helvetica" font-size="28.0" fill="#FEFFFF" transform="matrix(1.00, 0.00, -0.00, -1.00, 174.7, 35.4)"> </text><text xml:space="preserve" font-family="Helvetica-Light,Helvetica" font-size="28.0" fill="#FEFFFF" transform="matrix(1.00, 0.00, -0.00, -1.00, 182.5, 35.4)">w</text><text xml:space="preserve" font-family="Helvetica-Light,Helvetica" font-size="28.0" fill="#FEFFFF" transform="matrix(1.00, 0.00, -0.00, -1.00, 202.7, 35.4)">i</text><text xml:space="preserve" font-family="Helvetica-Light,Helvetica" font-size="28.0" fill="#FEFFFF" transform="matrix(1.00, 0.00, -0.00, -1.00, 208.9, 35.4)">t</text><text xml:space="preserve" font-family="Helvetica-Light,Helvetica" font-size="28.0" fill="#FEFFFF" transform="matrix(1.00, 0.00, -0.00, -1.00, 216.7, 35.4)">h</text><text xml:space="preserve" font-family="Helvetica-Light,Helvetica" font-size="28.0" fill="#FEFFFF" transform="matrix(1.00, 0.00, -0.00, -1.00, 232.3, 35.4)"> </text><text xml:space="preserve" font-family="Helvetica-Light,Helvetica" font-size="28.0" fill="#D35854" transform="matrix(1.00, 0.00, -0.00, -1.00, 240.1, 35.4)">u</text><text xml:space="preserve" font-family="Helvetica-Light,Helvetica" font-size="28.0" fill="#D35854" transform="matrix(1.00, 0.00, -0.00, -1.00, 255.7, 35.4)">n</text><text xml:space="preserve" font-family="Helvetica-Light,Helvetica" font-size="28.0" fill="#D35854" transform="matrix(1.00, 0.00, -0.00, -1.00, 271.2, 35.4)">c</text><text xml:space="preserve" font-family="Helvetica-Light,Helvetica" font-size="28.0" fill="#D35854" transform="matrix(1.00, 0.00, -0.00, -1.00, 286.8, 35.4)">e</text><text xml:space="preserve" font-family="Helvetica-Light,Helvetica" font-size="28.0" fill="#D35854" transform="matrix(1.00, 0.00, -0.00, -1.00, 302.4, 35.4)">r</text><text xml:space="preserve" font-family="Helvetica-Light,Helvetica" font-size="28.0" fill="#D35854" transform="matrix(1.00, 0.00, -0.00, -1.00, 312.2, 35.4)">t</text><text xml:space="preserve" font-family="Helvetica-Light,Helvetica" font-size="28.0" fill="#D35854" transform="matrix(1.00, 0.00, -0.00, -1.00, 320.0, 35.4)">a</text><text xml:space="preserve" font-family="Helvetica-Light,Helvetica" font-size="28.0" fill="#D35854" transform="matrix(1.00, 0.00, -0.00, -1.00, 335.5, 35.4)">i</text><text xml:space="preserve" font-family="Helvetica-Light,Helvetica" font-size="28.0" fill="#D35854" transform="matrix(1.00, 0.00, -0.00, -1.00, 341.8, 35.4)">n</text><text xml:space="preserve" font-family="Helvetica-Light,Helvetica" font-size="28.0" fill="#FEFFFF" transform="matrix(1.00, 0.00, -0.00, -1.00, 357.3, 35.4)"> </text><text xml:space="preserve" font-family="Helvetica-Light,Helvetica" font-size="28.0" fill="#FEFFFF" transform="matrix(1.00, 0.00, -0.00, -1.00, 30.0, 1.4)">b</text><text xml:space="preserve" font-family="Helvetica-Light,Helvetica" font-size="28.0" fill="#FEFFFF" transform="matrix(1.00, 0.00, -0.00, -1.00, 47.1, 1.4)">e</text><text xml:space="preserve" font-family="Helvetica-Light,Helvetica" font-size="28.0" fill="#FEFFFF" transform="matrix(1.00, 0.00, -0.00, -1.00, 62.7, 1.4)">n</text><text xml:space="preserve" font-family="Helvetica-Light,Helvetica" font-size="28.0" fill="#FEFFFF" transform="matrix(1.00, 0.00, -0.00, -1.00, 78.2, 1.4)">e</text><text xml:space="preserve" font-family="Helvetica-Light,Helvetica" font-size="28.0" fill="#FEFFFF" transform="matrix(1.00, 0.00, -0.00, -1.00, 93.8, 1.4)">ﬁ</text><text xml:space="preserve" font-family="Helvetica-Light,Helvetica" font-size="28.0" fill="#FEFFFF" transform="matrix(1.00, 0.00, -0.00, -1.00, 107.8, 1.4)">t</text></g></svg>